<?xml version="1.0" encoding="utf-8"?>

<!DOCTYPE svg PUBLIC "-//W3C//DTD SVG 1.0//EN" "http://www.w3.org/TR/2001/REC-SVG-20010904/DTD/svg10.dtd">
<!-- Uploaded to: SVG Repo, www.svgrepo.com, Generator: SVG Repo Mixer Tools -->
<svg version="1.0" id="Layer_1" xmlns="http://www.w3.org/2000/svg" xmlns:xlink="http://www.w3.org/1999/xlink" 
	 width="800px" height="800px" viewBox="0 0 64 64" enable-background="new 0 0 64 64" xml:space="preserve">
<path fill="#cccccc" d="M60,52V4c0-2.211-1.789-4-4-4H14v51v3h42v8H10c-2.209,0-4-1.791-4-4s1.791-4,4-4h2v-3V0H8
	C5.789,0,4,1.789,4,4v54c0,3.313,2.687,6,6,6h49c0.553,0,1-0.447,1-1s-0.447-1-1-1h-1v-8C59.104,54,60,53.104,60,52z M23,14h12
	c0.553,0,1,0.447,1,1s-0.447,1-1,1H23c-0.553,0-1-0.447-1-1S22.447,14,23,14z M42,28H23c-0.553,0-1-0.447-1-1s0.447-1,1-1h19
	c0.553,0,1,0.447,1,1S42.553,28,42,28z M49,22H23c-0.553,0-1-0.447-1-1s0.447-1,1-1h26c0.553,0,1,0.447,1,1S49.553,22,49,22z"/>
</svg>
