<?xml version="1.0" encoding="utf-8"?>

<!-- Uploaded to: SVG Repo, www.svgrepo.com, Generator: SVG Repo Mixer Tools -->
<svg width="800px" height="800px" viewBox="0 0 48 48" xmlns="http://www.w3.org/2000/svg">
  <title>bug-solid</title>
  <g id="Layer_2" data-name="Layer 2">
    <g id="invisible_box" data-name="invisible box">
      <rect width="48" height="48" fill="none"/>
    </g>
    <g id="icons_Q2" data-name="icons Q2">
      <path fill="#cccccc" d="M42,32a2,2,0,0,0,0-4H35.9a15.7,15.7,0,0,0-.4-2.3A10,10,0,0,0,43,16a2,2,0,0,0-4,0,6.1,6.1,0,0,1-4.7,5.9,13.6,13.6,0,0,0-3-4.6A7.2,7.2,0,0,0,32,14a8.7,8.7,0,0,0-1-3.9h0a4,4,0,0,1,4-4,2,2,0,0,0,0-4,8.1,8.1,0,0,0-7.4,4.9,7.7,7.7,0,0,0-7.2,0A8.1,8.1,0,0,0,13,2a2,2,0,0,0,0,4,4,4,0,0,1,4,4h0A8.7,8.7,0,0,0,16,14a7.5,7.5,0,0,0,.7,3.3,16.1,16.1,0,0,0-3,4.5A5.9,5.9,0,0,1,9,16a2,2,0,0,0-4,0,10.2,10.2,0,0,0,7.5,9.7,15.7,15.7,0,0,0-.4,2.3H6a2,2,0,0,0,0,4h6.1a15.7,15.7,0,0,0,.4,2.3A10.2,10.2,0,0,0,5,44a2,2,0,0,0,4,0,6.1,6.1,0,0,1,4.7-5.9c2,4.7,5.9,7.9,10.3,7.9s8.3-3.2,10.3-7.9A6,6,0,0,1,39,44a2,2,0,0,0,4,0,10.2,10.2,0,0,0-7.5-9.7,15.7,15.7,0,0,0,.4-2.3ZM26,40a2,2,0,0,1-4,0V20a2,2,0,0,1,2-2,2.1,2.1,0,0,1,2,2Z"/>
    </g>
  </g>
</svg>
