<?xml version="1.0" encoding="iso-8859-1"?>
<!-- Uploaded to: SVG Repo, www.svgrepo.com, Generator: SVG Repo Mixer Tools -->
<svg fill="#cccccc" height="800px" width="800px" version="1.1" id="Layer_1" xmlns="http://www.w3.org/2000/svg" xmlns:xlink="http://www.w3.org/1999/xlink" 
	 viewBox="0 0 512 512" xml:space="preserve">
<g>
	<g>
		<path d="M327.733,130.723H86.577c-8.388,0-15.747,6.145-16.667,14.482c-1.087,9.857,6.6,18.199,16.238,18.199h241.156
			c8.388,0,15.747-6.145,16.667-14.482C345.059,139.066,337.371,130.723,327.733,130.723z"/>
	</g>
</g>
<g>
	<g>
		<path d="M327.733,201.532H86.577c-8.388,0-15.747,6.145-16.667,14.482c-1.087,9.857,6.6,18.199,16.238,18.199h241.156
			c8.388,0,15.747-6.145,16.667-14.482C345.059,209.874,337.371,201.532,327.733,201.532z"/>
	</g>
</g>
<g>
	<g>
		<path d="M343.971,286.822c-0.922-8.337-8.28-14.482-16.668-14.482H86.577c-8.388,0-15.747,6.145-16.667,14.482
			c-1.087,9.857,6.6,18.199,16.238,18.199h241.586C337.37,305.021,345.059,296.679,343.971,286.822z"/>
	</g>
</g>
<g>
	<g>
		<path d="M470.246,118.74h-56.288V84.238c0-23.06-18.693-41.753-41.753-41.753H41.754C18.693,42.485,0,61.179,0,84.239v267.267
			c0,23.06,18.693,41.753,41.754,41.753h48.247l-22.735,48.736c-6.558,14.058,8.317,28.284,22.014,21.62l91.554-44.558v8.704
			c0,23.061,18.693,41.754,41.754,41.754h247.659c23.06,0,41.753-18.693,41.753-41.754V160.495
			C512,137.434,493.307,118.74,470.246,118.74z M116.234,414.045l14.051-30.186c5.05-10.848-2.886-23.28-14.814-23.28H41.753
			c-5.011,0-9.073-4.062-9.073-9.073V84.239c0-5.011,4.062-9.073,9.073-9.073h330.45c5.011,0,9.073,4.062,9.073,9.073v50.917
			v216.351c0,5.011-4.062,9.073-9.073,9.073H229.615c-2.48,0-4.928,0.565-7.158,1.653L116.234,414.045z M479.319,427.761
			c0,5.011-4.062,9.073-9.073,9.073H222.588c-5.011,0-9.073-4.062-9.073-9.073V403.11l20.18-9.85h138.509
			c23.06,0,41.753-18.693,41.753-41.753V151.421h56.288c5.011,0,9.073,4.062,9.073,9.073V427.761z"/>
	</g>
</g>
</svg>
