{
    "asset" : {
        "copyright" : "Marcel Plagmann",
        "generator" : "Khronos glTF Blender I/O v1.8.19",
        "version" : "2.0"
    },
    "scene" : 0,
    "scenes" : [
        {
            "name" : "Scene",
            "nodes" : [
                4
            ]
        }
    ],
    "nodes" : [
        {
            "mesh" : 0,
            "name" : "RedCup_RedCup_0",
            "scale" : [
                100,
                100,
                100
            ]
        },
        {
            "children" : [
                0
            ],
            "name" : "RedCup",
            "rotation" : [
                -0.7071068286895752,
                0,
                0,
                0.7071068286895752
            ],
            "scale" : [
                0.02539999969303608,
                0.02539999969303608,
                0.02539999969303608
            ]
        },
        {
            "children" : [
                1
            ],
            "name" : "RootNode"
        },
        {
            "children" : [
                2
            ],
            "name" : "e8267011f19d4bbd8b72bc3060205e92.fbx",
            "rotation" : [
                0.7071068286895752,
                0,
                0,
                0.7071068286895752
            ]
        },
        {
            "children" : [
                3
            ],
            "name" : "Sketchfab_model",
            "rotation" : [
                -0.7071068286895752,
                0,
                0,
                0.7071068286895752
            ]
        }
    ],
    "materials" : [
        {
            "name" : "RedCup",
            "normalTexture" : {
                "index" : 0
            },
            "occlusionTexture" : {
                "index" : 1
            },
            "pbrMetallicRoughness" : {
                "baseColorTexture" : {
                    "index" : 2
                },
                "metallicRoughnessTexture" : {
                    "index" : 1
                }
            }
        }
    ],
    "meshes" : [
        {
            "name" : "RedCup_RedCup_0",
            "primitives" : [
                {
                    "attributes" : {
                        "POSITION" : 0,
                        "NORMAL" : 1,
                        "TEXCOORD_0" : 2,
                        "TEXCOORD_1" : 3,
                        "TEXCOORD_2" : 4
                    },
                    "indices" : 5,
                    "material" : 0
                }
            ]
        }
    ],
    "textures" : [
        {
            "sampler" : 0,
            "source" : 0
        },
        {
            "sampler" : 0,
            "source" : 1
        },
        {
            "sampler" : 0,
            "source" : 2
        }
    ],
    "images" : [
        {
            "mimeType" : "image/png",
            "name" : "RedCup_normal",
            "uri" : "RedCup_normal.png"
        },
        {
            "mimeType" : "image/png",
            "name" : "RedCup_metallicRoughness",
            "uri" : "RedCup_metallicRoughness.png"
        },
        {
            "mimeType" : "image/png",
            "name" : "RedCup_baseColor",
            "uri" : "RedCup_baseColor.png"
        }
    ],
    "accessors" : [
        {
            "bufferView" : 0,
            "componentType" : 5126,
            "count" : 2043,
            "max" : [
                1.9726368188858032,
                1.9726364612579346,
                2.378577947616577
            ],
            "min" : [
                -1.9726368188858032,
                -1.9726370573043823,
                -2.3785781860351562
            ],
            "type" : "VEC3"
        },
        {
            "bufferView" : 1,
            "componentType" : 5126,
            "count" : 2043,
            "type" : "VEC3"
        },
        {
            "bufferView" : 2,
            "componentType" : 5126,
            "count" : 2043,
            "type" : "VEC2"
        },
        {
            "bufferView" : 3,
            "componentType" : 5126,
            "count" : 2043,
            "type" : "VEC2"
        },
        {
            "bufferView" : 4,
            "componentType" : 5126,
            "count" : 2043,
            "type" : "VEC2"
        },
        {
            "bufferView" : 5,
            "componentType" : 5123,
            "count" : 7224,
            "type" : "SCALAR"
        }
    ],
    "bufferViews" : [
        {
            "buffer" : 0,
            "byteLength" : 24516,
            "byteOffset" : 0
        },
        {
            "buffer" : 0,
            "byteLength" : 24516,
            "byteOffset" : 24516
        },
        {
            "buffer" : 0,
            "byteLength" : 16344,
            "byteOffset" : 49032
        },
        {
            "buffer" : 0,
            "byteLength" : 16344,
            "byteOffset" : 65376
        },
        {
            "buffer" : 0,
            "byteLength" : 16344,
            "byteOffset" : 81720
        },
        {
            "buffer" : 0,
            "byteLength" : 14448,
            "byteOffset" : 98064
        }
    ],
    "samplers" : [
        {
            "magFilter" : 9729,
            "minFilter" : 9987
        }
    ],
    "buffers" : [
        {
            "byteLength" : 112512,
            "uri" : "Red Cup.bin"
        }
    ]
}
