<?xml version="1.0" encoding="UTF-8" standalone="no"?>
<svg
   sodipodi:docname="OpenTabletop_Logo_Proposal-alt1_modified.svg"
   inkscape:version="1.1.2 (1:1.1+202202050950+0a00cf5339)"
   id="svg8"
   version="1.1"
   viewBox="0 0 264.58333 264.58334"
   height="1000"
   width="1000"
   inkscape:export-filename="/home/drwhut/Desktop/tabletop-club/tabletop_club_logo.png"
   inkscape:export-xdpi="196.60799"
   inkscape:export-ydpi="196.60799"
   xmlns:inkscape="http://www.inkscape.org/namespaces/inkscape"
   xmlns:sodipodi="http://sodipodi.sourceforge.net/DTD/sodipodi-0.dtd"
   xmlns="http://www.w3.org/2000/svg"
   xmlns:svg="http://www.w3.org/2000/svg"
   xmlns:rdf="http://www.w3.org/1999/02/22-rdf-syntax-ns#"
   xmlns:cc="http://creativecommons.org/ns#"
   xmlns:dc="http://purl.org/dc/elements/1.1/">
  <defs
     id="defs2">
    <inkscape:path-effect
       effect="powerstroke"
       id="path-effect1047"
       is_visible="true"
       lpeversion="1"
       offset_points="0,0.152964"
       sort_points="true"
       interpolator_type="CubicBezierJohan"
       interpolator_beta="0.2"
       start_linecap_type="zerowidth"
       linejoin_type="extrp_arc"
       miter_limit="4"
       scale_width="1"
       end_linecap_type="zerowidth" />
  </defs>
  <sodipodi:namedview
     inkscape:window-maximized="1"
     inkscape:window-y="0"
     inkscape:window-x="0"
     inkscape:window-height="1009"
     inkscape:window-width="1920"
     inkscape:guide-bbox="true"
     showguides="true"
     units="px"
     showgrid="true"
     inkscape:document-rotation="0"
     inkscape:current-layer="layer1"
     inkscape:document-units="mm"
     inkscape:cy="1478.8254"
     inkscape:cx="424.72345"
     inkscape:zoom="0.58390937"
     inkscape:pageshadow="2"
     inkscape:pageopacity="0.0"
     borderopacity="1.0"
     bordercolor="#666666"
     pagecolor="#ffffff"
     id="base"
     inkscape:pagecheckerboard="1">
    <inkscape:grid
       id="grid833"
       type="xygrid" />
    <sodipodi:guide
       id="guide835"
       orientation="1,0"
       position="0,232.83334" />
    <sodipodi:guide
       id="guide837"
       orientation="0,-1"
       position="31.75,264.58334" />
    <sodipodi:guide
       id="guide839"
       orientation="0,-1"
       position="42.333333,0" />
    <sodipodi:guide
       id="guide841"
       orientation="1,0"
       position="264.58333,211.66667" />
  </sodipodi:namedview>
  <metadata
     id="metadata5">
    <rdf:RDF>
      <cc:Work
         rdf:about="">
        <dc:format>image/svg+xml</dc:format>
        <dc:type
           rdf:resource="http://purl.org/dc/dcmitype/StillImage" />
      </cc:Work>
    </rdf:RDF>
  </metadata>
  <g
     id="layer1"
     inkscape:groupmode="layer"
     inkscape:label="Layer 1"
     style="display:inline;opacity:0.997">
    <rect
       rx="21.166666"
       ry="21.166666"
       y="31.75"
       x="21.166672"
       height="222.25"
       width="222.25"
       id="rect861"
       style="fill:#1c2615;fill-opacity:1;stroke-width:1.30794;stroke-linecap:round;stroke-linejoin:round"
       inkscape:export-filename="/home/traverseda/Desktop/Home/logo1_large-alt1.png"
       inkscape:export-xdpi="209.48572"
       inkscape:export-ydpi="209.48572" />
    <rect
       style="fill:#4e6b3b;fill-opacity:1;stroke-width:1.30794;stroke-linecap:round;stroke-linejoin:round"
       id="rect859"
       width="222.25"
       height="222.25"
       x="21.166672"
       y="21.166666"
       ry="21.166666"
       rx="21.166666"
       inkscape:export-filename="/home/traverseda/Desktop/Home/logo1_large-alt1.png"
       inkscape:export-xdpi="209.48572"
       inkscape:export-ydpi="209.48572" />
    <path
       id="path868"
       style="color:#000000;font-style:normal;font-variant:normal;font-weight:normal;font-stretch:normal;font-size:medium;line-height:normal;font-family:sans-serif;font-variant-ligatures:normal;font-variant-position:normal;font-variant-caps:normal;font-variant-numeric:normal;font-variant-alternates:normal;font-variant-east-asian:normal;font-feature-settings:normal;font-variation-settings:normal;text-indent:0;text-align:start;text-decoration:none;text-decoration-line:none;text-decoration-style:solid;text-decoration-color:#000000;letter-spacing:normal;word-spacing:normal;text-transform:none;writing-mode:lr-tb;direction:ltr;text-orientation:mixed;dominant-baseline:auto;baseline-shift:baseline;text-anchor:start;white-space:normal;shape-padding:0;shape-margin:0;inline-size:0;clip-rule:nonzero;display:inline;overflow:visible;visibility:visible;opacity:1;isolation:auto;mix-blend-mode:normal;color-interpolation:sRGB;color-interpolation-filters:linearRGB;solid-color:#000000;solid-opacity:1;vector-effect:none;fill:#ffffff;fill-opacity:1;fill-rule:nonzero;stroke:none;stroke-width:4.11417;stroke-linecap:round;stroke-linejoin:round;stroke-miterlimit:4;stroke-dasharray:none;stroke-dashoffset:0;stroke-opacity:1;color-rendering:auto;image-rendering:auto;shape-rendering:auto;text-rendering:auto;enable-background:accumulate;stop-color:#000000;stop-opacity:1"
       d="m 217.06445,178.78125 c -37.98615,0 -68.63672,30.6516 -68.63672,68.64453 v 565.98438 c 0,37.99298 30.65057,68.64453 68.63672,68.64453 H 782.9375 c 37.98618,0 68.63086,-30.65155 68.63086,-68.64453 V 247.42578 c 0,-37.99293 -30.64468,-68.64453 -68.63086,-68.64453 h -62.93749 v 4.11328 h 62.93749 c 35.77769,0 64.51758,28.74597 64.51758,64.53125 v 565.98438 c 0,35.78532 -28.73989,64.5332 -64.51758,64.5332 H 217.06445 c -35.77763,0 -64.51757,-28.74788 -64.51757,-64.5332 V 247.42578 c 0,-35.78528 28.73994,-64.53125 64.51757,-64.53125 H 290 v -4.11328 z"
       transform="scale(0.26458333)"
       sodipodi:nodetypes="ssssssssccssssssssccs"
       inkscape:export-filename="/home/traverseda/Desktop/Home/logo1_large-alt1.png"
       inkscape:export-xdpi="209.48572"
       inkscape:export-ydpi="209.48572" />
    <rect
       rx="21.166666"
       ry="21.166666"
       y="296.33334"
       x="21.166672"
       height="222.25"
       width="222.25"
       id="rect1072"
       style="fill:#1c2615;fill-opacity:1;stroke-width:1.30794;stroke-linecap:round;stroke-linejoin:round"
       inkscape:export-xdpi="300"
       inkscape:export-ydpi="300"
       inkscape:export-filename="/home/traverseda/Desktop/Home/logo2_large.png" />
    <rect
       style="fill:#4e6b3b;fill-opacity:1;stroke-width:1.30794;stroke-linecap:round;stroke-linejoin:round"
       id="rect1074"
       width="222.25"
       height="222.25"
       x="21.166672"
       y="285.75"
       ry="21.166666"
       rx="21.166666"
       inkscape:export-xdpi="300"
       inkscape:export-ydpi="300"
       inkscape:export-filename="/home/traverseda/Desktop/Home/logo2_large.png" />
    <path
       id="path1086"
       style="color:#000000;font-style:normal;font-variant:normal;font-weight:normal;font-stretch:normal;font-size:medium;line-height:normal;font-family:sans-serif;font-variant-ligatures:normal;font-variant-position:normal;font-variant-caps:normal;font-variant-numeric:normal;font-variant-alternates:normal;font-variant-east-asian:normal;font-feature-settings:normal;font-variation-settings:normal;text-indent:0;text-align:start;text-decoration:none;text-decoration-line:none;text-decoration-style:solid;text-decoration-color:#000000;letter-spacing:normal;word-spacing:normal;text-transform:none;writing-mode:lr-tb;direction:ltr;text-orientation:mixed;dominant-baseline:auto;baseline-shift:baseline;text-anchor:start;white-space:normal;shape-padding:0;shape-margin:0;inline-size:0;clip-rule:nonzero;display:inline;overflow:visible;visibility:visible;opacity:1;isolation:auto;mix-blend-mode:normal;color-interpolation:sRGB;color-interpolation-filters:linearRGB;solid-color:#000000;solid-opacity:1;vector-effect:none;fill:#ffffff;fill-opacity:1;fill-rule:nonzero;stroke:none;stroke-width:1.08854;stroke-linecap:round;stroke-linejoin:round;stroke-miterlimit:4;stroke-dasharray:none;stroke-dashoffset:0;stroke-opacity:1;color-rendering:auto;image-rendering:auto;shape-rendering:auto;text-rendering:auto;enable-background:accumulate;stop-color:#000000;stop-opacity:1"
       d="m 57.431635,296.9188 c -10.050502,0 -18.160132,8.1099 -18.160132,18.1622 v 164.71712 c 0,10.05231 8.10963,18.1622 18.160132,18.1622 H 207.15221 c 10.05051,0 18.15858,-8.10989 18.15858,-18.1622 V 315.081 c 0,-10.0523 -8.10807,-18.1622 -18.15858,-18.1622 H 190.5 v 1.0883 h 16.65221 c 9.46618,0 17.07028,7.60571 17.07028,17.0739 v 164.71712 c 0,9.4682 -7.6041,17.07441 -17.07028,17.07441 H 57.431635 c -9.466164,0 -17.070274,-7.60621 -17.070274,-17.07441 V 315.081 c 0,-9.46819 7.60411,-17.0739 17.070274,-17.0739 H 190.5 v -1.0883 z"
       sodipodi:nodetypes="ssssssssccssssssssccs"
       inkscape:export-xdpi="300"
       inkscape:export-ydpi="300" />
    <path
       style="fill:#550000;fill-opacity:1;stroke-width:0.20973"
       d="m 133.24942,170.56439 c -1.7789,-5.20545 -4.3243,-9.15081 -11.88238,-18.41774 -6.32377,-7.75353 -7.39347,-9.34757 -8.51084,-12.68271 -0.61565,-1.83763 -0.65712,-2.14185 -0.58529,-4.2951 0.0695,-2.0857 0.14473,-2.46051 0.75173,-3.74886 0.79093,-1.67874 2.73275,-3.72088 4.36767,-4.59328 2.2519,-1.20164 5.68739,-1.56344 8.34324,-0.87869 3.11194,0.80234 5.84959,3.06832 7.47,6.18292 l 0.90953,1.74824 0.57795,-1.19421 c 1.70335,-3.51968 4.81983,-6.1304 8.19864,-6.86815 1.66559,-0.36367 4.96828,-0.15282 6.61015,0.42199 2.57317,0.90085 5.0341,3.23247 5.97387,5.65998 0.67881,1.75344 0.76165,4.50616 0.20219,6.71848 -0.93123,3.68257 -3.16329,7.29175 -8.29097,13.40625 -7.56081,9.01591 -10.17415,12.94374 -12.28186,18.45966 -0.41561,1.08762 -0.84657,2.00771 -0.9577,2.0446 -0.1111,0.0368 -0.51429,-0.84664 -0.89593,-1.96338 z"
       id="path590"
       inkscape:export-filename="/home/traverseda/Desktop/Home/logo1_large-alt1.png"
       inkscape:export-xdpi="209.48572"
       inkscape:export-ydpi="209.48572" />
    <path
       style="fill:#550000;fill-opacity:1;stroke-width:0.20973"
       d="m 134.29366,227.73373 c -0.70603,-1.85071 -7.50986,-12.11218 -12.05502,-18.18128 l -3.57455,-4.77306 3.09098,-4.2264 c 3.15032,-4.30749 10.40181,-15.03437 11.89559,-17.59671 0.45393,-0.77863 0.88844,-1.41568 0.96562,-1.41568 0.0772,0 0.68807,0.9202 1.35755,2.04487 3.30199,5.54706 7.54747,11.84434 11.60794,17.21795 1.33758,1.77014 2.56009,3.39613 2.7167,3.61332 0.25718,0.35668 0.10287,0.62366 -1.59451,2.75889 -4.11593,5.1776 -8.09369,10.9844 -11.82294,17.25929 -1.19768,2.01526 -2.2383,3.6645 -2.31249,3.66498 -0.0742,4.1e-4 -0.19784,-0.1643 -0.27487,-0.36617 z"
       id="path636"
       inkscape:export-filename="/home/traverseda/Desktop/Home/logo1_large-alt1.png"
       inkscape:export-xdpi="209.48572"
       inkscape:export-ydpi="209.48572" />
    <path
       style="fill:#1a1a1a;fill-opacity:1;stroke-width:0.20973"
       d="m 157.36477,198.29106 c 0.0886,-0.14419 0.67486,-0.92283 1.3027,-1.73028 0.62784,-0.80747 1.51502,-2.25916 1.97153,-3.22599 0.76321,-1.61645 2.00079,-5.94915 2.33797,-8.18523 l 0.13945,-0.92469 -0.85802,0.88412 c -3.56341,3.67186 -9.49702,4.58121 -13.05107,2.00014 -1.89311,-1.37486 -3.12306,-3.6254 -3.5232,-6.4467 -0.53961,-3.8047 1.34915,-7.24464 4.90822,-8.93918 2.65286,-1.26309 6.54221,-1.59292 9.20384,-0.78053 l 0.99489,0.30368 -1.14249,-1.26248 c -1.34996,-1.49177 -2.66198,-4.05737 -3.16576,-6.19052 -0.45395,-1.9222 -0.33155,-5.32895 0.24528,-6.82675 0.8201,-2.12949 2.64454,-3.92814 4.84537,-4.77688 1.52024,-0.58626 5.56119,-0.81088 7.37633,-0.41002 5.05639,1.11665 7.60809,5.57921 6.41802,11.22415 -0.56143,2.66308 -1.80642,5.20533 -3.47989,7.10587 -0.63546,0.72169 -0.78071,0.98832 -0.49235,0.90383 1.56557,-0.4587 2.41689,-0.58158 4.0474,-0.58417 2.23431,-0.003 3.42571,0.26094 5.42989,1.20541 3.88544,1.83104 5.93621,5.74213 5.10649,9.73886 -1.05287,5.07166 -5.33749,7.86602 -10.5012,6.84872 -2.29705,-0.45255 -4.54952,-1.54861 -6.01279,-2.92587 l -1.1792,-1.10987 0.15216,1.0329 c 0.201,1.3646 1.17956,4.71279 1.86772,6.39058 0.82241,2.00511 1.76055,3.37599 4.50017,6.57603 0.29854,0.34872 -0.13249,0.36703 -8.64421,0.36703 -7.1129,0 -8.92523,-0.054 -8.79725,-0.26216 z"
       id="path634"
       inkscape:export-filename="/home/traverseda/Desktop/Home/logo1_large-alt1.png"
       inkscape:export-xdpi="209.48572"
       inkscape:export-ydpi="209.48572" />
    <path
       style="fill:#1a1a1a;fill-opacity:1;stroke-width:0.20973"
       d="m 97.823597,197.74845 c 0,-0.0521 0.428601,-0.70794 0.952415,-1.45728 1.454198,-2.08024 2.299498,-4.07866 3.755118,-8.87773 0.13592,-0.44824 0.0782,-0.43765 -1.39149,0.25554 -5.116922,2.41329 -10.66895,1.88174 -14.084394,-1.34845 -4.068967,-3.84825 -3.706682,-9.75547 0.991189,-16.16169 0.465276,-0.63444 2.454347,-2.80535 4.420185,-4.82427 3.974056,-4.0813 7.15259,-7.92803 9.90263,-11.98434 l 1.82885,-2.69754 0.41653,0.68223 c 3.28656,5.38301 5.94207,8.71948 10.72549,13.47579 4.98701,4.95875 6.31023,6.79268 7.56627,10.48653 0.47171,1.38727 0.57024,2.04106 0.56896,3.77515 -0.003,3.1326 -0.86198,5.14508 -3.06543,7.17617 -3.18065,2.93181 -8.38438,3.49221 -13.09273,1.40994 -0.64287,-0.28431 -1.21216,-0.4736 -1.26512,-0.42066 -0.14636,0.14636 0.35594,2.11195 1.04869,4.10378 0.72667,2.08934 1.52204,3.55701 2.62391,4.84183 1.5897,1.85361 2.20489,1.65981 -5.26888,1.65981 -3.64771,0 -6.632193,-0.0426 -6.632193,-0.0948 z"
       id="path632"
       inkscape:export-filename="/home/traverseda/Desktop/Home/logo1_large-alt1.png"
       inkscape:export-xdpi="209.48572"
       inkscape:export-ydpi="209.48572" />
    <path
       style="display:inline;opacity:0.997;fill:#550000;fill-opacity:1;stroke-width:0.340466"
       d="m 129.91453,387.83722 c -2.88782,-8.45031 -7.01987,-14.85504 -19.28929,-29.89859 -10.26571,-12.58676 -12.002205,-15.17446 -13.816089,-20.58859 -0.999415,-2.98314 -1.066738,-3.47699 -0.950132,-6.97248 0.112825,-3.38585 0.234948,-3.9943 1.220322,-6.08575 1.283957,-2.7252 4.436189,-6.04032 7.090289,-7.45654 3.65561,-1.9507 9.23264,-2.53803 13.54397,-1.42643 5.0518,1.30248 9.49594,4.98098 12.12644,10.0371 l 1.4765,2.83802 0.93819,-1.93863 c 2.76515,-5.71371 7.82426,-9.95185 13.30931,-11.14948 2.70379,-0.59036 8.06522,-0.24808 10.73056,0.68504 4.17719,1.46241 8.1721,5.24746 9.69769,9.18818 1.10194,2.84646 1.23641,7.31511 0.32822,10.9065 -1.51168,5.97814 -5.13509,11.83713 -13.45912,21.76315 -12.27385,14.63606 -16.51624,21.01234 -19.93778,29.96665 -0.67468,1.76561 -1.37428,3.25924 -1.55468,3.31913 -0.18035,0.0598 -0.8349,-1.3744 -1.4544,-3.18728 z"
       id="path590-3"
       inkscape:export-filename="/home/traverseda/Desktop/Home/logo1_large-alt1.png"
       inkscape:export-xdpi="209.48572"
       inkscape:export-ydpi="209.48572" />
    <path
       style="display:inline;opacity:0.997;fill:#550000;fill-opacity:1;stroke-width:0.340466"
       d="m 131.60966,480.64357 c -1.14613,-3.00436 -12.19113,-19.66241 -19.56951,-29.51474 l -5.80274,-7.74838 5.0177,-6.86097 c 5.11408,-6.9926 16.88583,-24.40618 19.31073,-28.56578 0.73692,-1.26398 1.44226,-2.29815 1.56757,-2.29815 0.12532,0 1.11697,1.49382 2.20375,3.31956 5.36028,9.00487 12.25223,19.22762 18.84376,27.95091 2.17137,2.87357 4.15593,5.51313 4.4102,5.86571 0.41748,0.57902 0.167,1.01243 -2.58849,4.47867 -6.68158,8.4051 -13.13889,17.83162 -19.19279,28.01802 -1.94421,3.27149 -3.63351,5.9488 -3.75397,5.94958 -0.12044,6.7e-4 -0.32112,-0.26673 -0.44621,-0.59443 z"
       id="path636-6"
       inkscape:export-filename="/home/traverseda/Desktop/Home/logo1_large-alt1.png"
       inkscape:export-xdpi="209.48572"
       inkscape:export-ydpi="209.48572" />
    <path
       style="display:inline;opacity:0.997;fill:#1a1a1a;fill-opacity:1;stroke-width:0.340466"
       d="m 169.06218,432.84756 c 0.14385,-0.23408 1.09552,-1.49809 2.11477,-2.80887 1.01919,-1.31081 2.45939,-3.66743 3.20045,-5.23693 1.23896,-2.62408 3.248,-9.65761 3.79538,-13.28757 l 0.22635,-1.5011 -1.39288,1.43524 c -5.78465,5.96074 -15.417,7.43695 -21.18644,3.24695 -3.07317,-2.2319 -5.06986,-5.88533 -5.71939,-10.46532 -0.87598,-6.17639 2.19012,-11.76064 7.96775,-14.51149 4.30655,-2.05044 10.6203,-2.58588 14.94107,-1.26708 l 1.61503,0.49298 -1.85467,-2.04945 c -2.19142,-2.42168 -4.32129,-6.58658 -5.13912,-10.04944 -0.73689,-3.12042 -0.5382,-8.6508 0.39819,-11.08227 1.3313,-3.45692 4.293,-6.37677 7.86573,-7.75458 2.46786,-0.95171 9.02778,-1.31635 11.97439,-0.66561 8.20831,1.81272 12.35057,9.05706 10.41868,18.22082 -0.9114,4.32313 -2.93246,8.45012 -5.64907,11.53537 -1.03157,1.17156 -1.26739,1.60441 -0.79925,1.46725 2.54144,-0.74464 3.92347,-0.94412 6.57036,-0.94832 3.62703,-0.005 5.56111,0.4236 8.8146,1.95681 6.30745,2.97243 9.63654,9.32154 8.28962,15.80966 -1.70919,8.23312 -8.6646,12.76937 -17.04715,11.11794 -3.7289,-0.73466 -7.38544,-2.51395 -9.76088,-4.74975 l -1.91422,-1.80171 0.247,1.67677 c 0.32627,2.21523 1.91481,7.65055 3.03199,10.3742 1.33503,3.25501 2.85797,5.48045 7.30532,10.67525 0.48467,0.5661 -0.21508,0.59583 -14.0326,0.59583 -11.54673,0 -14.48877,-0.0877 -14.28101,-0.42558 z"
       id="path634-7"
       inkscape:export-filename="/home/traverseda/Desktop/Home/logo1_large-alt1.png"
       inkscape:export-xdpi="209.48572"
       inkscape:export-ydpi="209.48572" />
    <path
       style="display:inline;opacity:0.997;fill:#1a1a1a;fill-opacity:1;stroke-width:0.340466"
       d="m 72.405964,431.9667 c 0,-0.0846 0.695766,-1.14924 1.546094,-2.36568 2.360676,-3.37697 3.732896,-6.62113 6.09588,-14.41174 0.220643,-0.72766 0.126945,-0.71046 -2.258878,0.41483 -8.306557,3.91763 -17.319454,3.05474 -22.86393,-2.18902 -6.605345,-6.24708 -6.017242,-15.83662 1.609055,-26.23622 0.755308,-1.02992 3.984272,-4.55409 7.17552,-7.83151 6.451277,-6.62542 11.611165,-12.87005 16.075445,-19.45489 l 2.968865,-4.37907 0.676174,1.1075 c 5.335242,8.73855 9.646066,14.15484 17.411251,21.87604 8.09568,8.04983 10.24372,11.02696 12.28269,17.0234 0.76575,2.25203 0.92572,3.31337 0.92366,6.12842 -0.005,5.08533 -1.39935,8.35231 -4.97633,11.6495 -5.16328,4.75938 -13.61076,5.66911 -21.254066,2.28883 -1.043606,-0.46152 -1.967762,-0.76881 -2.053734,-0.68287 -0.237596,0.23759 0.577814,3.42844 1.702392,6.6619 1.17964,3.39175 2.470804,5.77431 4.259527,7.86003 2.580641,3.00908 3.579309,2.69446 -8.553245,2.69446 -5.921514,0 -10.76637,-0.0691 -10.76637,-0.15389 z"
       id="path632-5"
       inkscape:export-filename="/home/traverseda/Desktop/Home/logo1_large-alt1.png"
       inkscape:export-xdpi="209.48572"
       inkscape:export-ydpi="209.48572" />
    <path
       d="m 90.658526,58.466095 c 0.832262,0 1.198458,-0.366196 1.198458,-1.198458 V 40.922001 h 4.893703 c 0.832263,0 1.198458,-0.366195 1.198458,-1.198458 v -4.02815 c 0,-0.832263 -0.366195,-1.198458 -1.198458,-1.198458 H 79.173303 c -0.832262,0 -1.198458,0.366195 -1.198458,1.198458 v 4.02815 c 0,0.832263 0.366196,1.198458 1.198458,1.198458 h 4.893704 v 16.345636 c 0,0.832262 0.366195,1.198458 1.198458,1.198458 z"
       id="path19835"
       style="font-size:33.2905px;line-height:1.25;font-family:Bungee;-inkscape-font-specification:Bungee;text-align:center;text-anchor:middle;fill:#ffffff;stroke-width:0.832265"
       inkscape:export-filename="/home/traverseda/Desktop/Home/logo1_large-alt1.png"
       inkscape:export-xdpi="209.48572"
       inkscape:export-ydpi="209.48572" />
    <path
       d="m 108.5355,41.48794 c 0.16645,-0.399486 0.3662,-0.565939 0.63252,-0.565939 h 0.83226 c 0.26633,0 0.46607,0.166453 0.63252,0.565939 l 1.56465,5.060156 h -5.2266 z m -1.89756,15.779697 v -4.66067 h 5.89242 v 4.66067 c 0,0.832262 0.39949,1.198458 1.29833,1.198458 h 5.02687 c 0.83226,0 1.19845,-0.366196 1.19845,-1.198458 v -8.788692 c 0,-1.33162 -0.39948,-2.996145 -1.29833,-5.32648 l -2.89627,-7.556944 c -0.26632,-0.765681 -0.79897,-1.098586 -1.66452,-1.098586 h -8.95515 c -0.89884,0 -1.43149,0.332905 -1.69782,1.098586 l -2.89627,7.556944 c -0.898842,2.330335 -1.298328,3.99486 -1.298328,5.32648 v 8.788692 c 0,0.832262 0.366195,1.198458 1.198458,1.198458 h 4.8937 c 0.83227,0 1.19846,-0.366196 1.19846,-1.198458 z"
       id="path19837"
       style="font-size:33.2905px;line-height:1.25;font-family:Bungee;-inkscape-font-specification:Bungee;text-align:center;text-anchor:middle;fill:#ffffff;stroke-width:0.832265"
       inkscape:export-filename="/home/traverseda/Desktop/Home/logo1_large-alt1.png"
       inkscape:export-xdpi="209.48572"
       inkscape:export-ydpi="209.48572" />
    <path
       d="m 138.13074,58.466095 c 4.42764,0 6.45836,-1.731106 6.45836,-5.459642 v -3.062726 c 0,-3.262469 -1.33162,-4.893704 -4.1946,-5.160028 1.33162,-0.565938 1.96413,-1.731106 1.96413,-3.595374 v -1.597944 c 0,-3.495502 -2.03072,-5.093446 -6.39177,-5.093446 h -10.61967 c -0.83226,0 -1.19846,0.366195 -1.19846,1.198458 v 21.572244 c 0,0.832262 0.3662,1.198458 1.19846,1.198458 z M 131.63909,40.15632 h 2.8297 c 0.86555,0 1.26504,0.432776 1.26504,1.33162 v 0.932134 c 0,0.898843 -0.39949,1.33162 -1.26504,1.33162 h -2.8297 z m 0,8.722111 h 4.32777 c 0.86555,0 1.26504,0.399486 1.26504,1.298329 v 1.29833 c 0,0.898843 -0.39949,1.33162 -1.26504,1.33162 h -4.32777 z"
       id="path19839"
       style="font-size:33.2905px;line-height:1.25;font-family:Bungee;-inkscape-font-specification:Bungee;text-align:center;text-anchor:middle;fill:#ffffff;stroke-width:0.832265"
       inkscape:export-filename="/home/traverseda/Desktop/Home/logo1_large-alt1.png"
       inkscape:export-xdpi="209.48572"
       inkscape:export-ydpi="209.48572" />
    <path
       d="m 166.42767,58.466095 c 0.83227,0 1.19846,-0.366196 1.19846,-1.198458 V 46.781129 c 0,-0.832262 -0.36619,-1.198458 -1.19846,-1.198458 h -4.82712 c -0.83226,0 -1.19846,0.366196 -1.19846,1.198458 v 5.393061 h -4.5608 V 35.695393 c 0,-0.832263 -0.36619,-1.198458 -1.19845,-1.198458 h -5.16003 c -0.83226,0 -1.19846,0.366195 -1.19846,1.198458 v 21.572244 c 0,0.832262 0.3662,1.198458 1.19846,1.198458 z"
       id="path19841"
       style="font-size:33.2905px;line-height:1.25;font-family:Bungee;-inkscape-font-specification:Bungee;text-align:center;text-anchor:middle;fill:#ffffff;stroke-width:0.832265"
       inkscape:export-filename="/home/traverseda/Desktop/Home/logo1_large-alt1.png"
       inkscape:export-xdpi="209.48572"
       inkscape:export-ydpi="209.48572" />
    <path
       d="m 188.0665,58.466095 c 0.83226,0 1.19845,-0.366196 1.19845,-1.198458 v -3.894989 c 0,-0.832262 -0.36619,-1.198458 -1.19845,-1.198458 h -9.18818 v -2.862983 h 6.49164 c 0.83227,0 1.19846,-0.366195 1.19846,-1.198458 v -3.562083 c 0,-0.832263 -0.36619,-1.198458 -1.19846,-1.198458 h -6.49164 v -2.563369 h 9.18818 c 0.83226,0 1.19845,-0.366195 1.19845,-1.198458 v -3.894988 c 0,-0.832263 -0.36619,-1.198458 -1.19845,-1.198458 h -15.4468 c -0.83226,0 -1.19845,0.366195 -1.19845,1.198458 v 21.572244 c 0,0.832262 0.36619,1.198458 1.19845,1.198458 z"
       id="path19843"
       style="font-size:33.2905px;line-height:1.25;font-family:Bungee;-inkscape-font-specification:Bungee;text-align:center;text-anchor:middle;fill:#ffffff;stroke-width:0.832265"
       inkscape:export-filename="/home/traverseda/Desktop/Home/logo1_large-alt1.png"
       inkscape:export-xdpi="209.48572"
       inkscape:export-ydpi="209.48572" />
    <path
       d="m 113.12959,89.495886 c 0.83226,0 1.19846,-0.366195 1.19846,-1.198457 V 71.951793 h 4.8937 c 0.83226,0 1.19846,-0.366196 1.19846,-1.198458 v -4.028151 c 0,-0.832262 -0.3662,-1.198458 -1.19846,-1.198458 h -17.57738 c -0.83227,0 -1.19846,0.366196 -1.19846,1.198458 v 4.028151 c 0,0.832262 0.36619,1.198458 1.19846,1.198458 h 4.8937 v 16.345636 c 0,0.832262 0.36619,1.198457 1.19846,1.198457 z"
       id="path19845"
       style="font-size:33.2905px;line-height:1.25;font-family:Bungee;-inkscape-font-specification:Bungee;text-align:center;text-anchor:middle;fill:#ffffff;stroke-width:0.832265"
       inkscape:export-filename="/home/traverseda/Desktop/Home/logo1_large-alt1.png"
       inkscape:export-xdpi="209.48572"
       inkscape:export-ydpi="209.48572" />
    <path
       d="M 143.79017,83.203982 V 71.851921 c 0,-4.061441 -1.99743,-6.824552 -10.32005,-6.824552 -8.32263,0 -10.35335,2.763111 -10.35335,6.824552 v 11.352061 c 0,4.061441 2.03072,6.791264 10.35335,6.791264 8.32262,0 10.32005,-2.729823 10.32005,-6.791264 z m -13.11646,-1.198458 v -8.955145 c 0,-0.865553 0.39949,-1.531363 2.79641,-1.531363 2.4302,0 2.7964,0.66581 2.7964,1.531363 v 8.955145 c 0,0.898844 -0.3662,1.564654 -2.7964,1.564654 -2.39692,0 -2.79641,-0.66581 -2.79641,-1.564654 z"
       id="path19847"
       style="font-size:33.2905px;line-height:1.25;font-family:Bungee;-inkscape-font-specification:Bungee;text-align:center;text-anchor:middle;fill:#ffffff;stroke-width:0.832265"
       inkscape:export-filename="/home/traverseda/Desktop/Home/logo1_large-alt1.png"
       inkscape:export-xdpi="209.48572"
       inkscape:export-ydpi="209.48572" />
    <path
       d="m 154.37653,89.495886 c 0.83227,0 1.19846,-0.366195 1.19846,-1.198457 v -5.526223 h 3.82841 c 6.05887,0 7.85656,-2.62995 7.85656,-6.491648 v -4.261184 c 0,-3.861698 -1.79769,-6.491648 -7.85656,-6.491648 h -10.18689 c -0.83227,0 -1.19846,0.366196 -1.19846,1.198458 v 21.572245 c 0,0.832262 0.36619,1.198457 1.19846,1.198457 z m 1.13188,-17.743836 h 2.99615 c 1.29832,0 1.56465,0.765681 1.56465,1.631234 v 1.764397 c 0,0.865553 -0.26633,1.631235 -1.56465,1.631235 h -2.99615 z"
       id="path19849"
       style="font-size:33.2905px;line-height:1.25;font-family:Bungee;-inkscape-font-specification:Bungee;text-align:center;text-anchor:middle;fill:#ffffff;stroke-width:0.832265"
       inkscape:export-filename="/home/traverseda/Desktop/Home/logo1_large-alt1.png"
       inkscape:export-xdpi="209.48572"
       inkscape:export-ydpi="209.48572" />
    <path
       d="m 105.70579,117.87985 c 0.83226,0 1.19846,-0.3662 1.19846,-1.19846 v -3.96157 c 0,-0.83226 -0.3662,-1.19846 -1.19846,-1.19846 h -6.691389 c -1.398201,0 -2.030721,-0.49936 -2.030721,-1.59794 v -7.92314 c 0,-1.13189 0.63252,-1.66454 2.030721,-1.66454 h 6.691389 c 0.83226,0 1.19846,-0.366192 1.19846,-1.198462 v -4.028147 c 0,-0.83226 -0.3662,-1.19845 -1.19846,-1.19845 h -8.122881 c -5.592804,0 -8.189463,2.16388 -8.189463,6.824549 v 10.35335 c 0,4.62738 2.596659,6.79127 8.189463,6.79127 z"
       id="path19851"
       style="font-size:33.2905px;line-height:1.25;font-family:Bungee;-inkscape-font-specification:Bungee;text-align:center;text-anchor:middle;fill:#ffffff;stroke-width:0.832265"
       inkscape:export-filename="/home/traverseda/Desktop/Home/logo1_large-alt1.png"
       inkscape:export-xdpi="209.48572"
       inkscape:export-ydpi="209.48572" />
    <path
       d="m 128.80941,117.87985 c 0.83226,0 1.19845,-0.3662 1.19845,-1.19846 v -10.48651 c 0,-0.83226 -0.36619,-1.19846 -1.19845,-1.19846 h -4.82713 c -0.83226,0 -1.19845,0.3662 -1.19845,1.19846 v 5.39306 h -4.5608 V 95.109131 c 0,-0.83226 -0.3662,-1.19845 -1.19846,-1.19845 h -5.16003 c -0.83226,0 -1.19846,0.36619 -1.19846,1.19845 v 21.572259 c 0,0.83226 0.3662,1.19846 1.19846,1.19846 z"
       id="path19853"
       style="font-size:33.2905px;line-height:1.25;font-family:Bungee;-inkscape-font-specification:Bungee;text-align:center;text-anchor:middle;fill:#ffffff;stroke-width:0.832265"
       inkscape:export-filename="/home/traverseda/Desktop/Home/logo1_large-alt1.png"
       inkscape:export-xdpi="209.48572"
       inkscape:export-ydpi="209.48572" />
    <path
       d="M 154.21005,111.58794 V 95.109131 c 0,-0.83226 -0.3662,-1.19845 -1.19846,-1.19845 h -5.06015 c -0.86556,0 -1.19846,0.36619 -1.19846,1.19845 v 15.180479 c 0,0.89885 -0.39949,1.56466 -2.76311,1.56466 -2.33034,0 -2.72983,-0.66581 -2.72983,-1.56466 V 95.109131 c 0,-0.83226 -0.36619,-1.19845 -1.19845,-1.19845 h -5.22661 c -0.83226,0 -1.19846,0.36619 -1.19846,1.19845 v 16.478809 c 0,4.06144 2.03072,6.79126 10.28676,6.79126 8.25605,0 10.28677,-2.72982 10.28677,-6.79126 z"
       id="path19855"
       style="font-size:33.2905px;line-height:1.25;font-family:Bungee;-inkscape-font-specification:Bungee;text-align:center;text-anchor:middle;fill:#ffffff;stroke-width:0.832265"
       inkscape:export-filename="/home/traverseda/Desktop/Home/logo1_large-alt1.png"
       inkscape:export-xdpi="209.48572"
       inkscape:export-ydpi="209.48572" />
    <path
       d="m 172.6197,117.87985 c 4.42764,0 6.45836,-1.73111 6.45836,-5.45965 v -3.06272 c 0,-3.26247 -1.33162,-4.89371 -4.1946,-5.16003 1.33162,-0.56594 1.96414,-1.73111 1.96414,-3.59538 v -1.597952 c 0,-3.495497 -2.03072,-5.093437 -6.39178,-5.093437 h -10.61967 c -0.83226,0 -1.19846,0.36619 -1.19846,1.19845 v 21.572259 c 0,0.83226 0.3662,1.19846 1.19846,1.19846 z m -6.49164,-18.309792 h 2.82969 c 0.86555,0 1.26504,0.432782 1.26504,1.331622 v 0.93215 c 0,0.89884 -0.39949,1.33162 -1.26504,1.33162 h -2.82969 z m 0,8.722122 h 4.32776 c 0.86555,0 1.26504,0.39949 1.26504,1.29833 v 1.29833 c 0,0.89884 -0.39949,1.33162 -1.26504,1.33162 h -4.32776 z"
       id="path19857"
       style="font-size:33.2905px;line-height:1.25;font-family:Bungee;-inkscape-font-specification:Bungee;text-align:center;text-anchor:middle;fill:#ffffff;stroke-width:0.832265"
       inkscape:export-filename="/home/traverseda/Desktop/Home/logo1_large-alt1.png"
       inkscape:export-xdpi="209.48572"
       inkscape:export-ydpi="209.48572" />
  </g>
  <g
     inkscape:groupmode="layer"
     id="layer2"
     inkscape:label="Layer 2"
     style="display:inline"
     sodipodi:insensitive="true">
    <path
       id="rect161"
       style="display:inline;opacity:0.997;fill:#ffffff;fill-opacity:0.0823529;stroke-width:4.9434;stroke-linecap:round;stroke-linejoin:round"
       d="M 896.61914,103.38086 103.38086,896.61914 C 117.84086,911.07914 137.84,920 160,920 h 680 c 44.32,0 80,-35.68 80,-80 V 160 c 0,-22.16 -8.92086,-42.15914 -23.38086,-56.61914 z"
       transform="scale(0.26458333)" />
    <path
       id="rect1090"
       style="display:inline;opacity:0.997;fill:#ffffff;fill-opacity:0.0823529;stroke-width:4.9434;stroke-linecap:round;stroke-linejoin:round"
       d="M 896.61914,1103.3809 103.38086,1896.6191 C 117.84086,1911.0791 137.84,1920 160,1920 h 680 c 44.32,0 80,-35.68 80,-80 v -680 c 0,-22.16 -8.92086,-42.1591 -23.38086,-56.6191 z"
       transform="scale(0.26458333)" />
  </g>
</svg>
