# Blender v2.82 (sub 7) OBJ File: ''
# www.blender.org
mtllib Picnic Bench.mtl
o Base
v 61.099442 -41.555576 57.096710
v 68.494804 -41.555576 57.096710
v 68.494766 -41.555561 -57.236183
v 61.099403 -41.555561 -57.236183
v 61.099403 -46.497662 -57.236191
v 68.494766 -46.497662 -57.236191
v 68.494804 -46.497677 57.096703
v 61.099442 -46.497677 57.096703
v 61.099442 -34.619980 68.934113
v 68.494804 -34.619980 68.934113
v 68.494766 -34.619965 -68.357285
v 61.099400 -34.619965 -68.357285
v 59.300816 -10.833440 24.694876
v 66.696182 -10.833440 24.694874
v 66.696167 -10.833437 -24.834347
v 59.300797 -10.833437 -24.834345
v 59.300797 -15.775535 -24.834345
v 66.696167 -15.775535 -24.834347
v 66.696182 -15.775542 24.694874
v 59.300816 -15.775542 24.694876
v 59.300819 -3.897844 36.084663
v 66.696182 -3.897844 36.084663
v 66.696159 -3.897839 -36.224125
v 59.300797 -3.897839 -36.224125
v 64.080246 -5.865104 9.390621
v 63.700497 -5.760488 20.314762
v 62.309837 -76.917366 54.785934
v 62.674179 -77.075890 42.957790
v 54.664776 -77.054344 42.679157
v 54.300438 -76.895813 54.507301
v 55.691093 -5.738943 20.036127
v 56.070847 -5.843556 9.111989
v 55.355873 -5.865102 -9.236605
v 55.368500 -5.760484 -20.167336
v 55.600586 -76.917366 -54.665783
v 55.633724 -77.075890 -42.832077
v 63.647964 -77.054344 -42.822613
v 63.614826 -76.895813 -54.656322
v 63.382740 -5.738939 -20.157873
v 63.370113 -5.843554 -9.227142
v 21.118114 -2.732959 2.131436
v 9.729019 -2.694160 2.131441
v 61.949299 -40.680481 2.131417
v 66.470459 -34.223598 2.131417
v 66.470459 -34.223598 -1.443595
v 61.949299 -40.680481 -1.443593
v 9.729019 -2.694160 -1.443569
v 21.118114 -2.732959 -1.443574
v 30.565334 -8.358621 18.282887
v 36.045906 -8.358621 18.282885
v 36.045895 -8.358617 -18.422331
v 30.565319 -8.358617 -18.422329
v 30.565319 -12.021119 -18.422329
v 36.045895 -12.021119 -18.422331
v 36.045906 -12.021123 18.282885
v 30.565334 -12.021123 18.282887
v 30.565334 -3.218774 26.723656
v 36.045910 -3.218774 26.723654
v 36.045891 -3.218770 -26.863091
v 30.565319 -3.218770 -26.863089
v -61.345810 -41.555561 -56.403893
v -68.741180 -41.555561 -56.403893
v -68.741150 -41.555576 57.928993
v -61.345779 -41.555576 57.928993
v -61.345779 -46.497677 57.928986
v -68.741150 -46.497677 57.928986
v -68.741180 -46.497662 -56.403900
v -61.345810 -46.497662 -56.403900
v -61.345818 -34.619965 -68.241302
v -68.741180 -34.619965 -68.241302
v -68.741150 -34.619980 69.050095
v -61.345772 -34.619980 69.050095
v -59.547195 -10.833437 -24.002062
v -66.942566 -10.833437 -24.002058
v -66.942535 -10.833440 25.527161
v -59.547180 -10.833440 25.527157
v -59.547180 -15.775544 25.527157
v -66.942535 -15.775544 25.527161
v -66.942566 -15.775537 -24.002058
v -59.547195 -15.775537 -24.002062
v -59.547203 -3.897847 -35.391850
v -66.942566 -3.897847 -35.391850
v -66.942535 -3.897853 36.916935
v -59.547173 -3.897853 36.916935
v -64.326614 -5.865102 -8.697807
v -63.946854 -5.760488 -19.621946
v -62.556206 -76.917358 -54.093132
v -62.920555 -77.075890 -42.264988
v -54.911148 -77.054344 -41.986359
v -54.546799 -76.895805 -53.814499
v -55.937469 -5.738939 -19.343311
v -56.317215 -5.843554 -8.419175
v -55.602249 -5.865104 9.929417
v -55.614876 -5.760492 20.860147
v -55.846962 -76.917358 55.358578
v -55.880096 -77.075890 43.524872
v -63.894348 -77.054344 43.515408
v -63.861206 -76.895805 55.349117
v -63.629120 -5.738943 20.850685
v -63.616486 -5.843556 9.919953
v -21.364494 -2.732963 -1.438622
v -9.975395 -2.694164 -1.438626
v -62.195671 -40.680481 -1.438612
v -66.716827 -34.223598 -1.438610
v -66.716827 -34.223598 2.136402
v -62.195671 -40.680481 2.136398
v -9.975395 -2.694164 2.136384
v -21.364494 -2.732963 2.136388
v -30.811714 -8.358621 -17.590069
v -36.292282 -8.358621 -17.590067
v -36.292267 -8.358624 19.115143
v -30.811699 -8.358624 19.115141
v -30.811699 -12.021127 19.115141
v -36.292267 -12.021127 19.115143
v -36.292282 -12.021123 -17.590067
v -30.811714 -12.021123 -17.590069
v -30.811714 -3.218774 -26.030838
v -36.292282 -3.218774 -26.030836
v -36.292267 -3.218778 27.555904
v -30.811699 -3.218778 27.555902
vt 0.625000 0.500000
vt 0.875000 0.500000
vt 0.875000 0.750000
vt 0.625000 0.750000
vt 0.375000 0.750000
vt 0.625000 1.000000
vt 0.375000 1.000000
vt 0.375000 0.000000
vt 0.625000 0.000000
vt 0.625000 0.250000
vt 0.375000 0.250000
vt 0.125000 0.500000
vt 0.375000 0.500000
vt 0.125000 0.750000
vt 0.625000 0.500000
vt 0.875000 0.500000
vt 0.875000 0.750000
vt 0.625000 0.750000
vt 0.625000 1.000000
vt 0.625000 0.000000
vt 0.625000 0.250000
vt 0.625000 0.500000
vt 0.875000 0.500000
vt 0.875000 0.750000
vt 0.625000 0.750000
vt 0.375000 0.750000
vt 0.625000 1.000000
vt 0.375000 1.000000
vt 0.375000 0.000000
vt 0.625000 0.000000
vt 0.625000 0.250000
vt 0.375000 0.250000
vt 0.125000 0.500000
vt 0.375000 0.500000
vt 0.125000 0.750000
vt 0.625000 0.500000
vt 0.875000 0.500000
vt 0.875000 0.750000
vt 0.625000 0.750000
vt 0.625000 1.000000
vt 0.625000 0.000000
vt 0.625000 0.250000
vt 0.625000 0.500000
vt 0.875000 0.500000
vt 0.875000 0.750000
vt 0.625000 0.750000
vt 0.375000 0.750000
vt 0.625000 1.000000
vt 0.375000 1.000000
vt 0.375000 0.000000
vt 0.625000 0.000000
vt 0.625000 0.250000
vt 0.375000 0.250000
vt 0.125000 0.500000
vt 0.375000 0.500000
vt 0.125000 0.750000
vt 0.625000 0.500000
vt 0.875000 0.500000
vt 0.875000 0.750000
vt 0.625000 0.750000
vt 0.375000 0.750000
vt 0.625000 1.000000
vt 0.375000 1.000000
vt 0.375000 0.000000
vt 0.625000 0.000000
vt 0.625000 0.250000
vt 0.375000 0.250000
vt 0.125000 0.500000
vt 0.375000 0.500000
vt 0.125000 0.750000
vt 0.625000 0.500000
vt 0.875000 0.500000
vt 0.875000 0.750000
vt 0.625000 0.750000
vt 0.375000 0.750000
vt 0.625000 1.000000
vt 0.375000 1.000000
vt 0.375000 0.000000
vt 0.625000 0.000000
vt 0.625000 0.250000
vt 0.375000 0.250000
vt 0.125000 0.500000
vt 0.375000 0.500000
vt 0.125000 0.750000
vt 0.625000 0.500000
vt 0.875000 0.500000
vt 0.875000 0.750000
vt 0.625000 0.750000
vt 0.375000 0.750000
vt 0.625000 1.000000
vt 0.375000 1.000000
vt 0.375000 0.000000
vt 0.625000 0.000000
vt 0.625000 0.250000
vt 0.375000 0.250000
vt 0.125000 0.500000
vt 0.375000 0.500000
vt 0.125000 0.750000
vt 0.625000 0.500000
vt 0.875000 0.500000
vt 0.875000 0.750000
vt 0.625000 0.750000
vt 0.625000 1.000000
vt 0.625000 0.000000
vt 0.625000 0.250000
vt 0.625000 0.500000
vt 0.875000 0.500000
vt 0.875000 0.750000
vt 0.625000 0.750000
vt 0.375000 0.750000
vt 0.625000 1.000000
vt 0.375000 1.000000
vt 0.375000 0.000000
vt 0.625000 0.000000
vt 0.625000 0.250000
vt 0.375000 0.250000
vt 0.125000 0.500000
vt 0.375000 0.500000
vt 0.125000 0.750000
vt 0.625000 0.500000
vt 0.875000 0.500000
vt 0.875000 0.750000
vt 0.625000 0.750000
vt 0.625000 1.000000
vt 0.625000 0.000000
vt 0.625000 0.250000
vt 0.625000 0.500000
vt 0.875000 0.500000
vt 0.875000 0.750000
vt 0.625000 0.750000
vt 0.375000 0.750000
vt 0.625000 1.000000
vt 0.375000 1.000000
vt 0.375000 0.000000
vt 0.625000 0.000000
vt 0.625000 0.250000
vt 0.375000 0.250000
vt 0.125000 0.500000
vt 0.375000 0.500000
vt 0.125000 0.750000
vt 0.625000 0.500000
vt 0.875000 0.500000
vt 0.875000 0.750000
vt 0.625000 0.750000
vt 0.625000 1.000000
vt 0.625000 0.000000
vt 0.625000 0.250000
vt 0.625000 0.500000
vt 0.875000 0.500000
vt 0.875000 0.750000
vt 0.625000 0.750000
vt 0.375000 0.750000
vt 0.625000 1.000000
vt 0.375000 1.000000
vt 0.375000 0.000000
vt 0.625000 0.000000
vt 0.625000 0.250000
vt 0.375000 0.250000
vt 0.125000 0.500000
vt 0.375000 0.500000
vt 0.125000 0.750000
vt 0.625000 0.500000
vt 0.875000 0.500000
vt 0.875000 0.750000
vt 0.625000 0.750000
vt 0.375000 0.750000
vt 0.625000 1.000000
vt 0.375000 1.000000
vt 0.375000 0.000000
vt 0.625000 0.000000
vt 0.625000 0.250000
vt 0.375000 0.250000
vt 0.125000 0.500000
vt 0.375000 0.500000
vt 0.125000 0.750000
vt 0.625000 0.500000
vt 0.875000 0.500000
vt 0.875000 0.750000
vt 0.625000 0.750000
vt 0.375000 0.750000
vt 0.625000 1.000000
vt 0.375000 1.000000
vt 0.375000 0.000000
vt 0.625000 0.000000
vt 0.625000 0.250000
vt 0.375000 0.250000
vt 0.125000 0.500000
vt 0.375000 0.500000
vt 0.125000 0.750000
vt 0.625000 0.500000
vt 0.875000 0.500000
vt 0.875000 0.750000
vt 0.625000 0.750000
vt 0.375000 0.750000
vt 0.625000 1.000000
vt 0.375000 1.000000
vt 0.375000 0.000000
vt 0.625000 0.000000
vt 0.625000 0.250000
vt 0.375000 0.250000
vt 0.125000 0.500000
vt 0.375000 0.500000
vt 0.125000 0.750000
vt 0.625000 0.500000
vt 0.875000 0.500000
vt 0.875000 0.750000
vt 0.625000 0.750000
vt 0.625000 1.000000
vt 0.625000 0.000000
vt 0.625000 0.250000
vn 0.0000 1.0000 0.0000
vn 0.0000 0.0000 -1.0000
vn 1.0000 -0.0000 -0.0000
vn 0.0000 -1.0000 -0.0000
vn -1.0000 0.0000 0.0000
vn 0.0000 -0.0000 1.0000
vn 0.0000 -0.6835 -0.7300
vn 0.0000 -0.7059 0.7083
vn 0.0000 -0.6921 -0.7218
vn 0.0000 -0.6921 0.7218
vn 0.9995 -0.0040 0.0327
vn -0.0032 -0.9999 0.0133
vn -0.0301 0.4363 0.8993
vn -0.9995 0.0040 -0.0327
vn 0.0303 -0.4267 -0.9039
vn 0.0030 1.0000 -0.0095
vn -1.0000 -0.0040 0.0009
vn 0.0027 -0.9999 -0.0134
vn -0.0001 0.4363 -0.8998
vn 1.0000 0.0040 -0.0009
vn 0.0001 -0.4267 0.9044
vn -0.0027 1.0000 0.0096
vn 0.8192 -0.5736 0.0000
vn -0.5883 -0.8087 0.0000
vn 0.5703 0.8214 0.0000
vn 0.0034 1.0000 0.0000
vn 0.0000 -0.6835 0.7300
vn 0.0000 -0.7059 -0.7083
vn -0.9995 -0.0040 -0.0327
vn 0.0032 -0.9999 -0.0133
vn 0.0301 0.4363 -0.8993
vn 0.9995 0.0040 0.0327
vn -0.0303 -0.4267 0.9039
vn -0.0030 1.0000 0.0095
vn 1.0000 -0.0040 -0.0009
vn -0.0027 -0.9999 0.0134
vn 0.0001 0.4363 0.8998
vn -1.0000 0.0040 0.0009
vn -0.0001 -0.4267 -0.9044
vn 0.0027 1.0000 -0.0096
vn -0.8192 -0.5736 0.0000
vn 0.5883 -0.8087 0.0000
vn -0.5703 0.8214 0.0000
vn -0.0034 1.0000 0.0000
usemtl Bench
s 1
f 1/1/1 2/2/1 3/3/1 4/4/1
f 5/5/2 4/4/2 3/6/2 6/7/2
f 6/8/3 3/9/3 2/10/3 7/11/3
f 7/12/4 8/13/4 5/5/4 6/14/4
f 8/13/5 1/1/5 4/4/5 5/5/5
f 7/11/6 2/10/6 1/1/6 8/13/6
f 9/15/1 10/16/1 11/17/1 12/18/1
f 5/5/7 12/18/7 11/19/7 6/7/7
f 6/8/3 11/20/3 10/21/3 7/11/3
f 8/13/5 9/15/5 12/18/5 5/5/5
f 7/11/8 10/21/8 9/15/8 8/13/8
f 13/22/1 14/23/1 15/24/1 16/25/1
f 17/26/2 16/25/2 15/27/2 18/28/2
f 18/29/3 15/30/3 14/31/3 19/32/3
f 19/33/4 20/34/4 17/26/4 18/35/4
f 20/34/5 13/22/5 16/25/5 17/26/5
f 19/32/6 14/31/6 13/22/6 20/34/6
f 21/36/1 22/37/1 23/38/1 24/39/1
f 17/26/9 24/39/9 23/40/9 18/28/9
f 18/29/3 23/41/3 22/42/3 19/32/3
f 20/34/5 21/36/5 24/39/5 17/26/5
f 19/32/10 22/42/10 21/36/10 20/34/10
f 25/43/11 26/44/11 27/45/11 28/46/11
f 29/47/12 28/46/12 27/48/12 30/49/12
f 30/50/13 27/51/13 26/52/13 31/53/13
f 31/54/14 32/55/14 29/47/14 30/56/14
f 32/55/15 25/43/15 28/46/15 29/47/15
f 31/53/16 26/52/16 25/43/16 32/55/16
f 33/57/17 34/58/17 35/59/17 36/60/17
f 37/61/18 36/60/18 35/62/18 38/63/18
f 38/64/19 35/65/19 34/66/19 39/67/19
f 39/68/20 40/69/20 37/61/20 38/70/20
f 40/69/21 33/57/21 36/60/21 37/61/21
f 39/67/22 34/66/22 33/57/22 40/69/22
f 41/71/6 42/72/6 43/73/6 44/74/6
f 45/75/23 44/74/23 43/76/23 46/77/23
f 46/78/24 43/79/24 42/80/24 47/81/24
f 47/82/2 48/83/2 45/75/2 46/84/2
f 48/83/25 41/71/25 44/74/25 45/75/25
f 47/81/26 42/80/26 41/71/26 48/83/26
f 49/85/1 50/86/1 51/87/1 52/88/1
f 53/89/2 52/88/2 51/90/2 54/91/2
f 54/92/3 51/93/3 50/94/3 55/95/3
f 55/96/4 56/97/4 53/89/4 54/98/4
f 56/97/5 49/85/5 52/88/5 53/89/5
f 55/95/6 50/94/6 49/85/6 56/97/6
f 57/99/1 58/100/1 59/101/1 60/102/1
f 53/89/9 60/102/9 59/103/9 54/91/9
f 54/92/3 59/104/3 58/105/3 55/95/3
f 56/97/5 57/99/5 60/102/5 53/89/5
f 55/95/10 58/105/10 57/99/10 56/97/10
f 61/106/1 62/107/1 63/108/1 64/109/1
f 65/110/6 64/109/6 63/111/6 66/112/6
f 66/113/5 63/114/5 62/115/5 67/116/5
f 67/117/4 68/118/4 65/110/4 66/119/4
f 68/118/3 61/106/3 64/109/3 65/110/3
f 67/116/2 62/115/2 61/106/2 68/118/2
f 69/120/1 70/121/1 71/122/1 72/123/1
f 65/110/27 72/123/27 71/124/27 66/112/27
f 66/113/5 71/125/5 70/126/5 67/116/5
f 68/118/3 69/120/3 72/123/3 65/110/3
f 67/116/28 70/126/28 69/120/28 68/118/28
f 73/127/1 74/128/1 75/129/1 76/130/1
f 77/131/6 76/130/6 75/132/6 78/133/6
f 78/134/5 75/135/5 74/136/5 79/137/5
f 79/138/4 80/139/4 77/131/4 78/140/4
f 80/139/3 73/127/3 76/130/3 77/131/3
f 79/137/2 74/136/2 73/127/2 80/139/2
f 81/141/1 82/142/1 83/143/1 84/144/1
f 77/131/10 84/144/10 83/145/10 78/133/10
f 78/134/5 83/146/5 82/147/5 79/137/5
f 80/139/3 81/141/3 84/144/3 77/131/3
f 79/137/9 82/147/9 81/141/9 80/139/9
f 85/148/29 86/149/29 87/150/29 88/151/29
f 89/152/30 88/151/30 87/153/30 90/154/30
f 90/155/31 87/156/31 86/157/31 91/158/31
f 91/159/32 92/160/32 89/152/32 90/161/32
f 92/160/33 85/148/33 88/151/33 89/152/33
f 91/158/34 86/157/34 85/148/34 92/160/34
f 93/162/35 94/163/35 95/164/35 96/165/35
f 97/166/36 96/165/36 95/167/36 98/168/36
f 98/169/37 95/170/37 94/171/37 99/172/37
f 99/173/38 100/174/38 97/166/38 98/175/38
f 100/174/39 93/162/39 96/165/39 97/166/39
f 99/172/40 94/171/40 93/162/40 100/174/40
f 101/176/2 102/177/2 103/178/2 104/179/2
f 105/180/41 104/179/41 103/181/41 106/182/41
f 106/183/42 103/184/42 102/185/42 107/186/42
f 107/187/6 108/188/6 105/180/6 106/189/6
f 108/188/43 101/176/43 104/179/43 105/180/43
f 107/186/44 102/185/44 101/176/44 108/188/44
f 109/190/1 110/191/1 111/192/1 112/193/1
f 113/194/6 112/193/6 111/195/6 114/196/6
f 114/197/5 111/198/5 110/199/5 115/200/5
f 115/201/4 116/202/4 113/194/4 114/203/4
f 116/202/3 109/190/3 112/193/3 113/194/3
f 115/200/2 110/199/2 109/190/2 116/202/2
f 117/204/1 118/205/1 119/206/1 120/207/1
f 113/194/10 120/207/10 119/208/10 114/196/10
f 114/197/5 119/209/5 118/210/5 115/200/5
f 116/202/3 117/204/3 120/207/3 113/194/3
f 115/200/9 118/210/9 117/204/9 116/202/9
o Top
v -73.702324 -0.000000 -37.133202
v -73.702324 -0.000002 -25.959503
v 73.525307 -0.000002 -25.959511
v 73.525307 -0.000000 -37.133209
v 73.525307 -4.719602 -37.133209
v 73.525307 -4.719602 -25.959511
v -73.702324 -4.719602 -25.959503
v -73.702324 -4.719602 -37.133202
v -73.702324 -0.000006 26.566811
v -73.702324 -0.000007 37.740501
v 73.525307 -0.000007 37.740501
v 73.525307 -0.000006 26.566803
v 73.525307 -4.719606 26.566803
v 73.525307 -4.719607 37.740501
v -73.702324 -4.719607 37.740501
v -73.702324 -4.719606 26.566811
v -73.702324 -0.000005 13.692093
v -73.702324 -0.000006 24.865791
v 73.525307 -0.000006 24.865784
v 73.525307 -0.000005 13.692085
v 73.525307 -4.719605 13.692085
v 73.525307 -4.719606 24.865784
v -73.702324 -4.719606 24.865791
v -73.702324 -4.719605 13.692093
v -73.702324 -0.000004 1.037495
v -73.702324 -0.000005 12.211189
v 73.525307 -0.000005 12.211182
v 73.525307 -0.000004 1.037487
v 73.525307 -4.719604 1.037487
v 73.525307 -4.719605 12.211182
v -73.702324 -4.719605 12.211189
v -73.702324 -4.719604 1.037495
v -73.702324 -0.000003 -11.498442
v -73.702324 -0.000004 -0.324743
v 73.525307 -0.000004 -0.324751
v 73.525307 -0.000003 -11.498449
v 73.525307 -4.719604 -11.498449
v 73.525307 -4.719604 -0.324751
v -73.702324 -4.719604 -0.324743
v -73.702324 -4.719604 -11.498442
v -73.702324 -0.000002 -24.362612
v -73.702324 -0.000002 -13.188915
v 73.525307 -0.000002 -13.188923
v 73.525307 -0.000002 -24.362619
v 73.525307 -4.719602 -24.362619
v 73.525307 -4.719604 -13.188923
v -73.702324 -4.719604 -13.188915
v -73.702324 -4.719602 -24.362612
vt 0.625000 0.500000
vt 0.875000 0.500000
vt 0.875000 0.750000
vt 0.625000 0.750000
vt 0.375000 0.750000
vt 0.625000 1.000000
vt 0.375000 1.000000
vt 0.375000 0.000000
vt 0.625000 0.000000
vt 0.625000 0.250000
vt 0.375000 0.250000
vt 0.125000 0.500000
vt 0.375000 0.500000
vt 0.125000 0.750000
vt 0.625000 0.500000
vt 0.875000 0.500000
vt 0.875000 0.750000
vt 0.625000 0.750000
vt 0.375000 0.750000
vt 0.625000 1.000000
vt 0.375000 1.000000
vt 0.375000 0.000000
vt 0.625000 0.000000
vt 0.625000 0.250000
vt 0.375000 0.250000
vt 0.125000 0.500000
vt 0.375000 0.500000
vt 0.125000 0.750000
vt 0.625000 0.500000
vt 0.875000 0.500000
vt 0.875000 0.750000
vt 0.625000 0.750000
vt 0.375000 0.750000
vt 0.625000 1.000000
vt 0.375000 1.000000
vt 0.375000 0.000000
vt 0.625000 0.000000
vt 0.625000 0.250000
vt 0.375000 0.250000
vt 0.125000 0.500000
vt 0.375000 0.500000
vt 0.125000 0.750000
vt 0.625000 0.500000
vt 0.875000 0.500000
vt 0.875000 0.750000
vt 0.625000 0.750000
vt 0.375000 0.750000
vt 0.625000 1.000000
vt 0.375000 1.000000
vt 0.375000 0.000000
vt 0.625000 0.000000
vt 0.625000 0.250000
vt 0.375000 0.250000
vt 0.125000 0.500000
vt 0.375000 0.500000
vt 0.125000 0.750000
vt 0.625000 0.500000
vt 0.875000 0.500000
vt 0.875000 0.750000
vt 0.625000 0.750000
vt 0.375000 0.750000
vt 0.625000 1.000000
vt 0.375000 1.000000
vt 0.375000 0.000000
vt 0.625000 0.000000
vt 0.625000 0.250000
vt 0.375000 0.250000
vt 0.125000 0.500000
vt 0.375000 0.500000
vt 0.125000 0.750000
vt 0.625000 0.500000
vt 0.875000 0.500000
vt 0.875000 0.750000
vt 0.625000 0.750000
vt 0.375000 0.750000
vt 0.625000 1.000000
vt 0.375000 1.000000
vt 0.375000 0.000000
vt 0.625000 0.000000
vt 0.625000 0.250000
vt 0.375000 0.250000
vt 0.125000 0.500000
vt 0.375000 0.500000
vt 0.125000 0.750000
vn 0.0000 1.0000 0.0000
vn 1.0000 0.0000 0.0000
vn 0.0000 0.0000 1.0000
vn -0.0000 -1.0000 -0.0000
vn -0.0000 0.0000 -1.0000
vn -1.0000 0.0000 0.0000
usemtl Bench
s 1
f 121/211/45 122/212/45 123/213/45 124/214/45
f 125/215/46 124/214/46 123/216/46 126/217/46
f 126/218/47 123/219/47 122/220/47 127/221/47
f 127/222/48 128/223/48 125/215/48 126/224/48
f 128/223/49 121/211/49 124/214/49 125/215/49
f 127/221/50 122/220/50 121/211/50 128/223/50
f 129/225/45 130/226/45 131/227/45 132/228/45
f 133/229/46 132/228/46 131/230/46 134/231/46
f 134/232/47 131/233/47 130/234/47 135/235/47
f 135/236/48 136/237/48 133/229/48 134/238/48
f 136/237/49 129/225/49 132/228/49 133/229/49
f 135/235/50 130/234/50 129/225/50 136/237/50
f 137/239/45 138/240/45 139/241/45 140/242/45
f 141/243/46 140/242/46 139/244/46 142/245/46
f 142/246/47 139/247/47 138/248/47 143/249/47
f 143/250/48 144/251/48 141/243/48 142/252/48
f 144/251/49 137/239/49 140/242/49 141/243/49
f 143/249/50 138/248/50 137/239/50 144/251/50
f 145/253/45 146/254/45 147/255/45 148/256/45
f 149/257/46 148/256/46 147/258/46 150/259/46
f 150/260/47 147/261/47 146/262/47 151/263/47
f 151/264/48 152/265/48 149/257/48 150/266/48
f 152/265/49 145/253/49 148/256/49 149/257/49
f 151/263/50 146/262/50 145/253/50 152/265/50
f 153/267/45 154/268/45 155/269/45 156/270/45
f 157/271/46 156/270/46 155/272/46 158/273/46
f 158/274/47 155/275/47 154/276/47 159/277/47
f 159/278/48 160/279/48 157/271/48 158/280/48
f 160/279/49 153/267/49 156/270/49 157/271/49
f 159/277/50 154/276/50 153/267/50 160/279/50
f 161/281/45 162/282/45 163/283/45 164/284/45
f 165/285/46 164/284/46 163/286/46 166/287/46
f 166/288/47 163/289/47 162/290/47 167/291/47
f 167/292/48 168/293/48 165/285/48 166/294/48
f 168/293/49 161/281/49 164/284/49 165/285/49
f 167/291/50 162/290/50 161/281/50 168/293/50
o FrontSeat_Seat
v -73.702316 -30.914938 38.767487
v -73.702316 -30.914938 49.941185
v 73.525314 -30.914938 49.941177
v 73.525314 -30.914938 38.767479
v 73.525314 -35.634533 38.767479
v 73.525314 -35.634541 49.941177
v -73.702316 -35.634541 49.941185
v -73.702316 -35.634533 38.767487
v -73.702316 -30.914938 51.073521
v -73.702316 -30.914938 62.247215
v 73.525314 -30.914938 62.247208
v 73.525314 -30.914938 51.073513
v 73.525314 -35.634541 51.073513
v 73.525314 -35.634541 62.247208
v -73.702316 -35.634541 62.247215
v -73.702316 -35.634541 51.073521
v -73.702316 -30.914938 63.332100
v -73.702316 -30.914942 74.505798
v 73.525314 -30.914942 74.505791
v 73.525314 -30.914938 63.332092
v 73.525314 -35.634541 63.332092
v 73.525314 -35.634541 74.505791
v -73.702316 -35.634541 74.505798
v -73.702316 -35.634541 63.332100
vt 0.625000 0.500000
vt 0.875000 0.500000
vt 0.875000 0.750000
vt 0.625000 0.750000
vt 0.375000 0.750000
vt 0.625000 1.000000
vt 0.375000 1.000000
vt 0.375000 0.000000
vt 0.625000 0.000000
vt 0.625000 0.250000
vt 0.375000 0.250000
vt 0.125000 0.500000
vt 0.375000 0.500000
vt 0.125000 0.750000
vt 0.625000 0.500000
vt 0.875000 0.500000
vt 0.875000 0.750000
vt 0.625000 0.750000
vt 0.375000 0.750000
vt 0.625000 1.000000
vt 0.375000 1.000000
vt 0.375000 0.000000
vt 0.625000 0.000000
vt 0.625000 0.250000
vt 0.375000 0.250000
vt 0.125000 0.500000
vt 0.375000 0.500000
vt 0.125000 0.750000
vt 0.625000 0.500000
vt 0.875000 0.500000
vt 0.875000 0.750000
vt 0.625000 0.750000
vt 0.375000 0.750000
vt 0.625000 1.000000
vt 0.375000 1.000000
vt 0.375000 0.000000
vt 0.625000 0.000000
vt 0.625000 0.250000
vt 0.375000 0.250000
vt 0.125000 0.500000
vt 0.375000 0.500000
vt 0.125000 0.750000
vn 0.0000 1.0000 0.0000
vn 1.0000 0.0000 0.0000
vn 0.0000 0.0000 1.0000
vn -0.0000 -1.0000 -0.0000
vn -0.0000 0.0000 -1.0000
vn -1.0000 0.0000 0.0000
usemtl Bench
s 1
f 169/295/51 170/296/51 171/297/51 172/298/51
f 173/299/52 172/298/52 171/300/52 174/301/52
f 174/302/53 171/303/53 170/304/53 175/305/53
f 175/306/54 176/307/54 173/299/54 174/308/54
f 176/307/55 169/295/55 172/298/55 173/299/55
f 175/305/56 170/304/56 169/295/56 176/307/56
f 177/309/51 178/310/51 179/311/51 180/312/51
f 181/313/52 180/312/52 179/314/52 182/315/52
f 182/316/53 179/317/53 178/318/53 183/319/53
f 183/320/54 184/321/54 181/313/54 182/322/54
f 184/321/55 177/309/55 180/312/55 181/313/55
f 183/319/56 178/318/56 177/309/56 184/321/56
f 185/323/51 186/324/51 187/325/51 188/326/51
f 189/327/52 188/326/52 187/328/52 190/329/52
f 190/330/53 187/331/53 186/332/53 191/333/53
f 191/334/54 192/335/54 189/327/54 190/336/54
f 192/335/55 185/323/55 188/326/55 189/327/55
f 191/333/56 186/332/56 185/323/56 192/335/56
o BackSeat_Seat
v -73.702324 -30.914927 -74.274025
v -73.702324 -30.914930 -63.100327
v 73.525307 -30.914930 -63.100334
v 73.525307 -30.914927 -74.274033
v 73.525307 -35.634525 -74.274033
v 73.525307 -35.634525 -63.100334
v -73.702324 -35.634525 -63.100327
v -73.702324 -35.634525 -74.274025
v -73.702324 -30.914930 -61.967991
v -73.702324 -30.914930 -50.794296
v 73.525307 -30.914930 -50.794304
v 73.525307 -30.914930 -61.967999
v 73.525307 -35.634525 -61.967999
v 73.525307 -35.634525 -50.794304
v -73.702324 -35.634525 -50.794296
v -73.702324 -35.634525 -61.967991
v -73.702324 -30.914930 -49.709412
v -73.702324 -30.914930 -38.535713
v 73.525307 -30.914930 -38.535721
v 73.525307 -30.914930 -49.709419
v 73.525307 -35.634525 -49.709419
v 73.525307 -35.634533 -38.535721
v -73.702324 -35.634533 -38.535713
v -73.702324 -35.634525 -49.709412
vt 0.625000 0.500000
vt 0.875000 0.500000
vt 0.875000 0.750000
vt 0.625000 0.750000
vt 0.375000 0.750000
vt 0.625000 1.000000
vt 0.375000 1.000000
vt 0.375000 0.000000
vt 0.625000 0.000000
vt 0.625000 0.250000
vt 0.375000 0.250000
vt 0.125000 0.500000
vt 0.375000 0.500000
vt 0.125000 0.750000
vt 0.625000 0.500000
vt 0.875000 0.500000
vt 0.875000 0.750000
vt 0.625000 0.750000
vt 0.375000 0.750000
vt 0.625000 1.000000
vt 0.375000 1.000000
vt 0.375000 0.000000
vt 0.625000 0.000000
vt 0.625000 0.250000
vt 0.375000 0.250000
vt 0.125000 0.500000
vt 0.375000 0.500000
vt 0.125000 0.750000
vt 0.625000 0.500000
vt 0.875000 0.500000
vt 0.875000 0.750000
vt 0.625000 0.750000
vt 0.375000 0.750000
vt 0.625000 1.000000
vt 0.375000 1.000000
vt 0.375000 0.000000
vt 0.625000 0.000000
vt 0.625000 0.250000
vt 0.375000 0.250000
vt 0.125000 0.500000
vt 0.375000 0.500000
vt 0.125000 0.750000
vn 0.0000 1.0000 0.0000
vn 1.0000 0.0000 0.0000
vn 0.0000 0.0000 1.0000
vn 0.0000 -1.0000 0.0000
vn -0.0000 0.0000 -1.0000
vn -1.0000 0.0000 0.0000
usemtl Bench
s 1
f 193/337/57 194/338/57 195/339/57 196/340/57
f 197/341/58 196/340/58 195/342/58 198/343/58
f 198/344/59 195/345/59 194/346/59 199/347/59
f 199/348/60 200/349/60 197/341/60 198/350/60
f 200/349/61 193/337/61 196/340/61 197/341/61
f 199/347/62 194/346/62 193/337/62 200/349/62
f 201/351/57 202/352/57 203/353/57 204/354/57
f 205/355/58 204/354/58 203/356/58 206/357/58
f 206/358/59 203/359/59 202/360/59 207/361/59
f 207/362/60 208/363/60 205/355/60 206/364/60
f 208/363/61 201/351/61 204/354/61 205/355/61
f 207/361/62 202/360/62 201/351/62 208/363/62
f 209/365/57 210/366/57 211/367/57 212/368/57
f 213/369/58 212/368/58 211/370/58 214/371/58
f 214/372/59 211/373/59 210/374/59 215/375/59
f 215/376/60 216/377/60 213/369/60 214/378/60
f 216/377/61 209/365/61 212/368/61 213/369/61
f 215/375/62 210/374/62 209/365/62 216/377/62
