{
    "asset" : {
        "generator" : "Khronos glTF Blender I/O v1.1.46",
        "version" : "2.0"
    },
    "scene" : 0,
    "scenes" : [
        {
            "name" : "Scene",
            "nodes" : [
                0
            ]
        }
    ],
    "nodes" : [
        {
            "mesh" : 0,
            "name" : "gramophone",
            "scale" : [
                0.3578735589981079,
                0.3578735589981079,
                0.3578735589981079
            ]
        }
    ],
    "materials" : [
        {
            "doubleSided" : true,
            "emissiveFactor" : [
                0,
                0,
                0
            ],
            "name" : "Gramophone",
            "pbrMetallicRoughness" : {
                "baseColorTexture" : {
                    "index" : 0,
                    "texCoord" : 0
                },
                "metallicFactor" : 0,
                "roughnessFactor" : 0
            }
        }
    ],
    "meshes" : [
        {
            "name" : "Cube.001",
            "primitives" : [
                {
                    "attributes" : {
                        "POSITION" : 0,
                        "NORMAL" : 1,
                        "TEXCOORD_0" : 2
                    },
                    "indices" : 3,
                    "material" : 0
                }
            ]
        }
    ],
    "textures" : [
        {
            "source" : 0
        }
    ],
    "images" : [
        {
            "mimeType" : "image/png",
            "name" : "GramophoneTexture",
            "uri" : "GramophoneTexture.png"
        }
    ],
    "accessors" : [
        {
            "bufferView" : 0,
            "componentType" : 5126,
            "count" : 3396,
            "max" : [
                11.761879920959473,
                25.161659240722656,
                13.566364288330078
            ],
            "min" : [
                -9.028443336486816,
                -5.36981201171875,
                -9.751715660095215
            ],
            "type" : "VEC3"
        },
        {
            "bufferView" : 1,
            "componentType" : 5126,
            "count" : 3396,
            "type" : "VEC3"
        },
        {
            "bufferView" : 2,
            "componentType" : 5126,
            "count" : 3396,
            "type" : "VEC2"
        },
        {
            "bufferView" : 3,
            "componentType" : 5123,
            "count" : 5238,
            "type" : "SCALAR"
        }
    ],
    "bufferViews" : [
        {
            "buffer" : 0,
            "byteLength" : 40752,
            "byteOffset" : 0
        },
        {
            "buffer" : 0,
            "byteLength" : 40752,
            "byteOffset" : 40752
        },
        {
            "buffer" : 0,
            "byteLength" : 27168,
            "byteOffset" : 81504
        },
        {
            "buffer" : 0,
            "byteLength" : 10476,
            "byteOffset" : 108672
        }
    ],
    "buffers" : [
        {
            "byteLength" : 119148,
            "uri" : "Gramophone.bin"
        }
    ]
}
