{
    "asset" : {
        "copyright" : "rehcub",
        "generator" : "Khronos glTF Blender I/O v1.1.46",
        "version" : "2.0"
    },
    "scene" : 0,
    "scenes" : [
        {
            "name" : "Scene",
            "nodes" : [
                0
            ]
        }
    ],
    "nodes" : [
        {
            "mesh" : 0,
            "name" : "Rook"
        }
    ],
    "materials" : [
        {
            "doubleSided" : true,
            "emissiveFactor" : [
                0,
                0,
                0
            ],
            "name" : "ChessWhite",
            "pbrMetallicRoughness" : {
                "baseColorFactor" : [
                    0.800000011920929,
                    0.800000011920929,
                    0.800000011920929,
                    1
                ],
                "metallicFactor" : 0,
                "roughnessFactor" : 0.800000011920929
            }
        }
    ],
    "meshes" : [
        {
            "name" : "Cylinder.004",
            "primitives" : [
                {
                    "attributes" : {
                        "POSITION" : 0,
                        "NORMAL" : 1,
                        "TEXCOORD_0" : 2
                    },
                    "indices" : 3,
                    "material" : 0
                }
            ]
        }
    ],
    "accessors" : [
        {
            "bufferView" : 0,
            "componentType" : 5126,
            "count" : 1336,
            "max" : [
                1.0067532062530518,
                3.2886245250701904,
                1.0067532062530518
            ],
            "min" : [
                -1.0067532062530518,
                0,
                -1.0067533254623413
            ],
            "type" : "VEC3"
        },
        {
            "bufferView" : 1,
            "componentType" : 5126,
            "count" : 1336,
            "type" : "VEC3"
        },
        {
            "bufferView" : 2,
            "componentType" : 5126,
            "count" : 1336,
            "type" : "VEC2"
        },
        {
            "bufferView" : 3,
            "componentType" : 5123,
            "count" : 6468,
            "type" : "SCALAR"
        }
    ],
    "bufferViews" : [
        {
            "buffer" : 0,
            "byteLength" : 16032,
            "byteOffset" : 0
        },
        {
            "buffer" : 0,
            "byteLength" : 16032,
            "byteOffset" : 16032
        },
        {
            "buffer" : 0,
            "byteLength" : 10688,
            "byteOffset" : 32064
        },
        {
            "buffer" : 0,
            "byteLength" : 12936,
            "byteOffset" : 42752
        }
    ],
    "buffers" : [
        {
            "byteLength" : 55688,
            "uri" : "chess_rook.bin"
        }
    ]
}
