# Blender v3.4.1 OBJ File: ''
# www.blender.org
mtllib Stone go_stone.mtl
o Sphere
v 0.000000 0.425007 -0.284701
v 0.000000 0.113880 -1.062518
v 0.000000 0.000000 -1.100000
v 0.000000 -0.113880 -1.062518
v 0.000000 -0.425007 -0.284701
v 0.073686 0.425007 -0.275000
v 0.142350 0.381051 -0.531259
v 0.201314 0.311127 -0.751314
v 0.246558 0.220000 -0.920168
v 0.275000 0.113880 -1.026314
v 0.284701 0.000000 -1.062518
v 0.275000 -0.113880 -1.026314
v 0.246558 -0.220000 -0.920168
v 0.201314 -0.311127 -0.751314
v 0.142350 -0.381051 -0.531259
v 0.073686 -0.425007 -0.275000
v 0.142350 0.425007 -0.246558
v 0.275000 0.381051 -0.476314
v 0.388909 0.311127 -0.673610
v 0.476314 0.220000 -0.825000
v 0.531259 0.113880 -0.920168
v 0.550000 0.000000 -0.952628
v 0.531259 -0.113880 -0.920168
v 0.476314 -0.220000 -0.825000
v 0.388909 -0.311127 -0.673610
v 0.275000 -0.381051 -0.476314
v 0.142350 -0.425007 -0.246558
v 0.000000 -0.425000 0.000000
v 0.201314 0.425007 -0.201314
v 0.388909 0.381051 -0.388909
v 0.550000 0.311127 -0.550000
v 0.673610 0.220000 -0.673610
v 0.751314 0.113880 -0.751314
v 0.777817 0.000000 -0.777817
v 0.751314 -0.113880 -0.751314
v 0.673610 -0.220000 -0.673610
v 0.550000 -0.311127 -0.550000
v 0.388909 -0.381051 -0.388909
v 0.201314 -0.425007 -0.201314
v 0.246558 0.425007 -0.142350
v 0.476314 0.381051 -0.275000
v 0.673610 0.311127 -0.388909
v 0.825000 0.220000 -0.476314
v 0.920168 0.113880 -0.531259
v 0.952628 0.000000 -0.550000
v 0.920168 -0.113880 -0.531259
v 0.825000 -0.220000 -0.476314
v 0.673610 -0.311127 -0.388909
v 0.476314 -0.381051 -0.275000
v 0.246558 -0.425007 -0.142350
v 0.275000 0.425007 -0.073686
v 0.531259 0.381051 -0.142350
v 0.751314 0.311127 -0.201314
v 0.920168 0.220000 -0.246558
v 1.026314 0.113880 -0.275000
v 1.062518 0.000000 -0.284701
v 1.026314 -0.113880 -0.275000
v 0.920168 -0.220000 -0.246558
v 0.751314 -0.311127 -0.201314
v 0.531259 -0.381051 -0.142350
v 0.275000 -0.425007 -0.073686
v 0.284701 0.425007 0.000000
v 0.550000 0.381051 0.000000
v 0.777817 0.311127 0.000000
v 0.952628 0.220000 0.000000
v 1.062518 0.113880 0.000000
v 1.100000 0.000000 0.000000
v 1.062518 -0.113880 0.000000
v 0.952628 -0.220000 0.000000
v 0.777817 -0.311127 0.000000
v 0.550000 -0.381051 0.000000
v 0.284701 -0.425007 0.000000
v 0.275000 0.425007 0.073686
v 0.531259 0.381051 0.142350
v 0.751314 0.311127 0.201314
v 0.920168 0.220000 0.246558
v 1.026314 0.113880 0.275000
v 1.062518 0.000000 0.284701
v 1.026314 -0.113880 0.275000
v 0.920168 -0.220000 0.246558
v 0.751314 -0.311127 0.201314
v 0.531259 -0.381051 0.142350
v 0.275000 -0.425007 0.073686
v 0.246558 0.425007 0.142350
v 0.476314 0.381051 0.275000
v 0.673610 0.311127 0.388909
v 0.825000 0.220000 0.476314
v 0.920168 0.113880 0.531259
v 0.952628 0.000000 0.550000
v 0.920168 -0.113880 0.531259
v 0.825000 -0.220000 0.476314
v 0.673610 -0.311127 0.388909
v 0.476314 -0.381051 0.275000
v 0.246558 -0.425007 0.142350
v 0.201314 0.425007 0.201314
v 0.388909 0.381051 0.388909
v 0.550000 0.311127 0.550000
v 0.673610 0.220000 0.673610
v 0.751314 0.113880 0.751314
v 0.777817 0.000000 0.777817
v 0.751314 -0.113880 0.751314
v 0.673610 -0.220000 0.673610
v 0.550000 -0.311127 0.550000
v 0.388909 -0.381051 0.388909
v 0.201314 -0.425007 0.201314
v 0.142350 0.425007 0.246558
v 0.275000 0.381051 0.476314
v 0.388909 0.311127 0.673610
v 0.476314 0.220000 0.825000
v 0.531259 0.113880 0.920168
v 0.550000 0.000000 0.952628
v 0.531259 -0.113880 0.920168
v 0.476314 -0.220000 0.825000
v 0.388909 -0.311127 0.673610
v 0.275000 -0.381051 0.476314
v 0.142350 -0.425007 0.246558
v 0.073686 0.425007 0.275000
v 0.142350 0.381051 0.531259
v 0.201314 0.311127 0.751314
v 0.246558 0.220000 0.920168
v 0.275000 0.113880 1.026314
v 0.284701 0.000000 1.062518
v 0.275000 -0.113880 1.026314
v 0.246558 -0.220000 0.920168
v 0.201314 -0.311127 0.751314
v 0.142350 -0.381051 0.531259
v 0.073686 -0.425007 0.275000
v -0.000000 0.425007 0.284701
v 0.000000 0.381051 0.550000
v 0.000000 0.311127 0.777817
v 0.000000 0.220000 0.952628
v -0.000000 0.113880 1.062518
v 0.000000 0.000000 1.100000
v -0.000000 -0.113880 1.062518
v 0.000000 -0.220000 0.952628
v 0.000000 -0.311127 0.777817
v 0.000000 -0.381051 0.550000
v -0.000000 -0.425007 0.284701
v -0.073686 0.425007 0.275000
v -0.142350 0.381051 0.531259
v -0.201314 0.311127 0.751314
v -0.246558 0.220000 0.920168
v -0.275000 0.113880 1.026314
v -0.284701 0.000000 1.062518
v -0.275000 -0.113880 1.026314
v -0.246558 -0.220000 0.920168
v -0.201314 -0.311127 0.751314
v -0.142350 -0.381051 0.531259
v -0.073686 -0.425007 0.275000
v -0.142350 0.425007 0.246558
v -0.275000 0.381051 0.476314
v -0.388909 0.311127 0.673610
v -0.476314 0.220000 0.825000
v -0.531259 0.113880 0.920168
v -0.550000 0.000000 0.952628
v -0.531259 -0.113880 0.920168
v -0.476314 -0.220000 0.825000
v -0.388909 -0.311127 0.673610
v -0.275000 -0.381051 0.476314
v -0.142350 -0.425007 0.246558
v 0.000000 0.425000 0.000000
v -0.201314 0.425007 0.201314
v -0.388909 0.381051 0.388909
v -0.550000 0.311127 0.550000
v -0.673610 0.220000 0.673610
v -0.751314 0.113880 0.751314
v -0.777817 0.000000 0.777817
v -0.751314 -0.113880 0.751314
v -0.673610 -0.220000 0.673610
v -0.550000 -0.311127 0.550000
v -0.388909 -0.381051 0.388909
v -0.201314 -0.425007 0.201314
v -0.246558 0.425007 0.142350
v -0.476314 0.381051 0.275000
v -0.673610 0.311127 0.388909
v -0.825000 0.220000 0.476314
v -0.920168 0.113880 0.531259
v -0.952628 0.000000 0.550000
v -0.920168 -0.113880 0.531259
v -0.825000 -0.220000 0.476314
v -0.673610 -0.311127 0.388909
v -0.476314 -0.381051 0.275000
v -0.246558 -0.425007 0.142350
v -0.275000 0.425007 0.073686
v -0.531259 0.381051 0.142350
v -0.751314 0.311127 0.201314
v -0.920168 0.220000 0.246558
v -1.026314 0.113880 0.275000
v -1.062518 0.000000 0.284701
v -1.026314 -0.113880 0.275000
v -0.920168 -0.220000 0.246558
v -0.751314 -0.311127 0.201314
v -0.531259 -0.381051 0.142350
v -0.275000 -0.425007 0.073686
v -0.284701 0.425007 -0.000000
v -0.550000 0.381051 -0.000000
v -0.777817 0.311127 0.000000
v -0.952628 0.220000 -0.000000
v -1.062518 0.113880 -0.000000
v -1.100000 0.000000 -0.000000
v -1.062518 -0.113880 -0.000000
v -0.952628 -0.220000 -0.000000
v -0.777817 -0.311127 0.000000
v -0.550000 -0.381051 -0.000000
v -0.284701 -0.425007 -0.000000
v -0.275000 0.425007 -0.073686
v -0.531259 0.381051 -0.142350
v -0.751314 0.311127 -0.201314
v -0.920168 0.220000 -0.246558
v -1.026314 0.113880 -0.275000
v -1.062518 0.000000 -0.284701
v -1.026314 -0.113880 -0.275000
v -0.920168 -0.220000 -0.246558
v -0.751314 -0.311127 -0.201314
v -0.531259 -0.381051 -0.142350
v -0.275000 -0.425007 -0.073686
v -0.246558 0.425007 -0.142350
v -0.476314 0.381051 -0.275000
v -0.673609 0.311127 -0.388909
v -0.825000 0.220000 -0.476314
v -0.920168 0.113880 -0.531259
v -0.952628 0.000000 -0.550000
v -0.920168 -0.113880 -0.531259
v -0.825000 -0.220000 -0.476314
v -0.673609 -0.311127 -0.388909
v -0.476314 -0.381051 -0.275000
v -0.246558 -0.425007 -0.142350
v -0.201314 0.425007 -0.201314
v -0.388909 0.381051 -0.388909
v -0.550000 0.311127 -0.550000
v -0.673609 0.220000 -0.673610
v -0.751314 0.113880 -0.751314
v -0.777817 0.000000 -0.777817
v -0.751314 -0.113880 -0.751314
v -0.673609 -0.220000 -0.673610
v -0.550000 -0.311127 -0.550000
v -0.388909 -0.381051 -0.388909
v -0.201314 -0.425007 -0.201314
v -0.142350 0.425007 -0.246558
v -0.275000 0.381051 -0.476314
v -0.388909 0.311127 -0.673609
v -0.476314 0.220000 -0.825000
v -0.531259 0.113880 -0.920168
v -0.550000 0.000000 -0.952628
v -0.531259 -0.113880 -0.920168
v -0.476314 -0.220000 -0.825000
v -0.388909 -0.311127 -0.673609
v -0.275000 -0.381051 -0.476314
v -0.142350 -0.425007 -0.246558
v -0.073686 0.425007 -0.275000
v -0.142350 0.381051 -0.531259
v -0.201314 0.311127 -0.751314
v -0.246558 0.220000 -0.920168
v -0.275000 0.113880 -1.026314
v -0.284701 0.000000 -1.062518
v -0.275000 -0.113880 -1.026314
v -0.246558 -0.220000 -0.920168
v -0.201314 -0.311127 -0.751314
v -0.142350 -0.381051 -0.531259
v -0.073686 -0.425007 -0.275000
v 0.000000 0.381051 -0.550000
v 0.000000 0.311127 -0.777817
v 0.000000 0.220000 -0.952628
v 0.000000 -0.220000 -0.952628
v 0.000000 -0.311127 -0.777817
v 0.000000 -0.381051 -0.550000
vn 0.0607 0.8851 -0.4614
vn 0.0215 -0.9863 -0.1634
vn -0.0000 1.0000 0.0000
vn 0.0911 -0.7164 -0.6918
vn 0.0911 0.7164 -0.6918
vn -0.0000 -1.0000 0.0000
vn 0.0215 0.9863 -0.1634
vn 0.0607 -0.8851 -0.4614
vn 0.1241 0.3102 -0.9425
vn 0.0386 0.9553 -0.2932
vn 0.0386 -0.9553 -0.2932
vn 0.1241 -0.3102 -0.9425
vn 0.1781 -0.8851 -0.4300
vn 0.3638 0.3102 -0.8783
vn 0.1132 0.9553 -0.2732
vn 0.1132 -0.9553 -0.2732
vn 0.3638 -0.3102 -0.8783
vn 0.1781 0.8851 -0.4300
vn 0.0631 -0.9863 -0.1523
vn 0.2670 -0.7164 -0.6446
vn 0.2670 0.7164 -0.6446
vn 0.0631 0.9863 -0.1523
vn 0.4248 -0.7164 -0.5536
vn 0.4248 0.7164 -0.5536
vn 0.1003 0.9863 -0.1308
vn 0.2833 -0.8851 -0.3692
vn 0.5787 0.3102 -0.7542
vn 0.1800 0.9553 -0.2346
vn 0.1800 -0.9553 -0.2346
vn 0.5787 -0.3102 -0.7542
vn 0.2833 0.8851 -0.3692
vn 0.1003 -0.9863 -0.1308
vn 0.2346 -0.9553 -0.1800
vn 0.7542 -0.3102 -0.5787
vn 0.3692 0.8851 -0.2833
vn 0.1308 -0.9863 -0.1003
vn 0.5536 -0.7164 -0.4248
vn 0.5536 0.7164 -0.4248
vn 0.1308 0.9863 -0.1003
vn 0.3692 -0.8851 -0.2833
vn 0.7542 0.3102 -0.5787
vn 0.2346 0.9553 -0.1800
vn 0.1523 0.9863 -0.0631
vn 0.4300 -0.8851 -0.1781
vn 0.8783 0.3102 -0.3638
vn 0.2732 0.9553 -0.1132
vn 0.2732 -0.9553 -0.1132
vn 0.8783 -0.3102 -0.3638
vn 0.4300 0.8851 -0.1781
vn 0.1523 -0.9863 -0.0631
vn 0.6446 -0.7164 -0.2670
vn 0.6446 0.7164 -0.2670
vn 0.1634 -0.9863 -0.0215
vn 0.6918 -0.7164 -0.0911
vn 0.6918 0.7164 -0.0911
vn 0.1634 0.9863 -0.0215
vn 0.4614 -0.8851 -0.0607
vn 0.9425 0.3102 -0.1241
vn 0.2932 0.9553 -0.0386
vn 0.2932 -0.9553 -0.0386
vn 0.9425 -0.3102 -0.1241
vn 0.4614 0.8851 -0.0607
vn 0.2932 0.9553 0.0386
vn 0.2932 -0.9553 0.0386
vn 0.9425 -0.3102 0.1241
vn 0.4614 0.8851 0.0607
vn 0.1634 -0.9863 0.0215
vn 0.6918 -0.7164 0.0911
vn 0.6918 0.7164 0.0911
vn 0.1634 0.9863 0.0215
vn 0.4614 -0.8851 0.0607
vn 0.9425 0.3102 0.1241
vn 0.1523 0.9863 0.0631
vn 0.4300 -0.8851 0.1781
vn 0.8783 0.3102 0.3638
vn 0.2732 0.9553 0.1132
vn 0.2732 -0.9553 0.1132
vn 0.8783 -0.3102 0.3638
vn 0.4300 0.8851 0.1781
vn 0.1523 -0.9863 0.0631
vn 0.6446 -0.7164 0.2670
vn 0.6446 0.7164 0.2670
vn 0.3692 0.8851 0.2833
vn 0.1308 -0.9863 0.1003
vn 0.5536 -0.7164 0.4248
vn 0.5536 0.7164 0.4248
vn 0.1308 0.9863 0.1003
vn 0.3692 -0.8851 0.2833
vn 0.7542 0.3102 0.5787
vn 0.2346 0.9553 0.1800
vn 0.2346 -0.9553 0.1800
vn 0.7542 -0.3102 0.5787
vn 0.1800 0.9553 0.2346
vn 0.1800 -0.9553 0.2346
vn 0.5787 -0.3102 0.7542
vn 0.2833 0.8851 0.3692
vn 0.1003 -0.9863 0.1308
vn 0.4248 -0.7164 0.5536
vn 0.4248 0.7164 0.5536
vn 0.1003 0.9863 0.1308
vn 0.2833 -0.8851 0.3692
vn 0.5787 0.3102 0.7542
vn 0.2670 0.7164 0.6446
vn 0.0631 0.9863 0.1523
vn 0.1781 -0.8851 0.4300
vn 0.3638 0.3102 0.8783
vn 0.1132 0.9553 0.2732
vn 0.1132 -0.9553 0.2732
vn 0.3638 -0.3102 0.8783
vn 0.1781 0.8851 0.4300
vn 0.0631 -0.9863 0.1523
vn 0.2670 -0.7164 0.6446
vn 0.0607 0.8851 0.4614
vn 0.0215 -0.9863 0.1634
vn 0.0911 -0.7164 0.6918
vn 0.0911 0.7164 0.6918
vn 0.0215 0.9863 0.1634
vn 0.0607 -0.8851 0.4614
vn 0.1241 0.3102 0.9425
vn 0.0386 0.9553 0.2932
vn 0.0386 -0.9553 0.2932
vn 0.1241 -0.3102 0.9425
vn -0.1241 0.3102 0.9425
vn -0.0386 0.9553 0.2932
vn -0.0386 -0.9553 0.2932
vn -0.1241 -0.3102 0.9425
vn -0.0607 0.8851 0.4614
vn -0.0215 -0.9863 0.1634
vn -0.0911 -0.7164 0.6918
vn -0.0911 0.7164 0.6918
vn -0.0215 0.9863 0.1634
vn -0.0607 -0.8851 0.4614
vn -0.2670 0.7164 0.6446
vn -0.0631 0.9863 0.1523
vn -0.1781 -0.8851 0.4300
vn -0.3638 0.3102 0.8783
vn -0.1132 0.9553 0.2732
vn -0.1132 -0.9553 0.2732
vn -0.3638 -0.3102 0.8783
vn -0.1781 0.8851 0.4300
vn -0.0631 -0.9863 0.1523
vn -0.2670 -0.7164 0.6446
vn -0.5787 -0.3102 0.7542
vn -0.2833 0.8851 0.3692
vn -0.1003 -0.9863 0.1308
vn -0.4248 -0.7164 0.5536
vn -0.4248 0.7164 0.5536
vn -0.1003 0.9863 0.1308
vn -0.2833 -0.8851 0.3692
vn -0.5787 0.3102 0.7542
vn -0.1800 0.9553 0.2346
vn -0.1800 -0.9553 0.2346
vn -0.7542 0.3102 0.5787
vn -0.2346 0.9553 0.1800
vn -0.2346 -0.9553 0.1800
vn -0.7542 -0.3102 0.5787
vn -0.3692 0.8851 0.2833
vn -0.1308 -0.9863 0.1003
vn -0.5536 -0.7164 0.4248
vn -0.5536 0.7164 0.4248
vn -0.1308 0.9863 0.1003
vn -0.3692 -0.8851 0.2833
vn -0.6446 -0.7164 0.2670
vn -0.6446 0.7164 0.2670
vn -0.1523 0.9863 0.0631
vn -0.4300 -0.8851 0.1781
vn -0.8783 0.3102 0.3638
vn -0.2732 0.9553 0.1132
vn -0.2732 -0.9553 0.1132
vn -0.8783 -0.3102 0.3638
vn -0.4300 0.8851 0.1781
vn -0.1523 -0.9863 0.0631
vn -0.9425 -0.3102 0.1241
vn -0.4614 0.8851 0.0607
vn -0.1634 -0.9863 0.0215
vn -0.6918 -0.7164 0.0911
vn -0.6918 0.7164 0.0911
vn -0.1634 0.9863 0.0215
vn -0.4614 -0.8851 0.0607
vn -0.9425 0.3102 0.1241
vn -0.2932 0.9553 0.0386
vn -0.2932 -0.9553 0.0386
vn -0.4614 -0.8851 -0.0607
vn -0.9425 0.3102 -0.1241
vn -0.2932 0.9553 -0.0386
vn -0.2932 -0.9553 -0.0386
vn -0.9425 -0.3102 -0.1241
vn -0.4614 0.8851 -0.0607
vn -0.1634 -0.9863 -0.0215
vn -0.6918 -0.7164 -0.0911
vn -0.6918 0.7164 -0.0911
vn -0.1634 0.9863 -0.0215
vn -0.6446 -0.7164 -0.2670
vn -0.6446 0.7164 -0.2670
vn -0.1523 0.9863 -0.0631
vn -0.4300 -0.8851 -0.1781
vn -0.8783 0.3102 -0.3638
vn -0.2732 0.9553 -0.1132
vn -0.2732 -0.9553 -0.1132
vn -0.8783 -0.3102 -0.3638
vn -0.4300 0.8851 -0.1781
vn -0.1523 -0.9863 -0.0631
vn -0.2346 -0.9553 -0.1800
vn -0.7542 -0.3102 -0.5787
vn -0.3692 0.8851 -0.2833
vn -0.1308 -0.9863 -0.1003
vn -0.5536 -0.7164 -0.4248
vn -0.5536 0.7164 -0.4248
vn -0.1308 0.9863 -0.1003
vn -0.3692 -0.8851 -0.2833
vn -0.7542 0.3102 -0.5787
vn -0.2346 0.9553 -0.1800
vn -0.1003 0.9863 -0.1308
vn -0.2833 -0.8851 -0.3692
vn -0.5787 0.3102 -0.7542
vn -0.1800 0.9553 -0.2346
vn -0.1800 -0.9553 -0.2346
vn -0.5787 -0.3102 -0.7542
vn -0.2833 0.8851 -0.3692
vn -0.1003 -0.9863 -0.1308
vn -0.4248 -0.7164 -0.5536
vn -0.4248 0.7164 -0.5536
vn -0.0631 -0.9863 -0.1523
vn -0.2670 -0.7164 -0.6446
vn -0.2670 0.7164 -0.6446
vn -0.0631 0.9863 -0.1523
vn -0.1781 -0.8851 -0.4300
vn -0.3638 0.3102 -0.8783
vn -0.1132 0.9553 -0.2732
vn -0.1132 -0.9553 -0.2732
vn -0.3638 -0.3102 -0.8783
vn -0.1781 0.8851 -0.4300
vn -0.0386 0.9553 -0.2932
vn -0.0386 -0.9553 -0.2932
vn -0.1241 -0.3102 -0.9425
vn -0.0607 0.8851 -0.4614
vn -0.0215 -0.9863 -0.1634
vn -0.0911 -0.7164 -0.6918
vn -0.0911 0.7164 -0.6918
vn -0.0215 0.9863 -0.1634
vn -0.0607 -0.8851 -0.4614
vn -0.1241 0.3102 -0.9425
usemtl GoStone
s off
f 263//1 262//1 8//1 9//1
f 5//2 266//2 15//2 16//2
f 1//3 161//3 6//3
f 264//4 4//4 12//4 13//4
f 2//5 263//5 9//5 10//5
f 28//6 5//6 16//6
f 261//7 1//7 6//7 7//7
f 265//8 264//8 13//8 14//8
f 3//9 2//9 10//9 11//9
f 262//10 261//10 7//10 8//10
f 266//11 265//11 14//11 15//11
f 4//12 3//12 11//12 12//12
f 14//13 13//13 24//13 25//13
f 11//14 10//14 21//14 22//14
f 8//15 7//15 18//15 19//15
f 15//16 14//16 25//16 26//16
f 12//17 11//17 22//17 23//17
f 9//18 8//18 19//18 20//18
f 16//19 15//19 26//19 27//19
f 6//3 161//3 17//3
f 13//20 12//20 23//20 24//20
f 10//21 9//21 20//21 21//21
f 28//6 16//6 27//6
f 7//22 6//22 17//22 18//22
f 17//3 161//3 29//3
f 24//23 23//23 35//23 36//23
f 21//24 20//24 32//24 33//24
f 28//6 27//6 39//6
f 18//25 17//25 29//25 30//25
f 25//26 24//26 36//26 37//26
f 22//27 21//27 33//27 34//27
f 19//28 18//28 30//28 31//28
f 26//29 25//29 37//29 38//29
f 23//30 22//30 34//30 35//30
f 20//31 19//31 31//31 32//31
f 27//32 26//32 38//32 39//32
f 38//33 37//33 48//33 49//33
f 35//34 34//34 45//34 46//34
f 32//35 31//35 42//35 43//35
f 39//36 38//36 49//36 50//36
f 29//3 161//3 40//3
f 36//37 35//37 46//37 47//37
f 33//38 32//38 43//38 44//38
f 28//6 39//6 50//6
f 30//39 29//39 40//39 41//39
f 37//40 36//40 47//40 48//40
f 34//41 33//41 44//41 45//41
f 31//42 30//42 41//42 42//42
f 41//43 40//43 51//43 52//43
f 48//44 47//44 58//44 59//44
f 45//45 44//45 55//45 56//45
f 42//46 41//46 52//46 53//46
f 49//47 48//47 59//47 60//47
f 46//48 45//48 56//48 57//48
f 43//49 42//49 53//49 54//49
f 50//50 49//50 60//50 61//50
f 40//3 161//3 51//3
f 47//51 46//51 57//51 58//51
f 44//52 43//52 54//52 55//52
f 28//6 50//6 61//6
f 61//53 60//53 71//53 72//53
f 51//3 161//3 62//3
f 58//54 57//54 68//54 69//54
f 55//55 54//55 65//55 66//55
f 28//6 61//6 72//6
f 52//56 51//56 62//56 63//56
f 59//57 58//57 69//57 70//57
f 56//58 55//58 66//58 67//58
f 53//59 52//59 63//59 64//59
f 60//60 59//60 70//60 71//60
f 57//61 56//61 67//61 68//61
f 54//62 53//62 64//62 65//62
f 64//63 63//63 74//63 75//63
f 71//64 70//64 81//64 82//64
f 68//65 67//65 78//65 79//65
f 65//66 64//66 75//66 76//66
f 72//67 71//67 82//67 83//67
f 62//3 161//3 73//3
f 69//68 68//68 79//68 80//68
f 66//69 65//69 76//69 77//69
f 28//6 72//6 83//6
f 63//70 62//70 73//70 74//70
f 70//71 69//71 80//71 81//71
f 67//72 66//72 77//72 78//72
f 28//6 83//6 94//6
f 74//73 73//73 84//73 85//73
f 81//74 80//74 91//74 92//74
f 78//75 77//75 88//75 89//75
f 75//76 74//76 85//76 86//76
f 82//77 81//77 92//77 93//77
f 79//78 78//78 89//78 90//78
f 76//79 75//79 86//79 87//79
f 83//80 82//80 93//80 94//80
f 73//3 161//3 84//3
f 80//81 79//81 90//81 91//81
f 77//82 76//82 87//82 88//82
f 87//83 86//83 97//83 98//83
f 94//84 93//84 104//84 105//84
f 84//3 161//3 95//3
f 91//85 90//85 101//85 102//85
f 88//86 87//86 98//86 99//86
f 28//6 94//6 105//6
f 85//87 84//87 95//87 96//87
f 92//88 91//88 102//88 103//88
f 89//89 88//89 99//89 100//89
f 86//90 85//90 96//90 97//90
f 93//91 92//91 103//91 104//91
f 90//92 89//92 100//92 101//92
f 97//93 96//93 107//93 108//93
f 104//94 103//94 114//94 115//94
f 101//95 100//95 111//95 112//95
f 98//96 97//96 108//96 109//96
f 105//97 104//97 115//97 116//97
f 95//3 161//3 106//3
f 102//98 101//98 112//98 113//98
f 99//99 98//99 109//99 110//99
f 28//6 105//6 116//6
f 96//100 95//100 106//100 107//100
f 103//101 102//101 113//101 114//101
f 100//102 99//102 110//102 111//102
f 110//103 109//103 120//103 121//103
f 28//6 116//6 127//6
f 107//104 106//104 117//104 118//104
f 114//105 113//105 124//105 125//105
f 111//106 110//106 121//106 122//106
f 108//107 107//107 118//107 119//107
f 115//108 114//108 125//108 126//108
f 112//109 111//109 122//109 123//109
f 109//110 108//110 119//110 120//110
f 116//111 115//111 126//111 127//111
f 106//3 161//3 117//3
f 113//112 112//112 123//112 124//112
f 120//113 119//113 130//113 131//113
f 127//114 126//114 137//114 138//114
f 117//3 161//3 128//3
f 124//115 123//115 134//115 135//115
f 121//116 120//116 131//116 132//116
f 28//6 127//6 138//6
f 118//117 117//117 128//117 129//117
f 125//118 124//118 135//118 136//118
f 122//119 121//119 132//119 133//119
f 119//120 118//120 129//120 130//120
f 126//121 125//121 136//121 137//121
f 123//122 122//122 133//122 134//122
f 133//123 132//123 143//123 144//123
f 130//124 129//124 140//124 141//124
f 137//125 136//125 147//125 148//125
f 134//126 133//126 144//126 145//126
f 131//127 130//127 141//127 142//127
f 138//128 137//128 148//128 149//128
f 128//3 161//3 139//3
f 135//129 134//129 145//129 146//129
f 132//130 131//130 142//130 143//130
f 28//6 138//6 149//6
f 129//131 128//131 139//131 140//131
f 136//132 135//132 146//132 147//132
f 143//133 142//133 153//133 154//133
f 28//6 149//6 160//6
f 140//134 139//134 150//134 151//134
f 147//135 146//135 157//135 158//135
f 144//136 143//136 154//136 155//136
f 141//137 140//137 151//137 152//137
f 148//138 147//138 158//138 159//138
f 145//139 144//139 155//139 156//139
f 142//140 141//140 152//140 153//140
f 149//141 148//141 159//141 160//141
f 139//3 161//3 150//3
f 146//142 145//142 156//142 157//142
f 156//143 155//143 167//143 168//143
f 153//144 152//144 164//144 165//144
f 160//145 159//145 171//145 172//145
f 150//3 161//3 162//3
f 157//146 156//146 168//146 169//146
f 154//147 153//147 165//147 166//147
f 28//6 160//6 172//6
f 151//148 150//148 162//148 163//148
f 158//149 157//149 169//149 170//149
f 155//150 154//150 166//150 167//150
f 152//151 151//151 163//151 164//151
f 159//152 158//152 170//152 171//152
f 167//153 166//153 177//153 178//153
f 164//154 163//154 174//154 175//154
f 171//155 170//155 181//155 182//155
f 168//156 167//156 178//156 179//156
f 165//157 164//157 175//157 176//157
f 172//158 171//158 182//158 183//158
f 162//3 161//3 173//3
f 169//159 168//159 179//159 180//159
f 166//160 165//160 176//160 177//160
f 28//6 172//6 183//6
f 163//161 162//161 173//161 174//161
f 170//162 169//162 180//162 181//162
f 180//163 179//163 190//163 191//163
f 177//164 176//164 187//164 188//164
f 28//6 183//6 194//6
f 174//165 173//165 184//165 185//165
f 181//166 180//166 191//166 192//166
f 178//167 177//167 188//167 189//167
f 175//168 174//168 185//168 186//168
f 182//169 181//169 192//169 193//169
f 179//170 178//170 189//170 190//170
f 176//171 175//171 186//171 187//171
f 183//172 182//172 193//172 194//172
f 173//3 161//3 184//3
f 190//173 189//173 200//173 201//173
f 187//174 186//174 197//174 198//174
f 194//175 193//175 204//175 205//175
f 184//3 161//3 195//3
f 191//176 190//176 201//176 202//176
f 188//177 187//177 198//177 199//177
f 28//6 194//6 205//6
f 185//178 184//178 195//178 196//178
f 192//179 191//179 202//179 203//179
f 189//180 188//180 199//180 200//180
f 186//181 185//181 196//181 197//181
f 193//182 192//182 203//182 204//182
f 203//183 202//183 213//183 214//183
f 200//184 199//184 210//184 211//184
f 197//185 196//185 207//185 208//185
f 204//186 203//186 214//186 215//186
f 201//187 200//187 211//187 212//187
f 198//188 197//188 208//188 209//188
f 205//189 204//189 215//189 216//189
f 195//3 161//3 206//3
f 202//190 201//190 212//190 213//190
f 199//191 198//191 209//191 210//191
f 28//6 205//6 216//6
f 196//192 195//192 206//192 207//192
f 206//3 161//3 217//3
f 213//193 212//193 223//193 224//193
f 210//194 209//194 220//194 221//194
f 28//6 216//6 227//6
f 207//195 206//195 217//195 218//195
f 214//196 213//196 224//196 225//196
f 211//197 210//197 221//197 222//197
f 208//198 207//198 218//198 219//198
f 215//199 214//199 225//199 226//199
f 212//200 211//200 222//200 223//200
f 209//201 208//201 219//201 220//201
f 216//202 215//202 226//202 227//202
f 226//203 225//203 236//203 237//203
f 223//204 222//204 233//204 234//204
f 220//205 219//205 230//205 231//205
f 227//206 226//206 237//206 238//206
f 217//3 161//3 228//3
f 224//207 223//207 234//207 235//207
f 221//208 220//208 231//208 232//208
f 28//6 227//6 238//6
f 218//209 217//209 228//209 229//209
f 225//210 224//210 235//210 236//210
f 222//211 221//211 232//211 233//211
f 219//212 218//212 229//212 230//212
f 229//213 228//213 239//213 240//213
f 236//214 235//214 246//214 247//214
f 233//215 232//215 243//215 244//215
f 230//216 229//216 240//216 241//216
f 237//217 236//217 247//217 248//217
f 234//218 233//218 244//218 245//218
f 231//219 230//219 241//219 242//219
f 238//220 237//220 248//220 249//220
f 228//3 161//3 239//3
f 235//221 234//221 245//221 246//221
f 232//222 231//222 242//222 243//222
f 28//6 238//6 249//6
f 249//223 248//223 259//223 260//223
f 239//3 161//3 250//3
f 246//224 245//224 256//224 257//224
f 243//225 242//225 253//225 254//225
f 28//6 249//6 260//6
f 240//226 239//226 250//226 251//226
f 247//227 246//227 257//227 258//227
f 244//228 243//228 254//228 255//228
f 241//229 240//229 251//229 252//229
f 248//230 247//230 258//230 259//230
f 245//231 244//231 255//231 256//231
f 242//232 241//232 252//232 253//232
f 252//233 251//233 261//233 262//233
f 259//234 258//234 265//234 266//234
f 256//235 255//235 3//235 4//235
f 253//236 252//236 262//236 263//236
f 260//237 259//237 266//237 5//237
f 250//3 161//3 1//3
f 257//238 256//238 4//238 264//238
f 254//239 253//239 263//239 2//239
f 28//6 260//6 5//6
f 251//240 250//240 1//240 261//240
f 258//241 257//241 264//241 265//241
f 255//242 254//242 2//242 3//242
