{
    "asset" : {
        "copyright" : "rehcub",
        "generator" : "Khronos glTF Blender I/O v1.1.46",
        "version" : "2.0"
    },
    "scene" : 0,
    "scenes" : [
        {
            "name" : "Scene",
            "nodes" : [
                0
            ]
        }
    ],
    "nodes" : [
        {
            "mesh" : 0,
            "name" : "Bishop",
            "scale" : [
                1.4616159200668335,
                1.4616159200668335,
                1.4616159200668335
            ]
        }
    ],
    "materials" : [
        {
            "doubleSided" : true,
            "emissiveFactor" : [
                0,
                0,
                0
            ],
            "name" : "ChessBlack",
            "pbrMetallicRoughness" : {
                "baseColorFactor" : [
                    0,
                    0,
                    0,
                    1
                ],
                "metallicFactor" : 0,
                "roughnessFactor" : 0.800000011920929
            }
        }
    ],
    "meshes" : [
        {
            "name" : "Cylinder.003",
            "primitives" : [
                {
                    "attributes" : {
                        "POSITION" : 0,
                        "NORMAL" : 1,
                        "TEXCOORD_0" : 2
                    },
                    "indices" : 3,
                    "material" : 0
                }
            ]
        }
    ],
    "accessors" : [
        {
            "bufferView" : 0,
            "componentType" : 5126,
            "count" : 1825,
            "max" : [
                1,
                4.199135780334473,
                1.0066673755645752
            ],
            "min" : [
                -1,
                0,
                -1.0066672563552856
            ],
            "type" : "VEC3"
        },
        {
            "bufferView" : 1,
            "componentType" : 5126,
            "count" : 1825,
            "type" : "VEC3"
        },
        {
            "bufferView" : 2,
            "componentType" : 5126,
            "count" : 1825,
            "type" : "VEC2"
        },
        {
            "bufferView" : 3,
            "componentType" : 5123,
            "count" : 8748,
            "type" : "SCALAR"
        }
    ],
    "bufferViews" : [
        {
            "buffer" : 0,
            "byteLength" : 21900,
            "byteOffset" : 0
        },
        {
            "buffer" : 0,
            "byteLength" : 21900,
            "byteOffset" : 21900
        },
        {
            "buffer" : 0,
            "byteLength" : 14600,
            "byteOffset" : 43800
        },
        {
            "buffer" : 0,
            "byteLength" : 17496,
            "byteOffset" : 58400
        }
    ],
    "buffers" : [
        {
            "byteLength" : 75896,
            "uri" : "Bishop.bin"
        }
    ]
}
