{
    "asset" : {
        "copyright" : "rehcub",
        "generator" : "Khronos glTF Blender I/O v1.1.46",
        "version" : "2.0"
    },
    "scene" : 0,
    "scenes" : [
        {
            "name" : "Scene",
            "nodes" : [
                0
            ]
        }
    ],
    "nodes" : [
        {
            "mesh" : 0,
            "name" : "Knight",
            "rotation" : [
                0,
                0,
                -0.7071067690849304,
                0.7071068286895752
            ]
        }
    ],
    "materials" : [
        {
            "doubleSided" : true,
            "emissiveFactor" : [
                0,
                0,
                0
            ],
            "name" : "ChessBlack",
            "pbrMetallicRoughness" : {
                "baseColorFactor" : [
                    0,
                    0,
                    0,
                    1
                ],
                "metallicFactor" : 0,
                "roughnessFactor" : 0.800000011920929
            }
        }
    ],
    "meshes" : [
        {
            "name" : "Plane.001",
            "primitives" : [
                {
                    "attributes" : {
                        "POSITION" : 0,
                        "NORMAL" : 1,
                        "TEXCOORD_0" : 2
                    },
                    "indices" : 3,
                    "material" : 0
                }
            ]
        }
    ],
    "accessors" : [
        {
            "bufferView" : 0,
            "componentType" : 5126,
            "count" : 631,
            "max" : [
                4.03598647835679e-08,
                1.4628989696502686,
                1.5438430309295654
            ],
            "min" : [
                -5.918795585632324,
                -1.4628989696502686,
                -1.4628989696502686
            ],
            "type" : "VEC3"
        },
        {
            "bufferView" : 1,
            "componentType" : 5126,
            "count" : 631,
            "type" : "VEC3"
        },
        {
            "bufferView" : 2,
            "componentType" : 5126,
            "count" : 631,
            "type" : "VEC2"
        },
        {
            "bufferView" : 3,
            "componentType" : 5123,
            "count" : 3522,
            "type" : "SCALAR"
        }
    ],
    "bufferViews" : [
        {
            "buffer" : 0,
            "byteLength" : 7572,
            "byteOffset" : 0
        },
        {
            "buffer" : 0,
            "byteLength" : 7572,
            "byteOffset" : 7572
        },
        {
            "buffer" : 0,
            "byteLength" : 5048,
            "byteOffset" : 15144
        },
        {
            "buffer" : 0,
            "byteLength" : 7044,
            "byteOffset" : 20192
        }
    ],
    "buffers" : [
        {
            "byteLength" : 27236,
            "uri" : "Knight.bin"
        }
    ]
}
