<?xml version="1.0" encoding="utf-8"?><!-- Uploaded to: SVG Repo, www.svgrepo.com, Generator: SVG Repo Mixer Tools -->
<svg fill="#cccccc" width="800px" height="800px" viewBox="0 0 1920 1920" xmlns="http://www.w3.org/2000/svg">
    <path d="M1129.432 113v1694.148H903.545l-451.772-451.773V564.773L903.545 113h225.887Zm542.545 248.057C1832.017 521.097 1920 733.882 1920 960.107c0 226.226-87.983 438.898-248.023 598.938l-79.851-79.85c138.694-138.582 214.93-323.018 214.93-519.087 0-196.183-76.236-380.506-214.93-519.2ZM338.83 564.773v790.602H169.415C75.672 1355.375 0 1279.703 0 1185.96V734.187c0-93.742 75.672-169.414 169.415-169.414H338.83Zm1093.922 36.085c95.776 97.018 148.407 224.644 148.407 359.16 0 134.628-52.631 262.253-148.407 359.272l-80.303-79.174c74.656-75.897 115.767-175.4 115.767-280.099 0-104.585-41.111-204.088-115.767-279.986Z" fill-rule="evenodd"/>
</svg>
