<?xml version="1.0" encoding="UTF-8" standalone="no"?>
<!-- Generator: Adobe Illustrator 19.0.0, SVG Export Plug-In . SVG Version: 6.00 Build 0)  -->

<svg
   version="1.1"
   id="Layer_1"
   x="0px"
   y="0px"
   viewBox="0 0 390 390"
   style="enable-background:new 0 0 390 390;"
   xml:space="preserve"
   xmlns="http://www.w3.org/2000/svg"
   xmlns:svg="http://www.w3.org/2000/svg"
   xmlns:rdf="http://www.w3.org/1999/02/22-rdf-syntax-ns#"
   xmlns:cc="http://creativecommons.org/ns#"
   xmlns:dc="http://purl.org/dc/elements/1.1/"><metadata
   id="metadata45"><rdf:RDF><cc:Work
       rdf:about=""><dc:format>image/svg+xml</dc:format><dc:type
         rdf:resource="http://purl.org/dc/dcmitype/StillImage" /></cc:Work></rdf:RDF></metadata><defs
   id="defs43" />
<g
   id="g8"
   style="fill:#cccccc">
	<path
   d="M194.92,0C87.262,0.043,0,87.331,0,195c0,107.695,87.305,195,195,195c0.069,0,0.139,0,0.208,0   c9.678-0.01,16.796-9.172,14.472-18.566c-2.201-8.902-3.363-18.214-3.346-27.8c0.038-21.992,6.37-42.589,17.271-60.085   l-30.112-30.112c-14.192-0.5-27.466-6.253-37.563-16.35c-5.773-5.773-14.081-17.462-19.544-52.161   c-2.748-17.452-3.48-32.721-3.51-33.362l-0.815-17.541l17.541,0.815c0.642,0.029,15.91,0.762,33.362,3.51   c34.699,5.463,46.388,13.771,52.161,19.544c10.131,10.131,15.861,23.493,16.349,37.562l38.142,38.142   c9.765-2.798,20.052-4.329,30.67-4.39c16.439-0.096,32.08,3.269,46.24,9.409c8.978,3.893,19.201-1.702,20.811-11.354   c1.77-10.614,2.684-21.516,2.662-32.637C389.795,87.422,302.119-0.043,194.92,0z M78.046,266.029c-2.75,1.11-5.59,1.63-8.38,1.63   c-8.92,0-17.36-5.34-20.89-14.119c-4.63-11.53,0.96-24.631,12.5-29.271c11.53-4.63,24.63,0.97,29.26,12.5   C95.166,248.3,89.576,261.399,78.046,266.029z M93.776,145.939c-3.9,8-11.91,12.65-20.24,12.65c-3.31,0-6.67-0.73-9.84-2.28   c-11.17-5.439-15.82-18.91-10.37-30.08c0,0,0,0-0.01,0c5.45-11.17,18.91-15.81,30.09-10.37   C94.576,121.3,99.216,134.77,93.776,145.939z M147.766,298.98c5.93,0,11.72,2.4,15.91,6.59c4.19,4.181,6.59,9.98,6.59,15.91   c0,5.92-2.4,11.72-6.59,15.91c-4.19,4.18-9.98,6.58-15.91,6.58c-5.92,0-11.72-2.4-15.91-6.58c-4.19-4.19-6.59-9.99-6.59-15.91   c0-5.93,2.4-11.729,6.59-15.91C136.046,301.38,141.846,298.98,147.766,298.98z M163.196,87.069c-2.13,0.63-4.27,0.931-6.39,0.931   c-9.71,0-18.67-6.341-21.56-16.13c-3.52-11.921,3.28-24.431,15.2-27.95c11.92-3.521,24.43,3.29,27.95,15.2   C181.916,71.04,175.116,83.55,163.196,87.069z M284.186,91.449c-4.25,6.931-11.64,10.75-19.21,10.75   c-4.01,0-8.07-1.079-11.73-3.319c-10.6-6.5-13.92-20.351-7.43-30.94c6.49-10.6,20.34-13.92,30.94-7.43   S290.676,80.85,284.186,91.449z M343.456,185.23c-4.19,4.19-9.99,6.59-15.91,6.59s-11.72-2.399-15.91-6.59   c-4.19-4.18-6.59-9.979-6.59-15.91c0-5.92,2.4-11.72,6.59-15.91c4.19-4.18,9.99-6.59,15.91-6.59s11.72,2.41,15.91,6.59   c4.19,4.19,6.59,9.99,6.59,15.91C350.046,175.25,347.646,181.04,343.456,185.23z"
   id="path2"
   style="fill:#cccccc" />
	<path
   d="M248.631,215.235c-2.74,8.182-7.354,15.701-13.505,21.851c-6.148,6.15-13.668,10.763-21.851,13.504L321.94,359.254   c9.666,9.666,25.336,9.666,35.002,0l0.354-0.354c9.666-9.666,9.666-25.336,0-35.001L248.631,215.235z"
   id="path4"
   style="fill:#cccccc" />
	<path
   d="M223.813,169.204c-15.627-15.627-74.953-18.385-74.953-18.385s2.758,59.326,18.385,74.953   c8.931,8.931,21.03,12.756,32.682,11.469c8.726-0.962,17.197-4.78,23.886-11.469s10.508-15.16,11.469-23.886   C236.569,190.234,232.744,178.135,223.813,169.204z"
   id="path6"
   style="fill:#cccccc" />
</g>
</svg>
