<?xml version="1.0" encoding="UTF-8" standalone="no"?>
<!-- Generator: Adobe Illustrator 19.0.0, SVG Export Plug-In . SVG Version: 6.00 Build 0)  -->

<svg
   version="1.1"
   id="Capa_1"
   x="0px"
   y="0px"
   viewBox="0 0 491.2 491.2"
   style="enable-background:new 0 0 491.2 491.2;"
   xml:space="preserve"
   xmlns="http://www.w3.org/2000/svg"
   xmlns:svg="http://www.w3.org/2000/svg"><defs
   id="defs39" />
<g
   id="g4"
   style="fill:#cccccc">
	<path
   d="M470.3,0.55H20.9C9.4,0.55,0,9.95,0,21.45v448.3c0,11.5,9.4,20.9,20.9,20.9h143.9c11.5,0,20.9-9.4,20.9-18.8v-284.7h284.6   c11.5,0,20.9-9.4,20.9-20.9V21.45C491.1,9.95,481.7,0.55,470.3,0.55z M449.4,144.45H164.8c-11.5,0-20.9,9.4-20.9,20.9v284.6H40.7   v-92.8h20.9c10.4,0,19.8-8.3,20.9-20.9c0-11.5-9.4-20.9-20.9-20.9H40.7v-49h20.9c10.4,0,20.9-9.4,20.9-20.9s-9.4-20.9-20.9-20.9   H40.7v-50h20.9c10.4,0,19.8-9.4,20.9-20.9c0-11.5-9.4-20.9-20.9-20.9H40.7v-91.5h91.7v16.7c0,11.5,9.4,20.9,20.9,20.9   s20.9-9.4,20.9-20.9v-16.7h50v16.7c0,11.5,9.4,20.9,20.9,20.9s20.9-9.4,20.9-20.9v-16.7h50v16.7c0,11.5,9.4,20.9,20.9,20.9   s19.8-9.4,20.9-20.9v-16.7h91.7v103.2H449.4z"
   id="path2"
   style="fill:#cccccc" />
</g>
</svg>
