<?xml version="1.0" encoding="UTF-8" standalone="no"?>
<!-- Generator: Adobe Illustrator 19.0.0, SVG Export Plug-In . SVG Version: 6.00 Build 0)  -->

<svg
   xmlns:dc="http://purl.org/dc/elements/1.1/"
   xmlns:cc="http://creativecommons.org/ns#"
   xmlns:rdf="http://www.w3.org/1999/02/22-rdf-syntax-ns#"
   xmlns:svg="http://www.w3.org/2000/svg"
   xmlns="http://www.w3.org/2000/svg"
   xmlns:sodipodi="http://sodipodi.sourceforge.net/DTD/sodipodi-0.dtd"
   xmlns:inkscape="http://www.inkscape.org/namespaces/inkscape"
   version="1.1"
   id="Capa_1"
   x="0px"
   y="0px"
   viewBox="0 0 15.999999 15.999999"
   xml:space="preserve"
   sodipodi:docname="SearchIcon.svg"
   width="16"
   height="16"
   inkscape:version="0.92.5 (2060ec1f9f, 2020-04-08)"><metadata
   id="metadata43"><rdf:RDF><cc:Work
       rdf:about=""><dc:format>image/svg+xml</dc:format><dc:type
         rdf:resource="http://purl.org/dc/dcmitype/StillImage" /><dc:title></dc:title></cc:Work></rdf:RDF></metadata><defs
   id="defs41" /><sodipodi:namedview
   pagecolor="#ffffff"
   bordercolor="#666666"
   borderopacity="1"
   objecttolerance="10"
   gridtolerance="10"
   guidetolerance="10"
   inkscape:pageopacity="0"
   inkscape:pageshadow="2"
   inkscape:window-width="1920"
   inkscape:window-height="1015"
   id="namedview39"
   showgrid="false"
   fit-margin-top="0"
   fit-margin-left="0"
   fit-margin-right="0"
   fit-margin-bottom="0"
   inkscape:zoom="21.887776"
   inkscape:cx="2.0005752"
   inkscape:cy="10.918945"
   inkscape:window-x="0"
   inkscape:window-y="0"
   inkscape:window-maximized="1"
   inkscape:current-layer="Capa_1"
   inkscape:pagecheckerboard="true" />
<g
   id="g6"
   transform="matrix(0.03279024,0,0,0.03281715,0,-0.00655525)"
   style="fill:#ffffff">
	<g
   id="g4"
   style="fill:#ffffff">
		<path
   d="M 481.8,453 341.8,312.9 C 369.4,279.8 386,237.5 386,191.3 386,85.9 299.5,0.2 193.1,0.2 86.7,0.2 0,86 0,191.4 c 0,105.4 86.5,191.1 192.9,191.1 45.2,0 86.8,-15.5 119.8,-41.4 l 140.5,140.5 c 8.2,8.2 20.4,8.2 28.6,0 8.2,-8.2 8.2,-20.4 0,-28.6 z M 41,191.4 c 0,-82.8 68.2,-150.1 151.9,-150.1 83.7,0 151.9,67.3 151.9,150.1 0,82.8 -68.2,150.1 -151.9,150.1 C 109.2,341.5 41,274.1 41,191.4 Z"
   id="path2"
   inkscape:connector-curvature="0"
   style="fill:#ffffff" />
	</g>
</g>
<g
   id="g8"
   transform="matrix(0.03279024,0,0,0.03281715,0,-0.00655525)"
   style="fill:#ffffff">
</g>
<g
   id="g10"
   transform="matrix(0.03279024,0,0,0.03281715,0,-0.00655525)"
   style="fill:#ffffff">
</g>
<g
   id="g12"
   transform="matrix(0.03279024,0,0,0.03281715,0,-0.00655525)"
   style="fill:#ffffff">
</g>
<g
   id="g14"
   transform="matrix(0.03279024,0,0,0.03281715,0,-0.00655525)"
   style="fill:#ffffff">
</g>
<g
   id="g16"
   transform="matrix(0.03279024,0,0,0.03281715,0,-0.00655525)"
   style="fill:#ffffff">
</g>
<g
   id="g18"
   transform="matrix(0.03279024,0,0,0.03281715,0,-0.00655525)"
   style="fill:#ffffff">
</g>
<g
   id="g20"
   transform="matrix(0.03279024,0,0,0.03281715,0,-0.00655525)"
   style="fill:#ffffff">
</g>
<g
   id="g22"
   transform="matrix(0.03279024,0,0,0.03281715,0,-0.00655525)"
   style="fill:#ffffff">
</g>
<g
   id="g24"
   transform="matrix(0.03279024,0,0,0.03281715,0,-0.00655525)"
   style="fill:#ffffff">
</g>
<g
   id="g26"
   transform="matrix(0.03279024,0,0,0.03281715,0,-0.00655525)"
   style="fill:#ffffff">
</g>
<g
   id="g28"
   transform="matrix(0.03279024,0,0,0.03281715,0,-0.00655525)"
   style="fill:#ffffff">
</g>
<g
   id="g30"
   transform="matrix(0.03279024,0,0,0.03281715,0,-0.00655525)"
   style="fill:#ffffff">
</g>
<g
   id="g32"
   transform="matrix(0.03279024,0,0,0.03281715,0,-0.00655525)"
   style="fill:#ffffff">
</g>
<g
   id="g34"
   transform="matrix(0.03279024,0,0,0.03281715,0,-0.00655525)"
   style="fill:#ffffff">
</g>
<g
   id="g36"
   transform="matrix(0.03279024,0,0,0.03281715,0,-0.00655525)"
   style="fill:#ffffff">
</g>
</svg>