<?xml version="1.0" encoding="UTF-8"?>
<svg style="height:512px;width:512px" version="1.1" viewBox="0 0 512 512" xmlns="http://www.w3.org/2000/svg"><g class="" transform="translate(0)" style=""><path class="selected" d="m250.92 22.806c-23.36 3.1-44.58 30.5-44.58 66 0 19.5 6.78 36.8 16.69 48.8l11.79 14.2-18.2 3.4c-12.86 2.5-22.31 9.3-30.39 20.4-8.09 11.1-14.27 26.5-18.6 44.4-7.84 32.2-9.58 71.6-9.84 106.4h42.86l11.77 157.8c29.9 6.8 61.8 6.5 90.6 0l10.4-157.8h40.8c0-35.2-0.5-75.1-7.6-107.7-3.9-17.9-9.8-33.3-18-44.3s-18.1-17.7-32.6-20l-18.6-2.9 11.8-14.7c9.5-11.9 15.9-29 15.9-48 0-37.9-23.7-65.9-49.4-65.9z" fill="#ccc" data-darkreader-inline-fill=""/></g></svg>
