<?xml version="1.0" encoding="UTF-8" standalone="no"?>
<!-- Generator: Adobe Illustrator 18.0.0, SVG Export Plug-In . SVG Version: 6.00 Build 0)  -->

<svg
   version="1.1"
   id="Capa_1"
   x="0px"
   y="0px"
   viewBox="0 0 340 340"
   style="enable-background:new 0 0 340 340;"
   xml:space="preserve"
   xmlns="http://www.w3.org/2000/svg"
   xmlns:svg="http://www.w3.org/2000/svg"><defs
   id="defs41" />
<g
   id="g6"
   style="fill:#cccccc">
	<path
   d="M340,76.946c0-0.514-0.051-1.015-0.126-1.508c-0.003-6.125-1.315-24.269-15.574-39.654   c-14.222-15.345-36.47-23.125-66.128-23.125H81.722c-29.655,0-51.903,7.78-66.124,23.124C0.52,52.051-0.085,71.403,0.029,76.37   C0.018,76.562,0,76.752,0,76.946V135c0,7.733,2.106,14.98,5.762,21.212v161.129c0,5.523,4.478,10,10,10h185.754h73.355h49.367   c5.522,0,10-4.477,10-10V156.212C337.894,149.98,340,142.733,340,135V76.946z M20,135V86.946h43.964V135   c0,0.764,0.023,1.523,0.063,2.276c-1.142,11.106-10.551,19.797-21.951,19.797C29.902,157.073,20,147.171,20,135z M84.145,135   V86.946h43.779V135c0,0.772,0.024,1.538,0.066,2.3c-1.153,11.094-10.56,19.773-21.954,19.773c-11.402,0-20.812-8.691-21.954-19.797   C84.121,136.523,84.145,135.764,84.145,135z M148.109,135V86.946h43.781V135c0,0.772,0.024,1.538,0.066,2.3   c-1.155,11.094-10.56,19.773-21.956,19.773s-20.802-8.679-21.956-19.773C148.086,136.538,148.109,135.772,148.109,135z    M212.076,135V86.946h43.775V135c0,0.769,0.023,1.532,0.064,2.29c-1.15,11.099-10.556,19.783-21.952,19.783   c-11.394,0-20.799-8.679-21.953-19.773C212.052,136.538,212.076,135.772,212.076,135z M276.035,135V86.946H320V135   c0,12.171-9.903,22.073-22.076,22.073c-11.397,0-20.805-8.684-21.953-19.783C276.012,136.532,276.035,135.769,276.035,135z    M284.871,307.341V215.95c0-5.523-4.478-10-10-10h-73.355c-5.522,0-10,4.477-10,10v91.391H25.762V173.78   c5.02,2.12,10.532,3.293,16.314,3.293c12.789,0,24.256-5.745,31.979-14.782c7.723,9.037,19.189,14.782,31.98,14.782   c12.791,0,24.259-5.744,31.981-14.78c7.724,9.036,19.192,14.78,31.983,14.78s24.26-5.744,31.982-14.78   c7.724,9.036,19.191,14.78,31.981,14.78c12.79,0,24.257-5.745,31.979-14.781c7.723,9.036,19.189,14.781,31.98,14.781   c5.782,0,11.295-1.173,16.315-3.293v133.56H284.871z"
   id="path2"
   style="fill:#cccccc" />
	<path
   d="M155.109,205.95h-86.5c-5.522,0-10,4.477-10,10v50.095c0,5.523,4.477,10,10,10h86.5c5.522,0,10-4.477,10-10V215.95   C165.109,210.427,160.632,205.95,155.109,205.95z"
   id="path4"
   style="fill:#cccccc" />
</g>
</svg>
