{
	"asset":{
		"copyright":"Marcel Plagmann",
		"generator":"Khronos glTF Blender I/O v4.2.60",
		"version":"2.0"
	},
	"scene":0,
	"scenes":[
		{
			"name":"Scene",
			"nodes":[
				0
			]
		}
	],
	"nodes":[
		{
			"mesh":0,
			"name":"RedCup_RedCup_0"
		}
	],
	"materials":[
		{
			"name":"RedCup",
			"normalTexture":{
				"index":0
			},
			"occlusionTexture":{
				"index":1
			},
			"pbrMetallicRoughness":{
				"baseColorTexture":{
					"index":2
				},
				"metallicRoughnessTexture":{
					"index":1
				}
			}
		}
	],
	"meshes":[
		{
			"name":"RedCup_RedCup_0",
			"primitives":[
				{
					"attributes":{
						"POSITION":0,
						"NORMAL":1,
						"TEXCOORD_0":2,
						"TEXCOORD_1":3,
						"TEXCOORD_2":4
					},
					"indices":5,
					"material":0
				}
			]
		}
	],
	"textures":[
		{
			"sampler":0,
			"source":0
		},
		{
			"sampler":0,
			"source":1
		},
		{
			"sampler":0,
			"source":2
		}
	],
	"images":[
		{
			"mimeType":"image/png",
			"name":"00_red_cup_normal",
			"uri":"00_red_cup_normal.png"
		},
		{
			"mimeType":"image/png",
			"name":"00_red_cup_metallic_roughness",
			"uri":"00_red_cup_metallic_roughness.png"
		},
		{
			"mimeType":"image/png",
			"name":"00_red_cup_base_color",
			"uri":"00_red_cup_base_color.png"
		}
	],
	"accessors":[
		{
			"bufferView":0,
			"componentType":5126,
			"count":2043,
			"max":[
				5.010497570037842,
				6.041587829589844,
				5.010497570037842
			],
			"min":[
				-5.010497570037842,
				-6.041588306427002,
				-5.010497093200684
			],
			"type":"VEC3"
		},
		{
			"bufferView":1,
			"componentType":5126,
			"count":2043,
			"type":"VEC3"
		},
		{
			"bufferView":2,
			"componentType":5126,
			"count":2043,
			"type":"VEC2"
		},
		{
			"bufferView":3,
			"componentType":5126,
			"count":2043,
			"type":"VEC2"
		},
		{
			"bufferView":4,
			"componentType":5126,
			"count":2043,
			"type":"VEC2"
		},
		{
			"bufferView":5,
			"componentType":5123,
			"count":7224,
			"type":"SCALAR"
		}
	],
	"bufferViews":[
		{
			"buffer":0,
			"byteLength":24516,
			"byteOffset":0,
			"target":34962
		},
		{
			"buffer":0,
			"byteLength":24516,
			"byteOffset":24516,
			"target":34962
		},
		{
			"buffer":0,
			"byteLength":16344,
			"byteOffset":49032,
			"target":34962
		},
		{
			"buffer":0,
			"byteLength":16344,
			"byteOffset":65376,
			"target":34962
		},
		{
			"buffer":0,
			"byteLength":16344,
			"byteOffset":81720,
			"target":34962
		},
		{
			"buffer":0,
			"byteLength":14448,
			"byteOffset":98064,
			"target":34963
		}
	],
	"samplers":[
		{
			"magFilter":9729,
			"minFilter":9987
		}
	],
	"buffers":[
		{
			"byteLength":112512,
			"uri":"red_cup.bin"
		}
	]
}
