{
	"asset":{
		"copyright":"rehcub",
		"generator":"Khronos glTF Blender I/O v4.2.60",
		"version":"2.0"
	},
	"scene":0,
	"scenes":[
		{
			"name":"Scene",
			"nodes":[
				0
			]
		}
	],
	"nodes":[
		{
			"mesh":0,
			"name":"King"
		}
	],
	"materials":[
		{
			"doubleSided":true,
			"name":"ChessWhite",
			"pbrMetallicRoughness":{
				"baseColorFactor":[
					0.800000011920929,
					0.800000011920929,
					0.800000011920929,
					1
				],
				"metallicFactor":0,
				"roughnessFactor":0.800000011920929
			}
		}
	],
	"meshes":[
		{
			"name":"Cylinder.008",
			"primitives":[
				{
					"attributes":{
						"POSITION":0,
						"NORMAL":1,
						"TEXCOORD_0":2
					},
					"indices":3,
					"material":0
				}
			]
		}
	],
	"accessors":[
		{
			"bufferView":0,
			"componentType":5126,
			"count":2266,
			"max":[
				1.7259999513626099,
				4.025196552276611,
				1.7259999513626099
			],
			"min":[
				-1.7259999513626099,
				-4.0269999504089355,
				-1.7259999513626099
			],
			"type":"VEC3"
		},
		{
			"bufferView":1,
			"componentType":5126,
			"count":2266,
			"type":"VEC3"
		},
		{
			"bufferView":2,
			"componentType":5126,
			"count":2266,
			"type":"VEC2"
		},
		{
			"bufferView":3,
			"componentType":5123,
			"count":10746,
			"type":"SCALAR"
		}
	],
	"bufferViews":[
		{
			"buffer":0,
			"byteLength":27192,
			"byteOffset":0,
			"target":34962
		},
		{
			"buffer":0,
			"byteLength":27192,
			"byteOffset":27192,
			"target":34962
		},
		{
			"buffer":0,
			"byteLength":18128,
			"byteOffset":54384,
			"target":34962
		},
		{
			"buffer":0,
			"byteLength":21492,
			"byteOffset":72512,
			"target":34963
		}
	],
	"buffers":[
		{
			"byteLength":94004,
			"uri":"chess_king.bin"
		}
	]
}
