{
	"asset":{
		"copyright":"rehcub",
		"generator":"Khronos glTF Blender I/O v4.2.60",
		"version":"2.0"
	},
	"scene":0,
	"scenes":[
		{
			"name":"Scene",
			"nodes":[
				0
			]
		}
	],
	"nodes":[
		{
			"mesh":0,
			"name":"Rook"
		}
	],
	"materials":[
		{
			"doubleSided":true,
			"name":"ChessWhite",
			"pbrMetallicRoughness":{
				"baseColorFactor":[
					0.800000011920929,
					0.800000011920929,
					0.800000011920929,
					1
				],
				"metallicFactor":0,
				"roughnessFactor":0.800000011920929
			}
		}
	],
	"meshes":[
		{
			"name":"Cylinder.004",
			"primitives":[
				{
					"attributes":{
						"POSITION":0,
						"NORMAL":1,
						"TEXCOORD_0":2
					},
					"indices":3,
					"material":0
				}
			]
		}
	],
	"accessors":[
		{
			"bufferView":0,
			"componentType":5126,
			"count":1366,
			"max":[
				1.363143801689148,
				2.225797414779663,
				1.363143801689148
			],
			"min":[
				-1.363143801689148,
				-2.2269999980926514,
				-1.3631439208984375
			],
			"type":"VEC3"
		},
		{
			"bufferView":1,
			"componentType":5126,
			"count":1366,
			"type":"VEC3"
		},
		{
			"bufferView":2,
			"componentType":5126,
			"count":1366,
			"type":"VEC2"
		},
		{
			"bufferView":3,
			"componentType":5123,
			"count":6468,
			"type":"SCALAR"
		}
	],
	"bufferViews":[
		{
			"buffer":0,
			"byteLength":16392,
			"byteOffset":0,
			"target":34962
		},
		{
			"buffer":0,
			"byteLength":16392,
			"byteOffset":16392,
			"target":34962
		},
		{
			"buffer":0,
			"byteLength":10928,
			"byteOffset":32784,
			"target":34962
		},
		{
			"buffer":0,
			"byteLength":12936,
			"byteOffset":43712,
			"target":34963
		}
	],
	"buffers":[
		{
			"byteLength":56648,
			"uri":"chess_rook.bin"
		}
	]
}
