{
	"asset":{
		"copyright":"rehcub",
		"generator":"Khronos glTF Blender I/O v4.2.60",
		"version":"2.0"
	},
	"scene":0,
	"scenes":[
		{
			"name":"Scene",
			"nodes":[
				0
			]
		}
	],
	"nodes":[
		{
			"mesh":0,
			"name":"Queen"
		}
	],
	"materials":[
		{
			"doubleSided":true,
			"name":"ChessWhite",
			"pbrMetallicRoughness":{
				"baseColorFactor":[
					0.800000011920929,
					0.800000011920929,
					0.800000011920929,
					1
				],
				"metallicFactor":0,
				"roughnessFactor":0.800000011920929
			}
		}
	],
	"meshes":[
		{
			"name":"Cylinder.001",
			"primitives":[
				{
					"attributes":{
						"POSITION":0,
						"NORMAL":1,
						"TEXCOORD_0":2
					},
					"indices":3,
					"material":0
				}
			]
		}
	],
	"accessors":[
		{
			"bufferView":0,
			"componentType":5126,
			"count":2381,
			"max":[
				1.5912165641784668,
				3.357902765274048,
				1.5912165641784668
			],
			"min":[
				-1.591216802597046,
				-3.3589999675750732,
				-1.591216802597046
			],
			"type":"VEC3"
		},
		{
			"bufferView":1,
			"componentType":5126,
			"count":2381,
			"type":"VEC3"
		},
		{
			"bufferView":2,
			"componentType":5126,
			"count":2381,
			"type":"VEC2"
		},
		{
			"bufferView":3,
			"componentType":5123,
			"count":11706,
			"type":"SCALAR"
		}
	],
	"bufferViews":[
		{
			"buffer":0,
			"byteLength":28572,
			"byteOffset":0,
			"target":34962
		},
		{
			"buffer":0,
			"byteLength":28572,
			"byteOffset":28572,
			"target":34962
		},
		{
			"buffer":0,
			"byteLength":19048,
			"byteOffset":57144,
			"target":34962
		},
		{
			"buffer":0,
			"byteLength":23412,
			"byteOffset":76192,
			"target":34963
		}
	],
	"buffers":[
		{
			"byteLength":99604,
			"uri":"chess_queen.bin"
		}
	]
}
