{
	"asset":{
		"copyright":"rehcub",
		"generator":"Khronos glTF Blender I/O v4.2.60",
		"version":"2.0"
	},
	"scene":0,
	"scenes":[
		{
			"name":"Scene",
			"nodes":[
				0
			]
		}
	],
	"nodes":[
		{
			"mesh":0,
			"name":"Bishop"
		}
	],
	"materials":[
		{
			"doubleSided":true,
			"name":"ChessWhite",
			"pbrMetallicRoughness":{
				"baseColorFactor":[
					0.800000011920929,
					0.800000011920929,
					0.800000011920929,
					1
				],
				"metallicFactor":0,
				"roughnessFactor":0.800000011920929
			}
		}
	],
	"meshes":[
		{
			"name":"Cylinder.003",
			"primitives":[
				{
					"attributes":{
						"POSITION":0,
						"NORMAL":1,
						"TEXCOORD_0":2
					},
					"indices":3,
					"material":0
				}
			]
		}
	],
	"accessors":[
		{
			"bufferView":0,
			"componentType":5126,
			"count":1877,
			"max":[
				1.4620000123977661,
				3.070136785507202,
				1.4717477560043335
			],
			"min":[
				-1.4620000123977661,
				-3.069000005722046,
				-1.4717475175857544
			],
			"type":"VEC3"
		},
		{
			"bufferView":1,
			"componentType":5126,
			"count":1877,
			"type":"VEC3"
		},
		{
			"bufferView":2,
			"componentType":5126,
			"count":1877,
			"type":"VEC2"
		},
		{
			"bufferView":3,
			"componentType":5123,
			"count":8748,
			"type":"SCALAR"
		}
	],
	"bufferViews":[
		{
			"buffer":0,
			"byteLength":22524,
			"byteOffset":0,
			"target":34962
		},
		{
			"buffer":0,
			"byteLength":22524,
			"byteOffset":22524,
			"target":34962
		},
		{
			"buffer":0,
			"byteLength":15016,
			"byteOffset":45048,
			"target":34962
		},
		{
			"buffer":0,
			"byteLength":17496,
			"byteOffset":60064,
			"target":34963
		}
	],
	"buffers":[
		{
			"byteLength":77560,
			"uri":"chess_bishop.bin"
		}
	]
}
