{
	"asset":{
		"generator":"Khronos glTF Blender I/O v4.2.60",
		"version":"2.0"
	},
	"scene":0,
	"scenes":[
		{
			"name":"Scene",
			"nodes":[
				0
			]
		}
	],
	"nodes":[
		{
			"mesh":0,
			"name":"gramophone"
		}
	],
	"materials":[
		{
			"doubleSided":true,
			"name":"Gramophone",
			"pbrMetallicRoughness":{
				"baseColorTexture":{
					"index":0
				},
				"metallicFactor":0,
				"roughnessFactor":0
			}
		}
	],
	"meshes":[
		{
			"name":"Cube.002",
			"primitives":[
				{
					"attributes":{
						"POSITION":0,
						"NORMAL":1,
						"TEXCOORD_0":2
					},
					"indices":3,
					"material":0
				}
			]
		}
	],
	"textures":[
		{
			"sampler":0,
			"source":0
		}
	],
	"images":[
		{
			"mimeType":"image/png",
			"name":"00_gramophone",
			"uri":"00_gramophone.png"
		}
	],
	"accessors":[
		{
			"bufferView":0,
			"componentType":5126,
			"count":3634,
			"max":[
				12.632259368896484,
				26.023622512817383,
				14.57027530670166
			],
			"min":[
				-9.696548461914062,
				-6.767178058624268,
				-10.473342895507812
			],
			"type":"VEC3"
		},
		{
			"bufferView":1,
			"componentType":5126,
			"count":3634,
			"type":"VEC3"
		},
		{
			"bufferView":2,
			"componentType":5126,
			"count":3634,
			"type":"VEC2"
		},
		{
			"bufferView":3,
			"componentType":5123,
			"count":5238,
			"type":"SCALAR"
		}
	],
	"bufferViews":[
		{
			"buffer":0,
			"byteLength":43608,
			"byteOffset":0,
			"target":34962
		},
		{
			"buffer":0,
			"byteLength":43608,
			"byteOffset":43608,
			"target":34962
		},
		{
			"buffer":0,
			"byteLength":29072,
			"byteOffset":87216,
			"target":34962
		},
		{
			"buffer":0,
			"byteLength":10476,
			"byteOffset":116288,
			"target":34963
		}
	],
	"samplers":[
		{
			"magFilter":9729,
			"minFilter":9987
		}
	],
	"buffers":[
		{
			"byteLength":126764,
			"uri":"gramophone.bin"
		}
	]
}
