# Blender v3.4.1 OBJ File: ''
# www.blender.org
mtllib Go Board (Small).mtl
o Cube_Cube.002
v -14.600000 -4.500000 15.600000
v -14.600000 4.500000 15.600000
v -14.600000 -4.500000 -15.600000
v -14.600000 4.500000 -15.600000
v 14.600000 -4.500000 15.600000
v 14.600000 4.500000 15.600000
v 14.600000 -4.500000 -15.600000
v 14.600000 4.500000 -15.600000
vt 0.010000 0.010000
vt 0.490000 0.010000
vt 0.490000 0.020000
vt 0.010000 0.020000
vt 0.010000 0.010000
vt 0.490000 0.010000
vt 0.490000 0.020000
vt 0.010000 0.020000
vt 0.010000 0.010000
vt 0.490000 0.010000
vt 0.490000 0.020000
vt 0.010000 0.020000
vt 0.010000 0.010000
vt 0.490000 0.010000
vt 0.490000 0.020000
vt 0.010000 0.020000
vt 0.500000 0.000000
vt 1.000000 0.000000
vt 1.000000 1.000000
vt 0.500000 1.000000
vt 0.000000 0.000000
vt 0.500000 0.000000
vt 0.500000 1.000000
vt 0.000000 1.000000
vn -1.0000 0.0000 0.0000
vn 0.0000 0.0000 -1.0000
vn 1.0000 0.0000 0.0000
vn 0.0000 0.0000 1.0000
vn 0.0000 -1.0000 0.0000
vn 0.0000 1.0000 0.0000
usemtl GoBoardSmall
s off
f 1/1/1 2/2/1 4/3/1 3/4/1
f 3/5/2 4/6/2 8/7/2 7/8/2
f 7/9/3 8/10/3 6/11/3 5/12/3
f 5/13/4 6/14/4 2/15/4 1/16/4
f 3/17/5 7/18/5 5/19/5 1/20/5
f 8/21/6 4/22/6 2/23/6 6/24/6
