<?xml version="1.0" encoding="UTF-8" standalone="no"?>
<!-- Generator: Adobe Illustrator 18.1.1, SVG Export Plug-In . SVG Version: 6.00 Build 0)  -->

<svg
   enable-background="new 0 0 193.899 193.899"
   version="1.1"
   viewBox="0 0 193.9 193.9"
   xml:space="preserve"
   id="svg10"
   xmlns="http://www.w3.org/2000/svg"
   xmlns:svg="http://www.w3.org/2000/svg"><defs
   id="defs14" />

	<g
   fill="#010002"
   id="g8"
   style="fill:#cccccc">
		<path
   d="M95.738,53.463C82.295,36.279,73.572,22.304,56.614,0c-4.857,0.943-15.961,10.496-10.311,15.466    C57.455,30.729,80.266,44.053,95.738,53.463z"
   id="path2"
   style="fill:#cccccc" />
		<path
   d="m114.48 63.028c-7.208-15.568-15.161-30.306-24.362-47.568-5.149 0.907-9.141 4.028-9.022 9.022 6.575 11.122 11.45 27.782 33.384 38.546z"
   id="path4"
   style="fill:#cccccc" />
		
		<path
   d="m81.096 47.675c-16.069-9.368-33.212-19.738-56.697-33.498-4.32 5.424-7.912 13.831-1.635 18.951 15.156 12.363 31.922 23.307 42.818 28.182 10.347 4.63 24.78 6.534 50.307 13.431-24.434-2.81-38.325-6.08-50.253-3.867-23.558 4.398-38.672 25.276-34.793 42.526 2.822 2.804 7.465 3.968 11.254 3.479 0-0.048-0.012-0.09-0.012-0.125 0-16.212 13.133-29.345 29.339-29.345 16.212 0 29.345 13.139 29.345 29.345 0 16.218-13.145 29.345-29.345 29.345-14.858 0-27-11.069-28.945-25.407-5.161-2.56-20.365-0.316-18.08 6.88 16.176 51.088 71.59 35.342 107.31 66.328l42.812-42.818c-16.391-19.488-20.019-46.201-38.015-66.035-13.962-15.396-36.654-26.434-55.408-37.372z"
   id="path6"
   style="fill:#cccccc" />
	</g>
</svg>
