<?xml version="1.0" encoding="UTF-8" standalone="no"?>
<svg
   xmlns:dc="http://purl.org/dc/elements/1.1/"
   xmlns:cc="http://creativecommons.org/ns#"
   xmlns:rdf="http://www.w3.org/1999/02/22-rdf-syntax-ns#"
   xmlns:svg="http://www.w3.org/2000/svg"
   xmlns="http://www.w3.org/2000/svg"
   xmlns:sodipodi="http://sodipodi.sourceforge.net/DTD/sodipodi-0.dtd"
   xmlns:inkscape="http://www.inkscape.org/namespaces/inkscape"
   version="1.1"
   id="Capa_1"
   x="0px"
   y="0px"
   viewBox="0 0 612 612"
   style="enable-background:new 0 0 612 612;"
   xml:space="preserve"
   sodipodi:docname="HiddenAreaIcon.svg"
   inkscape:version="1.0.2 (1.0.2+r75+1)"><metadata
   id="metadata45"><rdf:RDF><cc:Work
       rdf:about=""><dc:format>image/svg+xml</dc:format><dc:type
         rdf:resource="http://purl.org/dc/dcmitype/StillImage" /><dc:title></dc:title></cc:Work></rdf:RDF></metadata><defs
   id="defs43" /><sodipodi:namedview
   pagecolor="#ffffff"
   bordercolor="#666666"
   borderopacity="1"
   objecttolerance="10"
   gridtolerance="10"
   guidetolerance="10"
   inkscape:pageopacity="0"
   inkscape:pageshadow="2"
   inkscape:window-width="1920"
   inkscape:window-height="1015"
   id="namedview41"
   showgrid="false"
   inkscape:snap-bbox="true"
   inkscape:snap-bbox-midpoints="true"
   inkscape:zoom="0.97516033"
   inkscape:cx="243.91856"
   inkscape:cy="320.73047"
   inkscape:window-x="0"
   inkscape:window-y="0"
   inkscape:window-maximized="1"
   inkscape:current-layer="Capa_1" />
<g
   id="g8">
	<g
   id="g6">
		<path
   d="M609.608,315.426c3.19-5.874,3.19-12.979,0-18.853c-58.464-107.643-172.5-180.72-303.607-180.72    S60.857,188.931,2.393,296.573c-3.19,5.874-3.19,12.979,0,18.853C60.858,423.069,174.892,496.147,306,496.147    S551.143,423.069,609.608,315.426z M306,451.855c-80.554,0-145.855-65.302-145.855-145.855S225.446,160.144,306,160.144    S451.856,225.446,451.856,306S386.554,451.855,306,451.855z"
   id="path2" />
		<path
   d="M306,231.67c-6.136,0-12.095,0.749-17.798,2.15c5.841,6.76,9.383,15.563,9.383,25.198c0,21.3-17.267,38.568-38.568,38.568    c-9.635,0-18.438-3.541-25.198-9.383c-1.401,5.703-2.15,11.662-2.15,17.798c0,41.052,33.279,74.33,74.33,74.33    s74.33-33.279,74.33-74.33S347.052,231.67,306,231.67z"
   id="path4" />
	</g>
</g>
<g
   id="g10">
</g>
<g
   id="g12">
</g>
<g
   id="g14">
</g>
<g
   id="g16">
</g>
<g
   id="g18">
</g>
<g
   id="g20">
</g>
<g
   id="g22">
</g>
<g
   id="g24">
</g>
<g
   id="g26">
</g>
<g
   id="g28">
</g>
<g
   id="g30">
</g>
<g
   id="g32">
</g>
<g
   id="g34">
</g>
<g
   id="g36">
</g>
<g
   id="g38">
</g>
<path
   style="fill:none;stroke:#000000;stroke-width:37.5636;stroke-linecap:butt;stroke-linejoin:miter;stroke-miterlimit:4;stroke-dasharray:none;stroke-opacity:1"
   d="M 53.717921,558.28259 558.28308,53.717408"
   id="path870" /></svg>
