<?xml version="1.0" encoding="UTF-8" standalone="no"?>
<!-- Generator: Adobe Illustrator 18.1.1, SVG Export Plug-In . SVG Version: 6.00 Build 0)  -->

<svg
   xmlns:dc="http://purl.org/dc/elements/1.1/"
   xmlns:cc="http://creativecommons.org/ns#"
   xmlns:rdf="http://www.w3.org/1999/02/22-rdf-syntax-ns#"
   xmlns:svg="http://www.w3.org/2000/svg"
   xmlns="http://www.w3.org/2000/svg"
   xmlns:sodipodi="http://sodipodi.sourceforge.net/DTD/sodipodi-0.dtd"
   xmlns:inkscape="http://www.inkscape.org/namespaces/inkscape"
   version="1.1"
   id="Capa_1"
   x="0px"
   y="0px"
   viewBox="0 0 612 612"
   style="enable-background:new 0 0 612 612;"
   xml:space="preserve"
   sodipodi:docname="HiddenAreaIconPressed.svg"
   inkscape:version="0.92.5 (2060ec1f9f, 2020-04-08)"><metadata
   id="metadata45"><rdf:RDF><cc:Work
       rdf:about=""><dc:format>image/svg+xml</dc:format><dc:type
         rdf:resource="http://purl.org/dc/dcmitype/StillImage" /><dc:title></dc:title></cc:Work></rdf:RDF></metadata><defs
   id="defs43" /><sodipodi:namedview
   pagecolor="#ffffff"
   bordercolor="#666666"
   borderopacity="1"
   objecttolerance="10"
   gridtolerance="10"
   guidetolerance="10"
   inkscape:pageopacity="0"
   inkscape:pageshadow="2"
   inkscape:window-width="1920"
   inkscape:window-height="1015"
   id="namedview41"
   showgrid="false"
   inkscape:snap-bbox="true"
   inkscape:snap-bbox-midpoints="true"
   inkscape:zoom="1.0907007"
   inkscape:cx="241.90965"
   inkscape:cy="301.18383"
   inkscape:window-x="0"
   inkscape:window-y="0"
   inkscape:window-maximized="1"
   inkscape:current-layer="Capa_1" />
<rect
   style="fill:#ffffff;fill-opacity:0;stroke:#ffffff;stroke-width:10.69885063;stroke-miterlimit:4;stroke-dasharray:none;stroke-opacity:1"
   id="rect854"
   width="601.30115"
   height="601.30115"
   x="5.3494253"
   y="5.3494272" /><g
   id="g8"
   transform="matrix(0.9,0,0,0.9,30.60005,30.6)"
   style="fill:#ffffff">
	<g
   id="g6"
   style="fill:#ffffff">
		<path
   d="m 609.608,315.426 c 3.19,-5.874 3.19,-12.979 0,-18.853 -58.464,-107.643 -172.5,-180.72 -303.607,-180.72 -131.107,0 -245.144,73.078 -303.608,180.72 -3.19,5.874 -3.19,12.979 0,18.853 58.465,107.643 172.499,180.721 303.607,180.721 131.108,0 245.143,-73.078 303.608,-180.721 z M 306,451.855 c -80.554,0 -145.855,-65.302 -145.855,-145.855 0,-80.553 65.301,-145.856 145.855,-145.856 80.554,0 145.856,65.302 145.856,145.856 0,80.554 -65.302,145.855 -145.856,145.855 z"
   id="path2"
   inkscape:connector-curvature="0"
   style="fill:#ffffff" />
		<path
   d="m 306,231.67 c -6.136,0 -12.095,0.749 -17.798,2.15 5.841,6.76 9.383,15.563 9.383,25.198 0,21.3 -17.267,38.568 -38.568,38.568 -9.635,0 -18.438,-3.541 -25.198,-9.383 -1.401,5.703 -2.15,11.662 -2.15,17.798 0,41.052 33.279,74.33 74.33,74.33 41.051,0 74.33,-33.279 74.33,-74.33 0,-41.051 -33.277,-74.331 -74.329,-74.331 z"
   id="path4"
   inkscape:connector-curvature="0"
   style="fill:#ffffff" />
	</g>
</g>
<g
   id="g10"
   transform="matrix(0.9,0,0,0.9,30.60005,30.6)">
</g>
<g
   id="g12"
   transform="matrix(0.9,0,0,0.9,30.60005,30.6)">
</g>
<g
   id="g14"
   transform="matrix(0.9,0,0,0.9,30.60005,30.6)">
</g>
<g
   id="g16"
   transform="matrix(0.9,0,0,0.9,30.60005,30.6)">
</g>
<g
   id="g18"
   transform="matrix(0.9,0,0,0.9,30.60005,30.6)">
</g>
<g
   id="g20"
   transform="matrix(0.9,0,0,0.9,30.60005,30.6)">
</g>
<g
   id="g22"
   transform="matrix(0.9,0,0,0.9,30.60005,30.6)">
</g>
<g
   id="g24"
   transform="matrix(0.9,0,0,0.9,30.60005,30.6)">
</g>
<g
   id="g26"
   transform="matrix(0.9,0,0,0.9,30.60005,30.6)">
</g>
<g
   id="g28"
   transform="matrix(0.9,0,0,0.9,30.60005,30.6)">
</g>
<g
   id="g30"
   transform="matrix(0.9,0,0,0.9,30.60005,30.6)">
</g>
<g
   id="g32"
   transform="matrix(0.9,0,0,0.9,30.60005,30.6)">
</g>
<g
   id="g34"
   transform="matrix(0.9,0,0,0.9,30.60005,30.6)">
</g>
<g
   id="g36"
   transform="matrix(0.9,0,0,0.9,30.60005,30.6)">
</g>
<g
   id="g38"
   transform="matrix(0.9,0,0,0.9,30.60005,30.6)">
</g>
<path
   style="fill:none;stroke:#ffffff;stroke-width:22.5;stroke-linecap:butt;stroke-linejoin:miter;stroke-miterlimit:4;stroke-dasharray:none;stroke-opacity:1"
   d="M 500.94399,111.0565 111.057,500.94349"
   id="path852"
   inkscape:connector-curvature="0" /></svg>