<?xml version="1.0" encoding="UTF-8" standalone="no"?>
<!-- Generator: Adobe Illustrator 19.0.0, SVG Export Plug-In . SVG Version: 6.00 Build 0)  -->

<svg
   xmlns:dc="http://purl.org/dc/elements/1.1/"
   xmlns:cc="http://creativecommons.org/ns#"
   xmlns:rdf="http://www.w3.org/1999/02/22-rdf-syntax-ns#"
   xmlns:svg="http://www.w3.org/2000/svg"
   xmlns="http://www.w3.org/2000/svg"
   xmlns:sodipodi="http://sodipodi.sourceforge.net/DTD/sodipodi-0.dtd"
   xmlns:inkscape="http://www.inkscape.org/namespaces/inkscape"
   version="1.1"
   id="Capa_1"
   x="0px"
   y="0px"
   viewBox="0 0 491.2 491.2"
   style="enable-background:new 0 0 491.2 491.2;"
   xml:space="preserve"
   sodipodi:docname="RulerIconPressed.svg"
   inkscape:version="0.92.5 (2060ec1f9f, 2020-04-08)"><metadata
   id="metadata41"><rdf:RDF><cc:Work
       rdf:about=""><dc:format>image/svg+xml</dc:format><dc:type
         rdf:resource="http://purl.org/dc/dcmitype/StillImage" /><dc:title></dc:title></cc:Work></rdf:RDF></metadata><defs
   id="defs39" /><sodipodi:namedview
   pagecolor="#ffffff"
   bordercolor="#666666"
   borderopacity="1"
   objecttolerance="10"
   gridtolerance="10"
   guidetolerance="10"
   inkscape:pageopacity="0"
   inkscape:pageshadow="2"
   inkscape:window-width="1920"
   inkscape:window-height="1015"
   id="namedview37"
   showgrid="false"
   inkscape:zoom="0.48045601"
   inkscape:cx="245.60001"
   inkscape:cy="245.60001"
   inkscape:window-x="0"
   inkscape:window-y="0"
   inkscape:window-maximized="1"
   inkscape:current-layer="Capa_1" />
<g
   id="g4"
   style="fill:#ffffff">
	<path
   d="M470.3,0.55H20.9C9.4,0.55,0,9.95,0,21.45v448.3c0,11.5,9.4,20.9,20.9,20.9h143.9c11.5,0,20.9-9.4,20.9-18.8v-284.7h284.6   c11.5,0,20.9-9.4,20.9-20.9V21.45C491.1,9.95,481.7,0.55,470.3,0.55z M449.4,144.45H164.8c-11.5,0-20.9,9.4-20.9,20.9v284.6H40.7   v-92.8h20.9c10.4,0,19.8-8.3,20.9-20.9c0-11.5-9.4-20.9-20.9-20.9H40.7v-49h20.9c10.4,0,20.9-9.4,20.9-20.9s-9.4-20.9-20.9-20.9   H40.7v-50h20.9c10.4,0,19.8-9.4,20.9-20.9c0-11.5-9.4-20.9-20.9-20.9H40.7v-91.5h91.7v16.7c0,11.5,9.4,20.9,20.9,20.9   s20.9-9.4,20.9-20.9v-16.7h50v16.7c0,11.5,9.4,20.9,20.9,20.9s20.9-9.4,20.9-20.9v-16.7h50v16.7c0,11.5,9.4,20.9,20.9,20.9   s19.8-9.4,20.9-20.9v-16.7h91.7v103.2H449.4z"
   id="path2"
   style="fill:#ffffff" />
</g>
<g
   id="g6">
</g>
<g
   id="g8">
</g>
<g
   id="g10">
</g>
<g
   id="g12">
</g>
<g
   id="g14">
</g>
<g
   id="g16">
</g>
<g
   id="g18">
</g>
<g
   id="g20">
</g>
<g
   id="g22">
</g>
<g
   id="g24">
</g>
<g
   id="g26">
</g>
<g
   id="g28">
</g>
<g
   id="g30">
</g>
<g
   id="g32">
</g>
<g
   id="g34">
</g>
</svg>