{
    "asset" : {
        "copyright" : "facehunter2003",
        "generator" : "Khronos glTF Blender I/O v1.8.19",
        "version" : "2.0"
    },
    "scene" : 0,
    "scenes" : [
        {
            "name" : "Scene",
            "nodes" : [
                0
            ]
        }
    ],
    "nodes" : [
        {
            "mesh" : 0,
            "name" : "d10_Percent"
        }
    ],
    "materials" : [
        {
            "doubleSided" : true,
            "name" : "d10_percent",
            "pbrMetallicRoughness" : {
                "baseColorTexture" : {
                    "index" : 0
                },
                "metallicFactor" : 0,
                "roughnessFactor" : 0.5
            }
        }
    ],
    "meshes" : [
        {
            "name" : "Solid.005",
            "primitives" : [
                {
                    "attributes" : {
                        "POSITION" : 0,
                        "NORMAL" : 1,
                        "TEXCOORD_0" : 2
                    },
                    "indices" : 3,
                    "material" : 0
                }
            ]
        }
    ],
    "textures" : [
        {
            "sampler" : 0,
            "source" : 0
        }
    ],
    "images" : [
        {
            "mimeType" : "image/png",
            "name" : "d10_Percent_Numbers",
            "uri" : "d10_Percent_Numbers.png"
        }
    ],
    "accessors" : [
        {
            "bufferView" : 0,
            "componentType" : 5126,
            "count" : 40,
            "max" : [
                0.8947421312332153,
                0.9737034440040588,
                0.9341723322868347
            ],
            "min" : [
                -0.8947396278381348,
                -0.9737035036087036,
                -0.9341723322868347
            ],
            "type" : "VEC3"
        },
        {
            "bufferView" : 1,
            "componentType" : 5126,
            "count" : 40,
            "type" : "VEC3"
        },
        {
            "bufferView" : 2,
            "componentType" : 5126,
            "count" : 40,
            "type" : "VEC2"
        },
        {
            "bufferView" : 3,
            "componentType" : 5123,
            "count" : 60,
            "type" : "SCALAR"
        }
    ],
    "bufferViews" : [
        {
            "buffer" : 0,
            "byteLength" : 480,
            "byteOffset" : 0
        },
        {
            "buffer" : 0,
            "byteLength" : 480,
            "byteOffset" : 480
        },
        {
            "buffer" : 0,
            "byteLength" : 320,
            "byteOffset" : 960
        },
        {
            "buffer" : 0,
            "byteLength" : 120,
            "byteOffset" : 1280
        }
    ],
    "samplers" : [
        {
            "magFilter" : 9729,
            "minFilter" : 9987
        }
    ],
    "buffers" : [
        {
            "byteLength" : 1400,
            "uri" : "d10.bin"
        }
    ]
}
