<?xml version="1.0" encoding="UTF-8"?>
<!-- Created with Inkscape (http://www.inkscape.org/) -->
<svg width="5in" height="7in" version="1.1" viewBox="0 0 127 177.8" xml:space="preserve" xmlns="http://www.w3.org/2000/svg" xmlns:cc="http://creativecommons.org/ns#" xmlns:rdf="http://www.w3.org/1999/02/22-rdf-syntax-ns#"><rect y="4.4409e-16" width="127" height="177.8" stroke-width=".52718"/><g transform="matrix(.15992 0 0 .15992 22.627 49.144)"><g class=""><path d="m255.56 22.094c-126.81 0-229.59 102.78-229.59 229.59 0 25.4 4.132 49.846 11.75 72.687 40.154-24.203 76.02-41.17 107.56-52.03-35.752 5.615-66.405 23.66-109.84 4 31.552-27.765 87.682-65.842 138.53-71.658 26.58-21.615 68.113-43.962 89.655-37.28 30.492-26.873 67.982-61.093 108.12-85.75 10.667 16.156 17.124 35.94 12.563 57.874-80.37 20.205-61.692 148.93 13.468 67.44 6.348 13.064 9.41 26.665 9.095 41.436-32.675 33.83-66.97 63.026-101.94 87.906 0.466 23.99-5.605 52.915-19 84.813-5.635 13.42-7.33 36.406 22.875 53.97 101.14-24.012 176.38-114.92 176.38-223.41 0-126.81-102.82-229.59-229.62-229.59zm3.312 164.38c-17.835 2.22-32.794 9.046-45.844 18.968 12.083-0.036 25.612 2.882 37.5 6.156 6.208-6.698 10.236-18.52 8.345-25.125z" fill="#fff" data-darkreader-inline-fill=""/></g></g></svg>
