<?xml version="1.0" encoding="UTF-8"?>
<!-- Created with Inkscape (http://www.inkscape.org/) -->
<svg width="5in" height="7in" version="1.1" viewBox="0 0 127 177.8" xml:space="preserve" xmlns="http://www.w3.org/2000/svg" xmlns:cc="http://creativecommons.org/ns#" xmlns:rdf="http://www.w3.org/1999/02/22-rdf-syntax-ns#"><rect y="4.4409e-16" width="127" height="177.8" stroke-width=".52718"/><g transform="scale(1.0002 .99983)" fill="#008000" stroke-width=".52926" aria-label="Seer"><path d="m43.843 152.33c1.863 1.0839 3.6582 1.6259 5.3857 1.6259 3.7599 0 6.1648-2.6759 6.1648-6.4358 0-2.4727-0.81294-3.8276-2.7098-6.1309-0.67745-0.84681-2.5743-2.5066-5.0131-4.7422-1.2533-1.1178-2.134-2.4388-2.134-3.455 0-1.4904 1.2872-2.6759 2.7437-2.6759 0.98231 0 2.0324 0.44034 3.2179 1.2194l0.60971 3.8276 4.7083-8.231-4.3696 1.3549c-1.6598-1.0839-3.2518-1.6598-4.8777-1.6598-3.4211 0-5.86 2.5066-5.86 5.8261 0 3.726 3.8953 6.8084 7.2826 9.9247 1.7614 1.6259 2.5404 3.4211 2.5404 4.8776 0 1.5243-1.0839 2.8792-2.6421 2.8792-0.9823 0-2.3711-0.44034-4.0986-1.2872l-0.67745-3.7937-4.6744 8.231z"/><path d="m64.573 150.46 2.1678-5.1486-3.3534 2.4388h-3.9292l0.20324-5.9616 1.1517-0.33872 2.134 1.5581 2.1678-3.2179h-5.2841l0.30485-5.1486c1.3888 0 4.0647 0.74519 4.4373 1.4565l1.6259-3.3534h-10.873l1.8969 1.8969 0.50809 15.818z"/><path d="m75.378 150.46 2.1678-5.1486-3.3534 2.4388h-3.9292l0.20324-5.9616 1.1517-0.33872 2.134 1.5581 2.1678-3.2179h-5.2841l0.30485-5.1486c1.3888 0 4.0647 0.74519 4.4373 1.4565l1.6259-3.3534h-10.873l1.8969 1.8969 0.50809 15.818z"/><path d="m87.538 150.63-4.0647-8.9085c2.3711-1.321 3.5566-2.913 3.5566-4.8099 0-2.5743-2.7098-4.1663-6.6729-4.1663h-3.7599l1.8969 1.8969 0.54196 15.818h1.321l0.47422-7.6213 0.10162-0.0339zm-6.1648-15.988c1.6598 0 3.0147 0.81294 3.0147 2.405 0 1.6259-1.1517 2.9469-3.4211 4.0308z"/></g><g transform="matrix(.19949 0 0 .19947 12.74 8.5611)" fill="#008000"><g class="" fill="#008000"><path d="m254.56 20.75c-42.96 0-85.918 16.387-118.69 49.156-65.54 65.54-65.852 172.15-0.313 237.69 65.54 65.54 172.15 65.226 237.69-0.313 65.54-65.538 65.54-171.84 0-237.37-32.77-32.77-75.728-49.156-118.69-49.156zm-0.157 18.47c25.68 0.053 51.363 6.724 74.313 19.968-13.573-3.984-26.266-2.455-34.22 5.5-14.437 14.437-7.796 44.485 14.813 67.093 22.608 22.61 52.625 29.22 67.062 14.782 8.523-8.522 9.706-22.468 4.594-37.125 36.352 57.684 29.586 134.6-20.69 184.88-29.158 29.16-67.353 43.773-105.56 43.813 9.436-2.3 17.762-6.732 24.436-13.406 28.885-28.886 15.64-88.954-29.594-134.19-45.234-45.233-105.3-58.51-134.19-29.624-4.052 4.052-7.266 8.723-9.688 13.875 3.092-33.537 17.473-66.222 43.157-91.905 29.198-29.2 67.384-43.737 105.56-43.656zm132.56 280.06c-0.205 0.206-0.39 0.422-0.595 0.626-72.78 72.78-191.25 73.155-264.03 0.375-0.278-0.275-0.54-0.565-0.814-0.842-11.987 9.483-18.81 20.384-18.81 32 0 36.523 67.315 66.125 151.34 66.125 84.027 0 152.09-29.6 152.09-66.125 0-11.68-6.97-22.637-19.187-32.157zm39.717 54.564c-22.225 32.29-91.192 55.906-172.62 55.906-81.172 0-149.95-23.46-172.41-55.594-12.638 11.3-19.72 24.052-19.72 37.563 2e-3 46.928 85.546 85.03 192.06 85.03s192.97-38.1 192.97-85.03c0-13.637-7.313-26.498-20.283-37.876z" fill="#008000" data-darkreader-inline-fill=""/></g></g></svg>
