<?xml version="1.0" encoding="UTF-8"?>
<!-- Created with Inkscape (http://www.inkscape.org/) -->
<svg width="5in" height="7in" version="1.1" viewBox="0 0 127 177.8" xml:space="preserve" xmlns="http://www.w3.org/2000/svg" xmlns:cc="http://creativecommons.org/ns#" xmlns:rdf="http://www.w3.org/1999/02/22-rdf-syntax-ns#"><rect y="4.4409e-16" width="127" height="177.8" stroke-width=".52718"/><g transform="matrix(.18404 0 0 .18398 20.559 14.994)" fill="#d40000"><g class="" fill="#d40000"><path d="m317.89 481.22h-79.318c-17.24-19.952-46.972-25.794 25.136-118.42 12.088-15.528-46.796-47.858-56.975-35.75-28.683 46.058-50.585 105.18-120.65 71.499-6.986 26.338 4.46 54.395 10.054 82.67h-94.4c16.02-47.83 23.117-100.96 70.94-127.92l40.776 20.109c-1.342-16.2-2.167-32.398 1.676-48.597-120.4-30.952-104.49-70.512-112.83-80.714l23.46 7.54c-15.39-46.284 5.568-77.477 18.434-92.724 4.425 9.79 12.396 44.278 20.108 65.913 4.531-5.565 4.27-12.491 17.316-14.244-3.269 44.218 4.552 80.447 46.362 80.715 14.779-23.381 32.411-39.627 51.39-52.507-4.278-20.515-1.554-60.232-20.11-60.885-25.41-0.894-37.227 2.808-54.74-2.793-16.173-22.335-14.987-47.59-12.74-67.847-54.678-27.557-48.39-81.972-13.772-88.792-4.022 22.54-9.233 40.639 15.9 49.392 0.914-42.185 2.97-89.372 65.844-54.272-20.147 7.362-41.442 16.125-36.077 39.484 46.607-22.884 55.874 4.5 63.086 21.858-17.15-0.46-38.262-19.805-52.078 6.336-8.267 15.643 3.313 43.175 13.965 59.21 30.528-25.635 55.627-59.8 103.34-48.038-23.147-24.95-24.066-49.9-25.695-74.85 15.918 4.581 33.276 14.078 57.534 37.425h150.82l-24.576 49.713-15.584-20.272-24.075 24.74-21.785-26.252-29.046 33.514 13.406 16.2 15.082-18.993 20.108 21.785 25.136-21.226 12.848 12.289-11.73 28.487c-32.382 2.288-63.976-11.185-98.31 30.164 9.407 21.581 26.252 34.796 52.506 37.424 61.734-77.259 87.839-40.664 97.308-19.008-18.712-7.396-41.145-5.18-48.99 20.963 94.104-13.285 65.17 46.659 58.734 63.227-9.057-20.891-7.92-50.593-41.698-38.37 21.891 49.98 0.846 55.718-11.73 64.795-2.965-27.495-3.925-70.39-31.28-62.56-48.574 13.901-81.41 34.295-99.428-35.191-12.245 12.959-20.846 28.52-18.433 51.948 64.634 19.134 94.215 50.374 100.08 103.91 1.383 12.625-48.923 20.805-72.712 15.07-8.508 46.645 12.735 72.095 37.425 93.841z" fill="#d40000" data-darkreader-inline-fill=""/></g></g><g transform="scale(1.0003 .9997)" fill="#d40000" stroke-width=".52901" aria-label="Werewolf"><path d="m31.182 155.34 6.3312-22.853 1.8621-0.98184-5.5186-4.4691-2.6747 18.316-3.7242-11.037-3.6226 11.037-2.6747-18.316-5.5186 4.4691 1.8621 0.98184 6.3312 22.853 3.6226-11.206z"/><path d="m46.485 151.04 2.1668-5.1462-3.3518 2.4377h-3.9274l0.20314-5.9587 1.1511-0.33857 2.133 1.5574 2.1668-3.2164h-5.2816l0.30471-5.1462c1.3881 0 4.0628 0.74485 4.4352 1.4558l1.6251-3.3518h-10.868l1.896 1.896 0.50785 15.811z"/><path d="m58.64 151.21-4.0628-8.9043c2.37-1.3204 3.5549-2.9117 3.5549-4.8076 0-2.5731-2.7085-4.1644-6.6697-4.1644h-3.7581l1.896 1.896 0.5417 15.811h1.3204l0.47399-7.6177 0.10157-0.0339zm-6.1619-15.98c1.659 0 3.0132 0.81256 3.0132 2.4038 0 1.6251-1.1511 2.9455-3.4195 4.0289z"/><path d="m66.934 151.04 2.1668-5.1462-3.3518 2.4377h-3.9274l0.20314-5.9587 1.1511-0.33857 2.133 1.5574 2.1668-3.2164h-5.2816l0.30471-5.1462c1.3881 0 4.0628 0.74485 4.4352 1.4558l1.6251-3.3518h-10.868l1.896 1.896 0.50785 15.811z"/><path d="m78.852 152.13 4.3336-15.642 1.3204-0.71098-3.8258-3.0471-1.8283 12.595-2.5054-7.6177-2.5054 7.6177-1.8621-12.595-3.7581 3.0471 1.2527 0.71098 4.3675 15.642 2.5054-7.6516z"/><path d="m87.925 151.48c2.8101 0 4.7061-4.2998 4.7061-8.5996 0-4.2659-1.8283-7.2453-4.7061-7.2453-2.9455 0-4.6383 2.9117-4.6383 7.1099 0 4.4013 1.9298 8.735 4.6383 8.735zm0-2.0314c-1.3204 0-2.1668-2.5731-2.1668-5.8572 0-3.2502 0.88027-5.654 2.1668-5.654s2.1668 2.4715 2.1668 5.7895c0 3.3179-0.84641 5.7217-2.1668 5.7217z"/><path d="m99.944 151.04 2.1668-5.1462-3.3179 2.4377h-3.2164l0.94798-14.998h-5.1123l1.896 1.896 0.50785 15.811z"/><path d="m104.65 151.04 0.20314-8.6673 1.0834-0.33857 2.1668 1.5574 2.1668-3.2164h-5.3155l0.33857-5.1462c1.3543 0 4.0628 0.71099 4.4352 1.4558l1.5912-3.3518h-10.834l1.9298 1.896 0.50785 15.811z"/></g></svg>
