{
	"asset":{
		"copyright":"Arthur",
		"generator":"Khronos glTF Blender I/O v4.2.60",
		"version":"2.0"
	},
	"scene":0,
	"scenes":[
		{
			"name":"Scene",
			"nodes":[
				0
			]
		}
	],
	"nodes":[
		{
			"mesh":0,
			"name":"Cube"
		}
	],
	"materials":[
		{
			"doubleSided":true,
			"name":"DieWhite",
			"pbrMetallicRoughness":{
				"metallicFactor":0,
				"roughnessFactor":0.5
			}
		},
		{
			"doubleSided":true,
			"name":"SpotBlack",
			"pbrMetallicRoughness":{
				"baseColorFactor":[
					0,
					0,
					0,
					1
				],
				"metallicFactor":0,
				"roughnessFactor":0.5
			}
		}
	],
	"meshes":[
		{
			"name":"Cube.001",
			"primitives":[
				{
					"attributes":{
						"POSITION":0,
						"NORMAL":1
					},
					"indices":2,
					"material":0
				},
				{
					"attributes":{
						"POSITION":3,
						"NORMAL":4
					},
					"indices":5,
					"material":1
				}
			]
		}
	],
	"accessors":[
		{
			"bufferView":0,
			"componentType":5126,
			"count":5957,
			"max":[
				0.8000003099441528,
				0.8000001311302185,
				0.8000003695487976
			],
			"min":[
				-0.8000003695487976,
				-0.8000001311302185,
				-0.8000003695487976
			],
			"type":"VEC3"
		},
		{
			"bufferView":1,
			"componentType":5126,
			"count":5957,
			"type":"VEC3"
		},
		{
			"bufferView":2,
			"componentType":5123,
			"count":34848,
			"type":"SCALAR"
		},
		{
			"bufferView":3,
			"componentType":5126,
			"count":1197,
			"max":[
				0.8000003099441528,
				0.8000001311302185,
				0.8000003695487976
			],
			"min":[
				-0.8000001907348633,
				-0.8000001311302185,
				-0.8000003695487976
			],
			"type":"VEC3"
		},
		{
			"bufferView":4,
			"componentType":5126,
			"count":1197,
			"type":"VEC3"
		},
		{
			"bufferView":5,
			"componentType":5123,
			"count":6048,
			"type":"SCALAR"
		}
	],
	"bufferViews":[
		{
			"buffer":0,
			"byteLength":71484,
			"byteOffset":0,
			"target":34962
		},
		{
			"buffer":0,
			"byteLength":71484,
			"byteOffset":71484,
			"target":34962
		},
		{
			"buffer":0,
			"byteLength":69696,
			"byteOffset":142968,
			"target":34963
		},
		{
			"buffer":0,
			"byteLength":14364,
			"byteOffset":212664,
			"target":34962
		},
		{
			"buffer":0,
			"byteLength":14364,
			"byteOffset":227028,
			"target":34962
		},
		{
			"buffer":0,
			"byteLength":12096,
			"byteOffset":241392,
			"target":34963
		}
	],
	"buffers":[
		{
			"byteLength":253488,
			"uri":"d6_traditional.bin"
		}
	]
}
