{
    "asset" : {
        "copyright" : "Arthur",
        "generator" : "Khronos glTF Blender I/O v1.8.19",
        "version" : "2.0"
    },
    "scene" : 0,
    "scenes" : [
        {
            "name" : "Scene",
            "nodes" : [
                0
            ]
        }
    ],
    "nodes" : [
        {
            "mesh" : 0,
            "name" : "Cube"
        }
    ],
    "materials" : [
        {
            "doubleSided" : true,
            "name" : "DieWhite",
            "pbrMetallicRoughness" : {
                "baseColorFactor" : [
                    1,
                    1,
                    1,
                    1
                ],
                "metallicFactor" : 0,
                "roughnessFactor" : 0.5
            }
        },
        {
            "doubleSided" : true,
            "name" : "SpotBlack",
            "pbrMetallicRoughness" : {
                "baseColorFactor" : [
                    0,
                    0,
                    0,
                    1
                ],
                "metallicFactor" : 0,
                "roughnessFactor" : 0.5
            }
        }
    ],
    "meshes" : [
        {
            "name" : "Cube",
            "primitives" : [
                {
                    "attributes" : {
                        "POSITION" : 0,
                        "NORMAL" : 1
                    },
                    "indices" : 2,
                    "material" : 0
                },
                {
                    "attributes" : {
                        "POSITION" : 3,
                        "NORMAL" : 4
                    },
                    "indices" : 5,
                    "material" : 1
                }
            ]
        }
    ],
    "accessors" : [
        {
            "bufferView" : 0,
            "componentType" : 5126,
            "count" : 5957,
            "max" : [
                1.0000003576278687,
                1.0000001192092896,
                1.0000004768371582
            ],
            "min" : [
                -1.0000004768371582,
                -1.0000001192092896,
                -1.0000004768371582
            ],
            "type" : "VEC3"
        },
        {
            "bufferView" : 1,
            "componentType" : 5126,
            "count" : 5957,
            "type" : "VEC3"
        },
        {
            "bufferView" : 2,
            "componentType" : 5123,
            "count" : 34848,
            "type" : "SCALAR"
        },
        {
            "bufferView" : 3,
            "componentType" : 5126,
            "count" : 1197,
            "max" : [
                1.0000003576278687,
                1.0000001192092896,
                1.0000004768371582
            ],
            "min" : [
                -1.000000238418579,
                -1.0000001192092896,
                -1.0000004768371582
            ],
            "type" : "VEC3"
        },
        {
            "bufferView" : 4,
            "componentType" : 5126,
            "count" : 1197,
            "type" : "VEC3"
        },
        {
            "bufferView" : 5,
            "componentType" : 5123,
            "count" : 6048,
            "type" : "SCALAR"
        }
    ],
    "bufferViews" : [
        {
            "buffer" : 0,
            "byteLength" : 71484,
            "byteOffset" : 0
        },
        {
            "buffer" : 0,
            "byteLength" : 71484,
            "byteOffset" : 71484
        },
        {
            "buffer" : 0,
            "byteLength" : 69696,
            "byteOffset" : 142968
        },
        {
            "buffer" : 0,
            "byteLength" : 14364,
            "byteOffset" : 212664
        },
        {
            "buffer" : 0,
            "byteLength" : 14364,
            "byteOffset" : 227028
        },
        {
            "buffer" : 0,
            "byteLength" : 12096,
            "byteOffset" : 241392
        }
    ],
    "buffers" : [
        {
            "byteLength" : 253488,
            "uri" : "d6_traditional.bin"
        }
    ]
}
