{
    "asset" : {
        "generator" : "Khronos glTF Blender I/O v1.1.46",
        "version" : "2.0"
    },
    "scene" : 0,
    "scenes" : [
        {
            "name" : "Scene",
            "nodes" : [
                0,
                1,
                2,
                3,
                4,
                5,
                6,
                7,
                8
            ]
        }
    ],
    "nodes" : [
        {
            "mesh" : 0,
            "name" : "Base",
            "rotation" : [
                0.7071068286895752,
                0,
                0,
                0.7071067094802856
            ],
            "scale" : [
                152.39999389648438,
                91.44001007080078,
                5.715000629425049
            ],
            "translation" : [
                0,
                -2.8629002571105957,
                0
            ]
        },
        {
            "mesh" : 1,
            "name" : "Side1",
            "rotation" : [
                0.7071068286895752,
                0,
                0,
                0.7071067094802856
            ],
            "scale" : [
                152.39999389648438,
                7.112000942230225,
                11.430001258850098
            ],
            "translation" : [
                0,
                6.619054602197139e-06,
                -49.264007568359375
            ]
        },
        {
            "mesh" : 1,
            "name" : "Side2",
            "rotation" : [
                0.7071068286895752,
                0,
                0,
                0.7071067094802856
            ],
            "scale" : [
                152.39999389648438,
                7.112000942230225,
                11.430001258850098
            ],
            "translation" : [
                0,
                -6.619054602197139e-06,
                49.264007568359375
            ]
        },
        {
            "mesh" : 1,
            "name" : "Side3",
            "rotation" : [
                0.7071068286895752,
                0,
                0,
                0.7071067094802856
            ],
            "scale" : [
                7.111999988555908,
                105.66401672363281,
                11.430001258850098
            ],
            "translation" : [
                79.76599884033203,
                0,
                0
            ]
        },
        {
            "mesh" : 1,
            "name" : "Side4",
            "rotation" : [
                0.7071068286895752,
                0,
                0,
                0.7071067094802856
            ],
            "scale" : [
                7.111999988555908,
                105.66401672363281,
                11.430001258850098
            ],
            "translation" : [
                -79.76599884033203,
                0,
                0
            ]
        },
        {
            "mesh" : 1,
            "name" : "Leg1",
            "rotation" : [
                0.7071068286895752,
                0,
                0,
                0.7071067094802856
            ],
            "scale" : [
                7,
                7.000000953674316,
                75.69200897216797
            ],
            "translation" : [
                -79.70680236816406,
                -32.508296966552734,
                -49.212310791015625
            ]
        },
        {
            "mesh" : 1,
            "name" : "Leg2",
            "rotation" : [
                0.7071068286895752,
                0,
                0,
                0.7071067094802856
            ],
            "scale" : [
                7,
                7.000000953674316,
                75.69200897216797
            ],
            "translation" : [
                79.70680236816406,
                -32.508296966552734,
                -49.212310791015625
            ]
        },
        {
            "mesh" : 1,
            "name" : "Leg3",
            "rotation" : [
                0.7071068286895752,
                0,
                0,
                0.7071067094802856
            ],
            "scale" : [
                7,
                7.000000953674316,
                75.69200897216797
            ],
            "translation" : [
                79.70680236816406,
                -32.5083122253418,
                49.212303161621094
            ]
        },
        {
            "mesh" : 1,
            "name" : "Leg4",
            "rotation" : [
                0.7071068286895752,
                0,
                0,
                0.7071067094802856
            ],
            "scale" : [
                7,
                7.000000953674316,
                75.69200897216797
            ],
            "translation" : [
                -79.68679809570312,
                -32.5083122253418,
                49.212303161621094
            ]
        }
    ],
    "materials" : [
        {
            "doubleSided" : true,
            "emissiveFactor" : [
                0,
                0,
                0
            ],
            "name" : "TableBase",
            "pbrMetallicRoughness" : {
                "baseColorFactor" : [
                    0,
                    0.3294120132923126,
                    0.137254998087883,
                    1
                ],
                "metallicFactor" : 0,
                "roughnessFactor" : 0.5
            }
        },
        {
            "doubleSided" : true,
            "emissiveFactor" : [
                0,
                0,
                0
            ],
            "name" : "TableSide",
            "pbrMetallicRoughness" : {
                "baseColorFactor" : [
                    0,
                    0,
                    0,
                    1
                ],
                "metallicFactor" : 0,
                "roughnessFactor" : 0.5
            }
        }
    ],
    "meshes" : [
        {
            "name" : "BaseCube",
            "primitives" : [
                {
                    "attributes" : {
                        "POSITION" : 0,
                        "NORMAL" : 1,
                        "TEXCOORD_0" : 2
                    },
                    "indices" : 3,
                    "material" : 0
                }
            ]
        },
        {
            "name" : "SideCube",
            "primitives" : [
                {
                    "attributes" : {
                        "POSITION" : 4,
                        "NORMAL" : 5,
                        "TEXCOORD_0" : 6
                    },
                    "indices" : 3,
                    "material" : 1
                }
            ]
        }
    ],
    "accessors" : [
        {
            "bufferView" : 0,
            "componentType" : 5126,
            "count" : 24,
            "max" : [
                0.5,
                0.5,
                0.5
            ],
            "min" : [
                -0.5,
                -0.5,
                -0.5
            ],
            "type" : "VEC3"
        },
        {
            "bufferView" : 1,
            "componentType" : 5126,
            "count" : 24,
            "type" : "VEC3"
        },
        {
            "bufferView" : 2,
            "componentType" : 5126,
            "count" : 24,
            "type" : "VEC2"
        },
        {
            "bufferView" : 3,
            "componentType" : 5123,
            "count" : 36,
            "type" : "SCALAR"
        },
        {
            "bufferView" : 4,
            "componentType" : 5126,
            "count" : 24,
            "max" : [
                0.5,
                0.5,
                0.5
            ],
            "min" : [
                -0.5,
                -0.5,
                -0.5
            ],
            "type" : "VEC3"
        },
        {
            "bufferView" : 5,
            "componentType" : 5126,
            "count" : 24,
            "type" : "VEC3"
        },
        {
            "bufferView" : 6,
            "componentType" : 5126,
            "count" : 24,
            "type" : "VEC2"
        }
    ],
    "bufferViews" : [
        {
            "buffer" : 0,
            "byteLength" : 288,
            "byteOffset" : 0
        },
        {
            "buffer" : 0,
            "byteLength" : 288,
            "byteOffset" : 288
        },
        {
            "buffer" : 0,
            "byteLength" : 192,
            "byteOffset" : 576
        },
        {
            "buffer" : 0,
            "byteLength" : 72,
            "byteOffset" : 768
        },
        {
            "buffer" : 0,
            "byteLength" : 288,
            "byteOffset" : 840
        },
        {
            "buffer" : 0,
            "byteLength" : 288,
            "byteOffset" : 1128
        },
        {
            "buffer" : 0,
            "byteLength" : 192,
            "byteOffset" : 1416
        }
    ],
    "buffers" : [
        {
            "byteLength" : 1608,
            "uri" : "Table.bin"
        }
    ]
}
