<?xml version="1.0" encoding="UTF-8"?>
<!-- Created with Inkscape (http://www.inkscape.org/) -->
<svg width="5in" height="7in" version="1.1" viewBox="0 0 127 177.8" xml:space="preserve" xmlns="http://www.w3.org/2000/svg" xmlns:cc="http://creativecommons.org/ns#" xmlns:rdf="http://www.w3.org/1999/02/22-rdf-syntax-ns#"><rect y="4.4409e-16" width="127" height="177.8" stroke-width=".52718"/><g transform="scale(1.0004 .9996)" fill="#008000" stroke-width=".52906" aria-label="Villager"><path d="m32.357 155.36 7.9571-22.856 1.8962-0.98194-5.5192-4.4695-4.3341 19.876-4.3002-19.876-5.4853 4.4695 1.8623 0.98194z"/><path d="m41.77 154.88 1.8284-20.248-2.8442-1.2867z"/><path d="m51.827 151.06 2.167-5.1467-3.3183 2.4379h-3.2167l0.94808-15h-5.1129l1.8962 1.8962 0.5079 15.813z"/><path d="m61.104 151.06 2.167-5.1467-3.3183 2.4379h-3.2167l0.94808-15h-5.1129l1.8962 1.8962 0.5079 15.813z"/><path d="m75.901 148.62-1.2528-0.71106-5.4515-15.576-5.4853 15.576-1.2528 0.71106 3.7585 3.0813 0.71106-3.3183h4.5034l0.71106 3.3183zm-4.8758-2.1332h-3.6907l1.8623-8.3973z"/><path d="m81.996 154.04 1.3205-12.596h-4.5711l0.1693 4.1309 0.94808-1.8962h1.3205c0.06772 1.5576 0.13544 2.3702 0.13544 2.4041 0 1.219-0.8465 2.7427-1.8623 2.7427-1.3544 0-2.5734-3.7246-2.5734-6.1625 0-4.9436 1.0835-7.3815 3.3521-7.3815h0.5079l0.44018 2.2009 2.4041-4.5372-2.167 0.74492c-0.64334-0.27088-1.2867-0.37246-1.8962-0.37246-3.0474 0-5.1467 3.7246-5.1467 8.9052 0 4.2325 2.167 9.1422 4.7743 9.1422 1.1174 0 1.9639-0.71106 2.5056-2.1332z"/><path d="m92.222 151.06 2.167-5.1467-3.3521 2.4379h-3.9278l0.20316-5.9594 1.1512-0.3386 2.1332 1.5576 2.167-3.2167h-5.2822l0.30474-5.1467c1.3883 0 4.0632 0.74492 4.4357 1.456l1.6253-3.3521h-10.869l1.8962 1.8962 0.5079 15.813z"/><path d="m104.38 151.23-4.0632-8.9052c2.3702-1.3205 3.5553-2.912 3.5553-4.8081 0-2.5734-2.7088-4.1648-6.6704-4.1648h-3.7585l1.8962 1.8962 0.54176 15.813h1.3205l0.47404-7.6185 0.10158-0.0339zm-6.1625-15.982c1.6591 0 3.0135 0.81264 3.0135 2.4041 0 1.6253-1.1512 2.9458-3.4199 4.0293z"/></g><g transform="matrix(.21652 0 0 .21652 5.141 7.4892)" fill="#008000"><g class="" fill="#008000"><path d="m379.42 24.066-28.059 87.407 28.268 5.941-3.098 15.352-52.25 47.843-51.5-43.125-23.404-4.093c8.217-14.33 14.683-32.77 16.404-49.594 10.02-2.28 34.92-5.675 46.094-10.059-4.997-10.285-30.197-16.906-48.7-16.316-1.733-20.713-8.88-29.054-34.155-27.902-25.276 1.151-32.972 6.601-30.16 36.423-18.866 4.127-38.097 12.616-39.74 27.084 7.87-0.307 32.96-2.896 40.724-3.011 0.66 14.1 4.4 27.847 9.97 36.375l-35.158-6.125-68.656 75.656 77.344 55.875 1.625 16.844-34.19 215.75h38.375l38.315-169.25 47.873 169.25h37.47l-3.564-16.407 17.094 16.407 63.062-322.53c5.01-4.54 9.265-8.481 12.094-11.312 0.177-10.537-2.537-18.942-5.094-24.5l0.971-4.902 27.238 5.724 8.444-93.117-22.846 68.781-10.848-2.256 6.635-72.658-21.568 69.55-11.217-2.333zm26.578 3.553 2e-3 -0.01h-2e-3zm-223.15 125.77 0.344 64.095-31.5-23.75zm88.031 21.252 50.875 45.937s22.993-19.456 44.875-38.531l-57.438 285.56-42.812-197.53 4.5-95.44z" fill="#008000" data-darkreader-inline-fill=""/></g></g></svg>
