{
    "asset" : {
        "copyright" : "rehcub",
        "generator" : "Khronos glTF Blender I/O v1.1.46",
        "version" : "2.0"
    },
    "scene" : 0,
    "scenes" : [
        {
            "name" : "Scene",
            "nodes" : [
                0
            ]
        }
    ],
    "nodes" : [
        {
            "mesh" : 0,
            "name" : "Queen",
            "scale" : [
                1.7262449264526367,
                1.7262449264526367,
                1.7262449264526367
            ]
        }
    ],
    "materials" : [
        {
            "doubleSided" : true,
            "emissiveFactor" : [
                0,
                0,
                0
            ],
            "name" : "ChessWhite",
            "pbrMetallicRoughness" : {
                "baseColorFactor" : [
                    0.800000011920929,
                    0.800000011920929,
                    0.800000011920929,
                    1
                ],
                "metallicFactor" : 0,
                "roughnessFactor" : 0.800000011920929
            }
        }
    ],
    "meshes" : [
        {
            "name" : "Cylinder.001",
            "primitives" : [
                {
                    "attributes" : {
                        "POSITION" : 0,
                        "NORMAL" : 1,
                        "TEXCOORD_0" : 2
                    },
                    "indices" : 3,
                    "material" : 0
                }
            ]
        }
    ],
    "accessors" : [
        {
            "bufferView" : 0,
            "componentType" : 5126,
            "count" : 2350,
            "max" : [
                0.9219099879264832,
                3.8916008472442627,
                0.9219099879264832
            ],
            "min" : [
                -0.9219101071357727,
                0,
                -0.9219101071357727
            ],
            "type" : "VEC3"
        },
        {
            "bufferView" : 1,
            "componentType" : 5126,
            "count" : 2350,
            "type" : "VEC3"
        },
        {
            "bufferView" : 2,
            "componentType" : 5126,
            "count" : 2350,
            "type" : "VEC2"
        },
        {
            "bufferView" : 3,
            "componentType" : 5123,
            "count" : 11706,
            "type" : "SCALAR"
        }
    ],
    "bufferViews" : [
        {
            "buffer" : 0,
            "byteLength" : 28200,
            "byteOffset" : 0
        },
        {
            "buffer" : 0,
            "byteLength" : 28200,
            "byteOffset" : 28200
        },
        {
            "buffer" : 0,
            "byteLength" : 18800,
            "byteOffset" : 56400
        },
        {
            "buffer" : 0,
            "byteLength" : 23412,
            "byteOffset" : 75200
        }
    ],
    "buffers" : [
        {
            "byteLength" : 98612,
            "uri" : "Queen.bin"
        }
    ]
}
